<?xml version="1.0" encoding="UTF-8"?>
<svg width="512px" height="512px" viewBox="0 0 512 512" version="1.1" xmlns="http://www.w3.org/2000/svg" xmlns:xlink="http://www.w3.org/1999/xlink">
    <!-- Generator: Sketch 54.1 (76490) - https://sketchapp.com -->
    <title>twitter</title>
    <desc>Created with Sketch.</desc>
    <g id="twitter" stroke="none" stroke-width="1" fill="none" fill-rule="evenodd">
        <g id="Icons/Assets/App/Flat">
            <g id="Icons/Assets/Background/Rounded/Fill" fill="#00AAEC">
                <path d="M143.163278,-2.84217094e-14 L368.836722,-2.84217094e-14 C418.617713,-2.84217094e-14 436.669503,5.1832347 454.868689,14.9162659 C473.067875,24.6492971 487.350703,38.9321249 497.083734,57.131311 C506.816765,75.330497 512,93.3822871 512,143.163278 L512,368.832479 C512,418.61347 506.816765,436.66526 497.083734,454.864446 C487.350703,473.063632 473.067875,487.34646 454.868689,497.079491 C436.669503,506.812522 418.617713,511.995757 368.836722,511.995757 L143.163278,511.995757 C93.3822871,511.995757 75.330497,506.812522 57.131311,497.079491 C38.9321249,487.34646 24.6492971,473.063632 14.9162659,454.864446 C5.1832347,436.66526 0,418.61347 0,368.832479 L0,143.163278 C0,93.3822871 5.1832347,75.330497 14.9162659,57.131311 C24.6492971,38.9321249 38.9321249,24.6492971 57.131311,14.9162659 C75.330497,5.1832347 93.3822871,-2.84217094e-14 143.163278,-2.84217094e-14 Z" id="Rounded-shape"></path>
            </g>
            <g id="Icons/Social-Media/Logotypes/Twitter/Flat" transform="translate(96.000000, 96.000000)" fill="#FFFFFF">
                <path d="M282.303222,66.4885294 C295.864295,57.9307201 306.269883,44.3610455 311.153372,28.1962944 C298.456301,36.1400018 284.425662,41.8848275 269.45589,44.9949573 C257.510125,31.5243314 240.436697,23.125 221.541351,23.125 C185.290838,23.125 155.914774,54.1272492 155.914774,92.360055 C155.914774,97.7879248 156.459471,103.077126 157.58643,108.128611 C103.041615,105.236389 54.6762928,77.7008445 22.2762223,35.7834264 C16.6226448,46.0448737 13.3920291,57.9307201 13.3920291,70.6089562 C13.3920291,94.6183658 24.9809239,115.814792 42.5990491,128.255311 C31.8365909,127.898736 21.7127429,124.748986 12.8473323,119.598453 L12.8473323,120.450272 C12.8473323,154.007978 35.4616423,181.999146 65.5326642,188.338264 C60.0105652,189.962663 54.2255092,190.774863 48.2150613,190.774863 C43.9889652,190.774863 39.8567823,190.358858 35.8748606,189.546659 C44.214357,217.042583 68.4627575,237.090044 97.2002113,237.624907 C74.7173798,256.206447 46.411927,267.260284 15.6647297,267.260284 C10.3680225,267.260284 5.12766332,266.963138 0,266.309416 C29.0567588,285.940873 63.560486,297.410714 100.637436,297.410714 C221.409873,297.410714 287.412103,191.904018 287.412103,100.402811 C287.412103,97.3917299 287.374538,94.4004586 287.243059,91.4488068 C300.071609,81.682603 311.228503,69.4798008 320,55.5931703 C308.223279,61.1002791 295.563773,64.8245109 282.303222,66.4885294 Z" id="Twitter-shape"></path>
            </g>
        </g>
    </g>
</svg>