<?xml version="1.0" encoding="UTF-8"?>
<svg width="512px" height="512px" viewBox="0 0 512 512" version="1.1" xmlns="http://www.w3.org/2000/svg" xmlns:xlink="http://www.w3.org/1999/xlink">
    <!-- Generator: Sketch 54.1 (76490) - https://sketchapp.com -->
    <title>affinity-designer</title>
    <desc>Created with Sketch.</desc>
    <defs>
        <path d="M511.488772,15.3446632 C511.488772,6.87615738 504.612615,0 496.144109,0 L15.3446632,0 C6.87615738,0 0,6.87615738 0,15.3446632 L0,496.144109 C0,504.612615 6.87615738,511.488772 15.3446632,511.488772 L496.144109,511.488772 C504.612615,511.488772 511.488772,504.612615 511.488772,496.144109 L511.488772,15.3446632 Z" id="path-1"></path>
        <radialGradient cx="76.4334961%" cy="-18.7939453%" fx="76.4334961%" fy="-18.7939453%" r="118.793945%" id="radialGradient-3">
            <stop stop-color="#6BE1FB" offset="0%"></stop>
            <stop stop-color="#38BDFA" offset="100%"></stop>
        </radialGradient>
        <linearGradient x1="77.7821312%" y1="96.7625306%" x2="77.7804777%" y2="3.47957142%" id="linearGradient-4">
            <stop stop-color="#4AC5FA" offset="0%"></stop>
            <stop stop-color="#97E8FC" offset="100%"></stop>
        </linearGradient>
    </defs>
    <g id="affinity-designer" stroke="none" stroke-width="1" fill="none" fill-rule="evenodd">
        <g id="affinity-designer-icon-090520190839">
            <path d="M511.488829,15.3447604 C511.488829,6.87625456 504.612671,9.71828172e-05 496.144165,9.71828172e-05 L15.3447194,9.71828172e-05 C6.87621364,9.71828172e-05 5.62637363e-05,6.87625456 5.62637363e-05,15.3447604 L5.62637363e-05,496.144206 C5.62637363e-05,504.612712 6.87621364,511.48887 15.3447194,511.48887 L496.144165,511.48887 C504.612671,511.48887 511.488829,504.612712 511.488829,496.144206 L511.488829,15.3447604 Z" id="Path" fill="#144E8C"></path>
            <g id="Clipped" transform="translate(0.000056, 0.000097)">
                <mask id="mask-2" fill="white">
                    <use xlink:href="#path-1"></use>
                </mask>
                <g id="Path"></g>
                <g id="Group" mask="url(#mask-2)">
                    <g transform="translate(-16.537743, -10.789697)">
                        <path d="M528.026516,26.1343599 C528.026516,17.6658541 521.150358,10.7896967 512.681852,10.7896967 L31.8824064,10.7896967 C23.4139006,10.7896967 16.5377432,17.6658541 16.5377432,26.1343599 L16.5377432,506.933806 C16.5377432,515.402312 23.4139006,522.278469 31.8824064,522.278469 L512.681852,522.278469 C521.150358,522.278469 528.026516,515.402312 528.026516,506.933806 L528.026516,26.1343599 Z" id="Path" fill="#1B72BE"></path>
                        <path d="M528.026516,26.1343599 C528.026516,17.6658541 521.150358,10.7896967 512.681852,10.7896967 L226.24814,10.7896967 L16.5377432,374.018782 L16.5377432,506.933806 C16.5377432,515.402312 23.4139006,522.278469 31.8824064,522.278469 L512.681852,522.278469 C521.150358,522.278469 528.026516,515.402312 528.026516,506.933806 L528.026516,26.1343599 Z" id="Path" fill="#0568AA"></path>
                        <path d="M253.025109,522.278469 L217.353197,522.278469 L125.214341,337.039207 L304.766982,10.7896967 L333.660782,10.7896967 L145.689249,336.367066 L253.023927,522.278469 L253.025109,522.278469 Z M349.655142,522.278469 L260.69744,522.278469 L155.875317,340.721218 L528.061954,340.721218 L528.026516,374.620047 L349.655142,522.278469 Z M261.237279,10.7896967 L231.363028,10.7896967 L16.5377432,382.877106 L16.5377432,434.622524 L261.237279,10.7896967 Z M313.130355,334.029338 L211.95953,334.029338 C200.1504,334.029338 189.169338,327.85131 183.264183,317.626259 C177.360069,307.399547 177.360069,294.799929 183.264183,284.573217 L233.920471,196.834583 L313.130355,334.029338 Z M528.026516,334.029338 L320.802687,334.029338 L237.756047,190.188773 L341.333114,10.7896967 L378.861978,10.8133221 L324.352395,196.248674 L349.655142,248.224439 L528.026516,318.368095 L528.026516,334.029338 L528.026516,334.029338 Z" id="Shape" fill="#074F7F"></path>
                        <path d="M528.02498,522.273803 L268.368964,522.273803 L167.385769,347.36427 L528.02498,347.36427 L528.02498,522.273803 Z M245.352054,522.273803 L16.5380976,522.273803 L16.5380976,396.165314 L239.034891,10.7869207 L325.987661,10.7869207 L138.016232,336.365304 L245.352054,522.273803 Z M301.642584,327.419279 L213.727779,327.419279 C203.913625,327.419279 194.845222,322.269445 189.938145,313.767974 C185.031043,305.269655 185.031043,294.798848 189.938145,286.300529 C209.467054,252.474463 233.920023,210.12195 233.920023,210.12195 L301.642584,327.419279 L301.642584,327.419279 Z M528.02498,327.419279 L324.669484,327.419279 L245.428477,190.186949 L349.004571,10.7869207 L528.02498,10.7869207 L528.02498,327.419279 Z" id="Shape" fill="url(#radialGradient-3)"></path>
                        <path d="M539.893074,531.679367 L273.800015,531.679367 L167.385769,347.36427 L539.708259,347.36427 L539.893074,531.679367 L539.893074,531.679367 Z M138.016232,336.365304 L250.783106,531.679367 L0.840345399,531.679367 L0.00318522841,424.801586 L245.212194,0.0876541046 L332.164964,0.0876541046 L138.016232,336.365304 Z M178.017104,353.503112 L277.34396,525.545521 L533.749237,525.545521 L533.579408,353.503112 L178.017104,353.503112 Z M248.75564,6.22649569 L6.15401479,426.424957 L6.93023609,525.545521 L240.15227,525.545521 L130.928842,336.365304 L321.53363,6.22649569 L248.75564,6.22649569 L248.75564,6.22649569 Z M301.642584,327.419279 L213.49801,327.419279 L213.383125,327.414284 L213.153855,327.414284 L213.03897,327.409289 L212.924585,327.409289 L212.8102,327.404294 L212.695814,327.399299 L212.581429,327.394304 L212.467044,327.389309 L212.353158,327.384314 L212.238773,327.379319 L212.124887,327.374324 L212.011001,327.364334 L211.897116,327.359339 L211.783729,327.349349 L211.669844,327.344354 L211.556457,327.334364 L211.443071,327.324374 L211.329685,327.314384 L211.216299,327.304394 L211.103412,327.294404 L210.990026,327.284414 L210.877139,327.274424 L210.764252,327.259439 L210.651365,327.249449 L210.538978,327.234464 L210.426091,327.224474 L210.313704,327.209489 L210.201317,327.194504 L210.089429,327.179519 L209.977042,327.164534 L209.865154,327.149549 L209.753266,327.134564 L209.641379,327.119579 L209.529491,327.0996 L209.418103,327.084615 L209.306714,327.064635 L209.195326,327.04965 L209.083938,327.02967 L208.97255,327.00969 L208.861661,326.98971 L208.750772,326.96973 L208.640383,326.94975 L208.529494,326.92977 L208.419105,326.90979 L208.308716,326.884815 L208.198326,326.864835 L208.088437,326.83986 L207.978047,326.81988 L207.868158,326.794905 L207.758767,326.76993 L207.648877,326.744955 L207.539487,326.724975 L207.430097,326.695005 L207.320707,326.67003 L207.211816,326.645056 L207.102925,326.620081 L206.994034,326.590111 L206.885643,326.565136 L206.777252,326.540161 L206.668861,326.510191 L206.560469,326.480221 L206.452578,326.450251 L206.344686,326.420281 L206.236794,326.390311 L206.128902,326.360341 L206.02151,326.330371 L205.914118,326.300401 L205.807225,326.270431 L205.700332,326.235466 L205.593439,326.205496 L205.486547,326.170532 L205.380153,326.135567 L205.27376,326.105597 L205.167367,326.070632 L205.061473,326.035667 L204.955579,326.000702 L204.849686,325.965737 L204.744291,325.925777 L204.638897,325.890812 L204.533503,325.855847 L204.428608,325.820882 L204.323713,325.780922 L204.218818,325.740963 L204.114423,325.705998 L204.010028,325.666038 L203.906132,325.626078 L203.801737,325.586118 L203.697841,325.546158 L203.594445,325.506198 L203.491049,325.466238 L203.387652,325.426278 L203.284756,325.381323 L203.181859,325.341363 L203.078962,325.296408 L202.976565,325.256449 L202.874167,325.211494 L202.77177,325.166539 L202.669872,325.121584 L202.567975,325.081624 L202.466576,325.031674 L202.365178,324.986719 L202.26378,324.941764 L202.162881,324.896809 L202.061982,324.851854 L201.961583,324.801905 L201.861184,324.75695 L201.760784,324.707 L201.660885,324.662045 L201.560985,324.612095 L201.461585,324.562145 L201.362184,324.512195 L201.262784,324.462245 L201.163883,324.412295 L201.064982,324.362346 L200.966581,324.312396 L200.86818,324.262446 L200.769779,324.207501 L200.671877,324.157551 L200.574474,324.102606 L200.477072,324.052656 L200.37967,323.997711 L200.282767,323.942766 L200.185864,323.887822 L200.088962,323.832877 L199.992558,323.782927 L199.896654,323.727982 L199.800751,323.668042 L199.704847,323.613097 L199.609443,323.558152 L199.514538,323.498212 L199.419133,323.443268 L199.324728,323.388323 L199.229823,323.328383 L199.135418,323.268443 L199.041512,323.208503 L198.947607,323.153558 L198.8542,323.093618 L198.760794,323.033678 L198.667887,322.973739 L198.57498,322.913799 L198.482074,322.848864 L198.389666,322.788924 L198.297758,322.728984 L198.205851,322.664049 L198.113943,322.604109 L198.022535,322.539174 L197.931626,322.47424 L197.840717,322.4143 L197.749808,322.349365 L197.659399,322.28443 L197.569489,322.219495 L197.479579,322.15456 L197.389669,322.089625 L197.300759,322.024691 L197.211348,321.954761 L197.122437,321.889826 L197.034026,321.824891 L196.945615,321.754961 L196.857703,321.690026 L196.769791,321.620097 L196.682379,321.550167 L196.594967,321.480237 L196.508054,321.415302 L196.421141,321.345372 L196.334728,321.275442 L196.248814,321.200517 L196.1629,321.130588 L196.076986,321.060658 L195.992071,320.990728 L195.906657,320.915803 L195.822242,320.845873 L195.737327,320.775943 L195.653411,320.701019 L195.569495,320.626094 L195.48558,320.556164 L195.402163,320.481239 L195.319246,320.406314 L195.23633,320.331389 L195.153912,320.256464 L195.071994,320.18154 L194.990077,320.106615 L194.908159,320.03169 L194.826741,319.95177 L194.745822,319.876845 L194.665402,319.796925 L194.584484,319.722001 L194.504564,319.642081 L194.424644,319.567156 L194.345224,319.487236 L194.265803,319.407316 L194.186882,319.327397 L194.108461,319.247477 L194.03004,319.167557 L193.952118,319.087637 L193.874196,319.007717 L193.796774,318.927797 L193.719851,318.847878 L193.642928,318.762963 L193.566505,318.683043 L193.490581,318.603123 L193.414657,318.518208 L193.339233,318.433293 L193.263808,318.353374 L193.189383,318.268459 L193.114458,318.183544 L193.040532,318.098629 L192.966607,318.013714 L192.892681,317.9288 L192.819754,317.843885 L192.746827,317.75897 L192.6739,317.674055 L192.601972,317.58914 L192.530045,317.499231 L192.458117,317.414316 L192.387188,317.324406 L192.316259,317.239491 L192.24533,317.149581 L192.1754,317.059671 L192.10547,316.974757 L192.035541,316.884847 L191.96661,316.794937 L191.897679,316.705027 L191.829248,316.615117 L191.760816,316.525208 L191.692884,316.435298 L191.625452,316.345388 L191.558519,316.255478 L191.491586,316.160573 L191.425153,316.070664 L191.35872,315.975759 L191.293285,315.885849 L191.227851,315.790944 L191.162417,315.696039 L191.097981,315.60613 L191.033546,315.511225 L190.96961,315.41632 L190.906174,315.321415 L190.842737,315.22651 L190.7798,315.131606 L190.717363,315.036701 L190.654926,314.941796 L190.593487,314.846891 L190.532049,314.746992 L190.470611,314.652087 L190.410171,314.557182 L190.349732,314.457282 L190.289792,314.362377 L190.230352,314.262478 L190.170911,314.162578 L190.11197,314.067673 L190.053529,313.967773 L189.995587,313.867873 L189.938145,313.767974 L189.880702,313.668074 L189.823759,313.568174 L189.767316,313.468274 L189.711372,313.368375 L189.655928,313.268475 L189.600983,313.168575 L189.546538,313.068675 L189.492092,312.968775 L189.438646,312.863881 L189.385199,312.763981 L189.332752,312.664081 L189.280305,312.559186 L189.228357,312.459287 L189.176908,312.359387 L189.125959,312.254492 L189.07551,312.154592 L189.025061,312.049697 L188.97561,311.949798 L188.926659,311.844903 L188.877709,311.740008 L188.829257,311.640108 L188.781805,311.535214 L188.734352,311.430319 L188.687399,311.330419 L188.640946,311.225524 L188.594493,311.120629 L188.549038,311.02073 L188.504083,310.915835 L188.459128,310.81094 L188.415173,310.706045 L188.371217,310.601151 L188.32776,310.496256 L188.284803,310.391361 L188.242346,310.286466 L188.200388,310.181572 L188.15893,310.076677 L188.117971,309.971782 L188.077012,309.866887 L188.037052,309.761992 L187.997092,309.657098 L187.957632,309.547208 L187.91917,309.442313 L187.880709,309.337418 L187.842747,309.232524 L187.805284,309.127629 L187.767822,309.017739 L187.731359,308.912844 L187.695395,308.80795 L187.659431,308.69806 L187.624466,308.593165 L187.589501,308.483275 L187.555035,308.37838 L187.521069,308.273486 L187.487603,308.163596 L187.454636,308.058701 L187.422169,307.948811 L187.390201,307.838922 L187.358233,307.734027 L187.327264,307.624137 L187.296295,307.519242 L187.265826,307.409353 L187.236355,307.304458 L187.206885,307.194568 L187.177914,307.084678 L187.149442,306.979783 L187.120971,306.869894 L187.093498,306.760004 L187.066525,306.650114 L187.039553,306.545219 L187.013079,306.43533 L186.987605,306.32544 L186.96213,306.21555 L186.937155,306.110655 L186.91268,306.000766 L186.888704,305.890876 L186.865227,305.780986 L186.841751,305.671096 L186.819274,305.561207 L186.796796,305.451317 L186.775318,305.341427 L186.753839,305.231537 L186.73286,305.121648 L186.712381,305.016753 L186.692401,304.906863 L186.67292,304.796973 L186.653939,304.687084 L186.635458,304.572199 L186.616976,304.467304 L186.599494,304.352419 L186.582012,304.242529 L186.565029,304.13264 L186.548545,304.02275 L186.533061,303.91286 L186.517077,303.80297 L186.502092,303.693081 L186.487606,303.583191 L186.47362,303.473301 L186.459634,303.363411 L186.446647,303.253522 L186.43366,303.138637 L186.421173,303.028747 L186.409684,302.918857 L186.398196,302.808968 L186.387207,302.699078 L186.376717,302.589188 L186.366228,302.474303 L186.356738,302.364414 L186.347747,302.254524 L186.338756,302.144634 L186.330264,302.034744 L186.322772,301.91986 L186.315279,301.80997 L186.308286,301.70008 L186.301793,301.59019 L186.295799,301.480301 L186.289805,301.365416 L186.28481,301.255526 L186.280314,301.145636 L186.275819,301.035746 L186.271823,300.920862 L186.268826,300.810972 L186.265829,300.701082 L186.263331,300.591192 L186.261333,300.476308 L186.259835,300.366418 L186.258336,300.256528 L186.257837,300.146638 L186.257837,299.921864 L186.258336,299.811974 L186.259835,299.702084 L186.261333,299.5872 L186.263331,299.47731 L186.265829,299.36742 L186.268826,299.25753 L186.271823,299.142646 L186.275819,299.032756 L186.280314,298.922866 L186.28481,298.812976 L186.289805,298.698092 L186.295799,298.588202 L186.301793,298.478312 L186.308286,298.368422 L186.315279,298.253538 L186.322772,298.143648 L186.330264,298.033758 L186.338756,297.923868 L186.347747,297.813979 L186.356738,297.704089 L186.366228,297.589204 L186.376717,297.479314 L186.387207,297.369424 L186.398196,297.259535 L186.409684,297.149645 L186.421173,297.03476 L186.43366,296.92487 L186.446647,296.814981 L186.459634,296.705091 L186.47362,296.595201 L186.487606,296.485311 L186.502092,296.375422 L186.517077,296.265532 L186.533061,296.150647 L186.548545,296.040757 L186.565029,295.930868 L186.582012,295.820978 L186.599494,295.711088 L186.616976,295.601198 L186.635458,295.491309 L186.653939,295.381419 L186.67292,295.271529 L186.692401,295.161639 L186.712381,295.05175 L186.73286,294.94186 L186.753839,294.83197 L186.775318,294.72208 L186.796796,294.612191 L186.819274,294.507296 L186.841751,294.397406 L186.865227,294.287516 L186.888704,294.177626 L186.91268,294.067737 L186.937155,293.957847 L186.96213,293.847957 L186.987605,293.743062 L187.013079,293.633173 L187.039553,293.523283 L187.066525,293.413393 L187.093498,293.308498 L187.120971,293.198609 L187.149442,293.088719 L187.177914,292.978829 L187.206885,292.873934 L187.236355,292.764045 L187.265826,292.654155 L187.296295,292.54926 L187.327264,292.43937 L187.358233,292.334475 L187.390201,292.224586 L187.422169,292.119691 L187.454636,292.009801 L187.487603,291.904906 L187.521069,291.795017 L187.555035,291.690122 L187.589501,291.580232 L187.624466,291.475337 L187.659431,291.365448 L187.695395,291.260553 L187.731359,291.155658 L187.767822,291.050763 L187.805284,290.940874 L187.842747,290.835979 L187.880709,290.731084 L187.91917,290.626189 L187.957632,290.516299 L187.997092,290.411405 L188.037052,290.30651 L188.077012,290.201615 L188.117971,290.09672 L188.15893,289.991826 L188.200388,289.886931 L188.242346,289.782036 L188.284803,289.677141 L188.32776,289.572247 L188.371217,289.467352 L188.415173,289.362457 L188.459128,289.257562 L188.504083,289.152667 L188.549038,289.047773 L188.594493,288.942878 L188.640946,288.842978 L188.687399,288.738083 L188.734352,288.633189 L188.781805,288.533289 L188.829257,288.428394 L188.877709,288.323499 L188.926659,288.223599 L188.97561,288.118705 L189.025061,288.01381 L189.07551,287.91391 L189.125959,287.81401 L189.176908,287.709116 L189.228357,287.609216 L189.280305,287.504321 L189.332752,287.404421 L189.385199,287.304521 L189.438646,287.204622 L189.492092,287.099727 L189.546538,286.999827 L189.600983,286.899927 L189.655928,286.800028 L189.711372,286.700128 L189.767316,286.600228 L189.823759,286.495333 L189.880702,286.400428 L189.938145,286.300529 L233.920023,210.12195 L301.642584,327.419279 L301.642584,327.419279 Z M539.583385,327.419279 L324.659494,327.419279 L245.428477,190.186949 L355.181874,0.0876541046 L537.360615,0.0876541046 L539.583385,327.419279 L539.583385,327.419279 Z M195.256809,289.362457 L195.208857,289.447372 L195.164901,289.522297 L195.120945,289.602216 L195.077489,289.677141 L195.034532,289.757061 L194.991575,289.836981 L194.949118,289.911906 L194.90666,289.991826 L194.865701,290.06675 L194.824243,290.14667 L194.782785,290.22659 L194.742325,290.30651 L194.701866,290.38643 L194.661906,290.46635 L194.622445,290.541274 L194.583485,290.621194 L194.544524,290.701114 L194.505563,290.781034 L194.467601,290.860954 L194.429639,290.940874 L194.392176,291.020793 L194.355214,291.100713 L194.318251,291.180633 L194.281787,291.260553 L194.245823,291.345468 L194.209859,291.425387 L194.174395,291.505307 L194.13943,291.585227 L194.104465,291.665147 L194.070499,291.745067 L194.036533,291.824987 L194.002567,291.909901 L193.9696,291.989821 L193.936633,292.069741 L193.903667,292.154656 L193.871699,292.234576 L193.839731,292.314496 L193.808262,292.39941 L193.776794,292.47933 L193.745825,292.564245 L193.715355,292.644165 L193.685386,292.724085 L193.655416,292.808999 L193.625945,292.893914 L193.596974,292.973834 L193.568503,293.053754 L193.539532,293.138669 L193.51156,293.223584 L193.484087,293.303503 L193.456615,293.388418 L193.429642,293.468338 L193.403169,293.553253 L193.376695,293.638168 L193.350721,293.718087 L193.324747,293.803002 L193.299772,293.887917 L193.274797,293.967837 L193.250322,294.052752 L193.225847,294.137667 L193.201871,294.222581 L193.178394,294.307496 L193.155417,294.387416 L193.13244,294.472331 L193.109963,294.557246 L193.087985,294.64216 L193.066007,294.727075 L193.044528,294.806995 L193.023549,294.89191 L193.00257,294.976825 L192.982091,295.06174 L192.962111,295.146654 L192.942631,295.231569 L192.92315,295.316484 L192.904169,295.401399 L192.885688,295.486314 L192.867206,295.571228 L192.849224,295.656143 L192.831742,295.741058 L192.814259,295.825973 L192.797276,295.910888 L192.780793,295.995802 L192.764809,296.080717 L192.748825,296.165632 L192.733341,296.250547 L192.717856,296.335462 L192.703371,296.420377 L192.688885,296.505291 L192.6744,296.590206 L192.660913,296.675121 L192.647427,296.765031 L192.63444,296.849946 L192.621453,296.93486 L192.609465,297.019775 L192.596977,297.10469 L192.585489,297.189605 L192.574,297.27452 L192.563011,297.359435 L192.552522,297.449344 L192.542033,297.534259 L192.532043,297.619174 L192.522552,297.704089 L192.513561,297.793999 L192.50457,297.878913 L192.496079,297.963828 L192.487587,298.048743 L192.480095,298.138653 L192.472602,298.223568 L192.46511,298.308482 L192.458616,298.393397 L192.452123,298.478312 L192.446129,298.568222 L192.440135,298.653137 L192.43464,298.738052 L192.429645,298.822966 L192.42515,298.912876 L192.420654,298.997791 L192.416658,299.082706 L192.413162,299.172616 L192.409665,299.25753 L192.406668,299.342445 L192.404171,299.42736 L192.401673,299.51727 L192.399675,299.602185 L192.398177,299.687099 L192.397178,299.772014 L192.396179,299.861924 L192.395679,299.946839 L192.395679,300.121663 L192.396179,300.206578 L192.397178,300.291493 L192.398177,300.376408 L192.399675,300.466318 L192.401673,300.551233 L192.404171,300.636147 L192.406668,300.726057 L192.409665,300.810972 L192.413162,300.895887 L192.416658,300.980802 L192.420654,301.070711 L192.42515,301.155626 L192.429645,301.240541 L192.43464,301.330451 L192.440135,301.415366 L192.446129,301.50028 L192.452123,301.585195 L192.458616,301.675105 L192.46511,301.76002 L192.472602,301.844935 L192.480095,301.92985 L192.487587,302.019759 L192.496079,302.104674 L192.50457,302.189589 L192.513561,302.274504 L192.522552,302.359419 L192.532043,302.449328 L192.542033,302.534243 L192.552522,302.619158 L192.563011,302.704073 L192.574,302.788988 L192.585489,302.873902 L192.596977,302.963812 L192.609465,303.048727 L192.621453,303.133642 L192.63444,303.218557 L192.647427,303.303472 L192.660913,303.388386 L192.6744,303.473301 L192.688885,303.563211 L192.703371,303.648126 L192.717856,303.733041 L192.733341,303.817955 L192.748825,303.90287 L192.764809,303.987785 L192.780793,304.0727 L192.797276,304.157615 L192.814259,304.242529 L192.831742,304.327444 L192.849224,304.412359 L192.867206,304.497274 L192.885688,304.582189 L192.904169,304.667104 L192.92315,304.752018 L192.942631,304.836933 L192.962111,304.921848 L192.982091,305.006763 L193.00257,305.091678 L193.023549,305.171597 L193.044528,305.256512 L193.066007,305.341427 L193.087985,305.426342 L193.109963,305.511257 L193.13244,305.596172 L193.155417,305.681086 L193.178394,305.761006 L193.201871,305.845921 L193.225847,305.930836 L193.250322,306.015751 L193.274797,306.09567 L193.299772,306.180585 L193.325247,306.2655 L193.350721,306.34542 L193.376695,306.430335 L193.403169,306.51525 L193.429642,306.595169 L193.456615,306.680084 L193.484087,306.764999 L193.51156,306.844919 L193.539532,306.929834 L193.568003,307.009753 L193.596974,307.094668 L193.625945,307.174588 L193.655416,307.259503 L193.685386,307.339423 L193.715855,307.424338 L193.745825,307.504257 L193.776794,307.584177 L193.808262,307.669092 L193.839731,307.749012 L193.871699,307.833927 L193.904166,307.913846 L193.936633,307.993766 L193.969101,308.078681 L194.002567,308.158601 L194.036533,308.238521 L194.070499,308.318441 L194.104965,308.403355 L194.13943,308.483275 L194.174395,308.563195 L194.209859,308.643115 L194.245823,308.723035 L194.281787,308.802955 L194.318251,308.882874 L194.354714,308.962794 L194.392176,309.047709 L194.429639,309.127629 L194.467601,309.202554 L194.505563,309.287468 L194.544024,309.362393 L194.582985,309.442313 L194.622445,309.522233 L194.661906,309.602153 L194.701866,309.682073 L194.742325,309.761992 L194.782785,309.841912 L194.824243,309.916837 L194.865202,309.996757 L194.90716,310.076677 L194.949118,310.156597 L194.991575,310.231521 L195.034532,310.311441 L195.077489,310.386366 L195.120945,310.466286 L195.164901,310.546206 L195.208857,310.621131 L195.253313,310.70105 L195.298267,310.775975 L195.343222,310.855895 L195.388677,310.93082 L195.434131,311.005745 L195.480085,311.08067 L195.526538,311.160589 L195.572992,311.235514 L195.619445,311.310439 L195.666398,311.385364 L195.713851,311.460289 L195.761303,311.535214 L195.809255,311.610138 L195.857706,311.685063 L195.906158,311.754993 L195.954609,311.829918 L196.004059,311.904843 L196.05301,311.979768 L196.102461,312.049697 L196.152411,312.124622 L196.20286,312.194552 L196.25281,312.269477 L196.303259,312.339407 L196.354208,312.409337 L196.405657,312.484261 L196.457105,312.554191 L196.509053,312.624121 L196.560501,312.694051 L196.612949,312.763981 L196.665895,312.833911 L196.718343,312.903841 L196.77129,312.97377 L196.824736,313.0437 L196.878183,313.11363 L196.932628,313.18356 L196.986074,313.248495 L197.04052,313.318425 L197.095465,313.388354 L197.14991,313.453289 L197.205854,313.523219 L197.260799,313.588154 L197.316243,313.658084 L197.372686,313.723019 L197.42863,313.792949 L197.484574,313.857883 L197.541517,313.922818 L197.59846,313.987753 L197.655403,314.052688 L197.713345,314.117623 L197.770787,314.182558 L197.828729,314.247493 L197.886671,314.312427 L197.945112,314.377362 L198.004053,314.442297 L198.062994,314.507232 L198.121935,314.567172 L198.181375,314.632107 L198.241315,314.697042 L198.301255,314.756982 L198.361195,314.821916 L198.421634,314.881856 L198.482074,314.941796 L198.542513,315.006731 L198.603951,315.066671 L198.66539,315.126611 L198.726828,315.186551 L198.788266,315.24649 L198.851203,315.311425 L198.913141,315.36637 L198.975079,315.42631 L199.038515,315.48625 L199.100953,315.54619 L199.16389,315.60613 L199.227326,315.66607 L199.291262,315.721014 L199.355198,315.780954 L199.419133,315.835899 L199.483569,315.895839 L199.548004,315.950784 L199.61244,316.010724 L199.678373,316.065669 L199.742809,316.120614 L199.808243,316.180553 L199.874676,316.235498 L199.939611,316.290443 L200.005545,316.345388 L200.072478,316.400333 L200.138412,316.455278 L200.205844,316.510223 L200.272777,316.565168 L200.33971,316.620112 L200.406643,316.670062 L200.474575,316.725007 L200.542507,316.779952 L200.609939,316.829902 L200.67837,316.879852 L200.746802,316.934797 L200.815732,316.984747 L200.884663,317.039692 L200.953594,317.089641 L201.022525,317.139591 L201.091955,317.189541 L201.161386,317.244486 L201.231815,317.294436 L201.301745,317.344386 L201.372174,317.394336 L201.442604,317.439291 L201.512533,317.489241 L201.583962,317.53919 L201.65539,317.58914 L201.726319,317.634095 L201.797248,317.684045 L201.869176,317.733995 L201.941103,317.77895 L202.013531,317.823905 L202.085459,317.873855 L202.157386,317.91881 L202.229814,317.963764 L202.30324,318.013714 L202.376167,318.058669 L202.449593,318.103624 L202.52252,318.148579 L202.595947,318.193534 L202.669872,318.233494 L202.743798,318.278449 L202.817724,318.323404 L202.89165,318.368359 L202.966075,318.408319 L203.040501,318.453273 L203.115925,318.493233 L203.19085,318.538188 L203.265275,318.578148 L203.340699,318.623103 L203.417123,318.663063 L203.492547,318.703023 L203.567971,318.742983 L203.643396,318.782943 L203.719819,318.827898 L203.797241,318.867858 L203.873165,318.902822 L203.949089,318.942782 L204.026511,318.982742 L204.103434,319.022702 L204.180857,319.057667 L204.258279,319.097627 L204.335701,319.137587 L204.413124,319.172552 L204.490546,319.212512 L204.568967,319.247477 L204.646889,319.282442 L204.72531,319.317407 L204.804231,319.357366 L204.882153,319.392331 L204.960574,319.427296 L205.040494,319.462261 L205.118416,319.497226 L205.197836,319.532191 L205.278256,319.562161 L205.357176,319.597126 L205.436597,319.632091 L205.516517,319.662061 L205.595937,319.697026 L205.676356,319.726996 L205.756776,319.761961 L205.837694,319.79193 L205.917614,319.826895 L205.998034,319.856865 L206.079452,319.886835 L206.16087,319.916805 L206.241789,319.946775 L206.322208,319.976745 L206.403627,320.006715 L206.485545,320.036685 L206.567962,320.066655 L206.648881,320.09163 L206.730299,320.1216 L206.812217,320.146575 L206.895633,320.176545 L206.977551,320.20152 L207.059469,320.23149 L207.142885,320.256464 L207.225302,320.281439 L207.30772,320.311409 L207.390637,320.336384 L207.474053,320.361359 L207.557469,320.386334 L207.640386,320.411309 L207.723802,320.431289 L207.807718,320.456264 L207.891134,320.481239 L207.97505,320.506214 L208.058467,320.526194 L208.143381,320.551169 L208.227297,320.571149 L208.311213,320.596124 L208.396128,320.616104 L208.480044,320.636084 L208.565458,320.661059 L208.649873,320.681039 L208.733789,320.701019 L208.819703,320.720998 L208.904618,320.740978 L208.989533,320.755963 L209.074947,320.775943 L209.160361,320.795923 L209.246275,320.815903 L209.331689,320.830888 L209.417603,320.850868 L209.503017,320.865853 L209.588931,320.885833 L209.675345,320.900818 L209.761758,320.915803 L209.847172,320.930788 L209.933086,320.945773 L210.019999,320.960758 L210.106912,320.975743 L210.193824,320.990728 L210.280238,321.005713 L210.366651,321.020698 L210.453564,321.035683 L210.540477,321.045673 L210.627889,321.060658 L210.715801,321.070648 L210.802714,321.085633 L210.889127,321.095623 L210.976539,321.105613 L211.064951,321.115603 L211.152862,321.125593 L211.239276,321.140578 L211.327187,321.150568 L211.416098,321.155563 L211.50451,321.165552 L211.591922,321.175542 L211.679834,321.185532 L211.768245,321.190527 L211.856157,321.200517 L211.944069,321.205512 L212.032979,321.215502 L212.12189,321.220497 L212.210801,321.225492 L212.299212,321.235482 L212.387624,321.240477 L212.477034,321.245472 L212.566444,321.250467 L212.654856,321.255462 L212.742767,321.260457 L212.832677,321.260457 L212.921588,321.265452 L213.010998,321.270447 L213.100908,321.270447 L213.190318,321.275442 L213.368639,321.275442 L213.459049,321.280437 L291.011749,321.280437 L233.920023,222.394638 L195.256809,289.362457 L195.256809,289.362457 Z M358.725319,6.22649569 L252.515867,190.186949 L328.203439,321.280437 L533.404583,321.280437 L531.266728,6.22649569 L358.725319,6.22649569 L358.725319,6.22649569 Z" id="Shape" fill="url(#linearGradient-4)"></path>
                    </g>
                </g>
            </g>
        </g>
    </g>
</svg>