<?xml version="1.0" encoding="UTF-8"?>
<svg width="512px" height="512px" viewBox="0 0 512 512" version="1.1" xmlns="http://www.w3.org/2000/svg" xmlns:xlink="http://www.w3.org/1999/xlink">
    <!-- Generator: Sketch 54.1 (76490) - https://sketchapp.com -->
    <title>affinity-photo</title>
    <desc>Created with Sketch.</desc>
    <defs>
        <path d="M511.643183,15.6464051 C511.643183,7.17791061 504.767013,0.301762397 496.298491,0.301762397 L15.4981657,0.301762397 C7.02964439,0.301762397 0.153474434,7.17791061 0.153474434,15.6464051 L0.153474434,496.44521 C0.153474434,504.913705 7.02964439,511.789853 15.4981657,511.789853 L496.298491,511.789853 C504.767013,511.789853 511.643183,504.913705 511.643183,496.44521 L511.643183,15.6464051 Z" id="path-1"></path>
        <radialGradient cx="76.4332357%" cy="-18.7940812%" fx="76.4332357%" fy="-18.7940812%" r="118.794257%" gradientTransform="translate(0.764332,-0.187941),scale(0.999988,1.000000),translate(-0.764332,0.187941)" id="radialGradient-3">
            <stop stop-color="#F9A6FF" offset="0%"></stop>
            <stop stop-color="#EA73FF" offset="100%"></stop>
        </radialGradient>
        <linearGradient x1="68.4386653%" y1="3.48358757%" x2="68.4386653%" y2="96.1568402%" id="linearGradient-4">
            <stop stop-color="#F7B3FF" offset="0%"></stop>
            <stop stop-color="#EE8AFF" offset="100%"></stop>
        </linearGradient>
    </defs>
    <g id="affinity-photo" stroke="none" stroke-width="1" fill="none" fill-rule="evenodd">
        <g id="Group-2">
            <path d="M511.643183,15.6464051 C511.643183,7.17791061 504.767013,0.301762397 496.298491,0.301762397 L15.4981657,0.301762397 C7.02964439,0.301762397 0.153474434,7.17791061 0.153474434,15.6464051 L0.153474434,496.44521 C0.153474434,504.913705 7.02964439,511.789853 15.4981657,511.789853 L496.298491,511.789853 C504.767013,511.789853 511.643183,504.913705 511.643183,496.44521 L511.643183,15.6464051 Z" id="Path"></path>
            <mask id="mask-2" fill="white">
                <use xlink:href="#path-1"></use>
            </mask>
            <g id="Path"></g>
            <path d="M511.643183,15.6464051 C511.643183,7.17791061 504.767013,0.301762397 496.298491,0.301762397 L15.4981657,0.301762397 C7.02964439,0.301762397 0.153474434,7.17791061 0.153474434,15.6464051 L0.153474434,496.44521 C0.153474434,504.913705 7.02964439,511.789853 15.4981657,511.789853 L496.298491,511.789853 C504.767013,511.789853 511.643183,504.913705 511.643183,496.44521 L511.643183,15.6464051 Z" id="Path" fill="#7E4DD2" mask="url(#mask-2)"></path>
            <path d="M511.643183,15.6464051 C511.643183,7.17791061 504.767013,0.301762397 496.298491,0.301762397 L209.864255,0.301762397 L0.153474434,363.530364 L0.153474434,496.44521 C0.153474434,504.913705 7.02964439,511.789853 15.4981657,511.789853 L496.298491,511.789853 C504.767013,511.789853 511.643183,504.913705 511.643183,496.44521 L511.643183,15.6464051 Z" id="Path" fill="#7140C2" mask="url(#mask-2)"></path>
            <path d="M518.048026,518.367141 L330.004091,518.408485 L221.358007,330.232844 L518.324443,330.232844 C518.252386,392.910807 518.118902,455.690359 518.048026,518.367141 Z M322.259688,518.402579 L25.6925218,518.402579 L174.059975,261.713521 L322.259688,518.402579 Z M18.1123152,518.402579 L-6.3824899,518.402579 L-6.46517876,383.907199 L107.562769,186.346401 L209.860711,186.346401 C145.959936,297.022737 82.0130906,407.727424 18.1123152,518.40376 L18.1123152,518.402579 Z M278.062489,186.375932 C287.897739,186.498784 297.2782,191.892443 302.326946,200.385745 C310.163488,213.826187 317.886629,227.330417 325.66647,240.802754 C330.391548,249.082246 330.745929,259.721907 326.115352,268.390035 C326.004313,268.599119 325.890911,268.805841 325.772784,269.013744 C318.05555,282.521518 310.219008,295.958416 302.439167,309.430753 C297.600687,317.738595 288.435217,323.219669 278.772432,323.540973 C278.537359,323.549242 278.067214,323.540973 278.067214,323.540973 L234.318897,323.540973 L233.94089,323.540973 C224.294643,323.499629 214.943714,318.44263 209.834723,310.234014 C209.705965,310.033198 209.584294,309.828839 209.461442,309.62448 C201.629625,296.182857 193.906485,282.679808 186.126643,269.207471 C181.354315,260.855922 181.123967,250.141841 185.671855,241.617827 C185.784075,241.409924 185.902202,241.202022 186.014423,240.9953 C193.732838,227.487526 201.574105,214.050627 209.34804,200.578291 C214.181795,192.289349 223.357897,186.712593 233.014775,186.391289 C233.255754,186.38302 233.490827,186.379476 233.725899,186.375932 C248.508306,186.313325 263.284807,186.313325 278.062489,186.375932 L278.062489,186.375932 Z M518.257111,-6.31332607 L518.257111,323.540973 L302.035173,323.540973 L492.479447,-6.31332607 L518.257111,-6.31332607 Z M337.731957,248.301429 L204.780071,18.0207494 L218.831272,-6.31332607 L484.735044,-6.31332607 L337.731957,248.301429 Z M290.419749,179.700599 L111.449146,179.672249 L200.90905,24.7232515 C230.729019,76.3729173 260.5986,128.052115 290.419749,179.700599 Z" id="Shape" fill="#58328A" fill-rule="nonzero" mask="url(#mask-2)"></path>
            <path d="M14.29105,511.789341 L0.225082993,511.789341 L0.148359537,385.677861 L111.397371,192.989556 L198.350621,192.989556 L14.29105,511.789341 L14.29105,511.789341 Z M511.643183,336.860926 L511.643183,511.789853 L333.818671,511.789341 L232.825028,336.860926 L511.643183,336.860926 Z M310.801634,511.789341 L37.1546399,511.789341 L174.05486,274.93762 L310.801634,511.789341 L310.801634,511.789341 Z M511.643183,316.91289 L313.497184,316.91289 L496.293376,0.301250909 L511.638068,0.301250909 L511.643183,316.91289 Z M277.871926,192.629468 C285.447089,192.66118 292.694898,197.113173 296.612909,203.710858 C296.653828,203.777863 296.730552,203.912384 296.730552,203.912384 L319.722014,243.738893 C319.722014,243.738893 319.855002,243.96139 319.91638,244.068803 C323.67583,250.642959 323.819047,258.92702 320.064712,265.620865 C312.356562,279.105737 304.53077,292.526161 296.766356,305.97881 C292.950643,312.521254 285.728408,316.789622 278.056063,316.88527 C263.412112,316.946649 234.052603,316.91289 234.011684,316.91289 C226.436521,316.881178 219.071069,312.839911 215.153058,306.242226 C215.066105,306.099009 214.897313,305.807461 214.897313,305.807461 C214.897313,305.807461 191.900736,265.97686 191.849587,265.884281 C188.090138,259.310125 188.095253,250.816353 191.849587,244.122509 L192.018379,243.82738 C192.018379,243.82738 207.409104,217.119007 215.117254,203.764564 C218.932967,197.22212 226.165432,192.721025 233.837777,192.624865 C233.96565,192.624353 234.221395,192.618727 234.221395,192.618727 L277.611067,192.629468 L277.871926,192.629468 L277.871926,192.629468 Z M222.646383,0.301250909 L473.27634,0.301250909 L337.731567,235.071216 L212.416588,18.0197099 L222.646383,0.301250909 L222.646383,0.301250909 Z M278.91025,173.056353 L122.905889,173.056353 L200.90807,37.9529122 L278.91025,173.056353 Z" id="Shape" fill="url(#radialGradient-3)" mask="url(#mask-2)"></path>
            <path d="M2.04598635,533.001264 L-11.7642358,532.561384 L-11.6005591,406.032018 L111.397371,192.989556 L198.350621,192.989556 L2.04598635,533.001264 L2.04598635,533.001264 Z M322.310152,531.722544 L26.5719179,530.101127 L174.05486,274.93762 L322.310152,531.722544 Z M522.527683,530.960427 L344.191682,529.753315 L232.825028,336.860926 L523.20285,336.860926 L522.527683,530.960427 Z M114.941995,199.127413 L-5.46779746,407.680544 L-5.62124437,526.617893 L-1.43214366,526.75088 L187.721865,199.127413 L114.941995,199.127413 Z M37.1750995,524.024648 L311.645592,525.528423 L174.05486,287.20822 L37.1750995,524.024648 Z M243.453784,342.998783 L347.75165,523.641032 L516.410267,524.78165 L517.039399,342.998783 L243.453784,342.998783 L243.453784,342.998783 Z M277.611067,192.629468 L277.871926,192.629468 L277.963994,192.62998 L278.050948,192.631003 L278.137901,192.632537 L278.229969,192.634072 L278.316922,192.636629 L278.403876,192.639187 L278.490829,192.642255 L278.582897,192.645324 L278.66985,192.649416 L278.756804,192.653508 L278.848872,192.658112 L278.935825,192.662715 L279.022778,192.668341 L279.109731,192.673968 L279.2018,192.680106 L279.288753,192.686755 L279.375706,192.693916 L279.462659,192.701077 L279.554727,192.708749 L279.641681,192.716933 L279.728634,192.725117 L279.815587,192.734323 L279.90254,192.74353 L279.994609,192.753248 L280.081562,192.762967 L280.168515,192.773708 L280.255468,192.784449 L280.342422,192.795702 L280.429375,192.806955 L280.516328,192.81923 L280.603281,192.831506 L280.690235,192.844293 L280.864141,192.870891 L281.038048,192.899022 L281.211954,192.928177 L281.385861,192.959378 L281.559767,192.992113 L281.733674,193.025872 L281.90758,193.061676 L282.076372,193.098503 L282.250278,193.136864 L282.424185,193.17676 L282.592976,193.218191 L282.766883,193.261156 L282.935674,193.305144 L283.104466,193.351178 L283.273258,193.398235 L283.447164,193.446315 L283.615956,193.496441 L283.784747,193.547589 L283.953539,193.600273 L284.117216,193.65449 L284.286007,193.710243 L284.454799,193.767018 L284.618476,193.825327 L284.787267,193.88466 L284.950944,193.945527 L285.114621,194.007929 L285.283412,194.071865 L285.447089,194.136824 L285.610766,194.203317 L285.774442,194.270834 L285.933004,194.339884 L286.096681,194.409958 L286.260358,194.481567 L286.418919,194.554709 L286.582596,194.628875 L286.741158,194.704064 L286.89972,194.780787 L287.058281,194.859045 L287.216843,194.938325 L287.375405,195.018629 L287.533967,195.100467 L287.687414,195.18384 L287.845976,195.268235 L287.999423,195.353654 L288.152869,195.440095 L288.306316,195.528071 L288.459763,195.617582 L288.61321,195.708115 L288.766657,195.799671 L288.914989,195.892251 L289.068436,195.986365 L289.216768,196.081501 L289.3651,196.177661 L289.513432,196.275355 L289.661764,196.374073 L289.810096,196.473813 L289.953313,196.575087 L290.101645,196.676873 L290.244862,196.780194 L290.388079,196.885049 L290.531297,196.990416 L290.674514,197.096805 L290.817731,197.204729 L290.955833,197.313676 L291.09905,197.423646 L291.237152,197.534639 L291.375255,197.646655 L291.513357,197.760205 L291.651459,197.874267 L291.784446,197.989863 L291.922549,198.105971 L292.055536,198.223613 L292.188523,198.342279 L292.321511,198.461455 L292.454498,198.582167 L292.58237,198.703901 L292.715358,198.826658 L292.84323,198.949927 L292.971103,199.07473 L293.098975,199.200556 L293.221732,199.326893 L293.349605,199.454765 L293.472362,199.58366 L293.59512,199.713067 L293.717877,199.843496 L293.83552,199.974949 L293.958278,200.107424 L294.07592,200.240923 L294.193563,200.375444 L294.311206,200.510477 L294.428848,200.647044 L294.546491,200.784123 L294.659019,200.922225 L294.771546,201.061349 L294.884074,201.200986 L294.991487,201.341645 L295.104015,201.483327 L295.211427,201.626032 L295.31884,201.769249 L295.426253,201.914 L295.533666,202.058751 L295.635964,202.205037 L295.738262,202.351834 L295.84056,202.499654 L295.942858,202.647985 L296.040041,202.79734 L296.137224,202.947717 L296.234407,203.098606 L296.33159,203.250518 L296.428773,203.403453 L296.520841,203.5569 L296.612909,203.710858 L296.730552,203.912384 L319.722014,243.738893 L319.91638,244.068803 L320.003334,244.223272 L320.090287,244.378253 L320.172125,244.533745 L320.253964,244.690261 L320.340917,244.846776 L320.41764,245.004314 L320.499479,245.162364 L320.576202,245.320925 L320.652926,245.479998 L320.729649,245.639582 L320.801258,245.799678 L320.877981,245.960285 L320.94959,246.121404 L321.016083,246.283034 L321.087692,246.445176 L321.154185,246.607829 L321.220679,246.770994 L321.287173,246.93467 L321.348552,247.098858 L321.40993,247.263046 L321.471309,247.428256 L321.532688,247.593467 L321.588952,247.759189 L321.645216,247.925423 L321.701479,248.092168 L321.757743,248.258913 L321.808892,248.42617 L321.860041,248.593938 L321.91119,248.762217 L321.957224,248.930497 L322.008373,249.099288 L322.054407,249.26859 L322.095326,249.437893 L322.141361,249.607707 L322.18228,249.778033 L322.223199,249.948358 L322.264118,250.118684 L322.299922,250.290032 L322.335727,250.460869 L322.371531,250.632218 L322.407335,250.804078 L322.438025,250.975938 L322.468714,251.148309 L322.499403,251.320681 L322.524978,251.493052 L322.555667,251.665935 L322.581242,251.838818 L322.601701,252.012213 L322.627276,252.185607 L322.647735,252.359001 L322.668195,252.532907 L322.688655,252.706302 L322.703999,252.880208 L322.719344,253.054625 L322.734689,253.228531 L322.750033,253.402949 L322.760263,253.577366 L322.770493,253.751784 L322.780723,253.926201 L322.790952,254.10113 L322.796067,254.275547 L322.801182,254.450476 L322.806297,254.625405 L322.806297,255.324609 L322.801182,255.499538 L322.801182,255.673956 L322.790952,255.848885 L322.785838,256.023814 L322.775608,256.198231 L322.765378,256.37316 L322.755148,256.547577 L322.744918,256.721995 L322.729574,256.896412 L322.714229,257.07083 L322.698884,257.245247 L322.678425,257.419665 L322.657965,257.593571 L322.637506,257.767477 L322.617046,257.940871 L322.591472,258.114777 L322.565897,258.288171 L322.540323,258.461566 L322.509633,258.634449 L322.484059,258.807332 L322.453369,258.980215 L322.417565,259.152586 L322.386876,259.324958 L322.351071,259.497329 L322.315267,259.669189 L322.274348,259.840538 L322.238544,260.011886 L322.197624,260.183235 L322.156705,260.354072 L322.110671,260.524397 L322.064637,260.694723 L322.018603,260.864537 L321.972569,261.034351 L321.92142,261.203654 L321.875386,261.372445 L321.819122,261.541236 L321.767973,261.709515 L321.711709,261.877283 L321.655445,262.045051 L321.599181,262.212308 L321.542918,262.379053 L321.481539,262.545798 L321.42016,262.71152 L321.353666,262.877243 L321.292288,263.042453 L321.225794,263.207152 L321.1593,263.37134 L321.087692,263.535528 L321.021198,263.698692 L320.944475,263.861857 L320.872866,264.02451 L320.801258,264.186141 L320.724534,264.347771 L320.647811,264.50889 L320.565972,264.669497 L320.489249,264.829081 L320.40741,264.988665 L320.320457,265.147227 L320.238619,265.305788 L320.151666,265.463326 L320.064712,265.620865 L319.343512,266.884752 L318.617196,268.148127 L317.895996,269.411503 L317.169681,270.674879 L316.443365,271.937231 L315.71705,273.199584 L314.990734,274.461936 L314.264419,275.723777 L313.538104,276.985619 L312.811788,278.246948 L311.354043,280.769096 L309.896297,283.290732 L308.438551,285.811857 L306.975691,288.33247 L305.517945,290.853084 L302.597339,295.893799 L301.139593,298.414412 L299.681847,300.935537 L298.224102,303.456662 L296.766356,305.97881 L296.674288,306.131744 L296.58222,306.283656 L296.490152,306.435057 L296.398084,306.585434 L296.306015,306.734789 L296.208832,306.883632 L296.111649,307.031452 L296.009351,307.178249 L295.912168,307.324535 L295.80987,307.469797 L295.707572,307.614037 L295.605275,307.757254 L295.502977,307.899959 L295.395564,308.041641 L295.288151,308.1823 L295.180738,308.321936 L295.073325,308.46055 L294.960797,308.598652 L294.853385,308.73573 L294.740857,308.871786 L294.628329,309.006819 L294.510687,309.140829 L294.398159,309.274327 L294.280516,309.406291 L294.162874,309.537744 L294.045231,309.668173 L293.927588,309.79758 L293.804831,309.925963 L293.682073,310.053324 L293.559316,310.179661 L293.436558,310.304976 L293.313801,310.429779 L293.185928,310.553047 L293.058056,310.675293 L292.935298,310.796516 L292.802311,310.917227 L292.674438,311.036404 L292.546566,311.154557 L292.413579,311.2722 L292.280591,311.388308 L292.147604,311.503392 L292.014617,311.617454 L291.881629,311.730493 L291.743527,311.842509 L291.61054,311.953502 L291.472438,312.06296 L291.334335,312.171907 L291.191118,312.27932 L291.053016,312.386221 L290.909799,312.491587 L290.771697,312.595931 L290.62848,312.699252 L290.485263,312.801549 L290.342045,312.902312 L290.198828,313.002052 L290.050496,313.10077 L289.902164,313.198464 L289.758947,313.295135 L289.610615,313.390272 L289.462283,313.484386 L289.308836,313.577477 L289.160504,313.669544 L289.012172,313.760078 L288.858725,313.849588 L288.705278,313.938076 L288.551831,314.025029 L288.398385,314.110959 L288.244938,314.195866 L288.091491,314.279238 L287.932929,314.361588 L287.779482,314.442914 L287.62092,314.522707 L287.462358,314.601476 L287.303797,314.67871 L287.145235,314.754922 L286.986673,314.830111 L286.828111,314.903765 L286.664434,314.976397 L286.505873,315.047493 L286.342196,315.117567 L286.178519,315.186107 L286.014842,315.253623 L285.851166,315.319605 L285.687489,315.384564 L285.523812,315.447989 L285.360136,315.51039 L285.196459,315.571257 L285.027667,315.631101 L284.858876,315.689411 L284.695199,315.746698 L284.526407,315.80245 L284.357616,315.856668 L284.188824,315.909862 L284.020033,315.961523 L283.851241,316.011648 L283.682449,316.060751 L283.508543,316.108831 L283.339751,316.154865 L283.165845,316.199876 L282.997053,316.243353 L282.823147,316.285806 L282.64924,316.326725 L282.480449,316.36611 L282.306542,316.40396 L282.132636,316.440787 L281.958729,316.47608 L281.784823,316.509838 L281.610916,316.542062 L281.431895,316.573262 L281.257988,316.602929 L281.084082,316.63106 L280.90506,316.657658 L280.731154,316.682721 L280.552132,316.706761 L280.378226,316.729266 L280.199205,316.750237 L280.020183,316.769674 L279.846277,316.787576 L279.667255,316.803943 L279.488234,316.819288 L279.309212,316.832587 L279.130191,316.844862 L278.95117,316.855092 L278.772148,316.864299 L278.593127,316.871971 L278.414105,316.878109 L278.235084,316.882713 L278.056063,316.88527 L276.639236,316.890896 L275.145686,316.896011 L273.585643,316.900103 L271.959105,316.904195 L270.281419,316.907776 L268.557699,316.910844 L266.793059,316.913402 L265.002845,316.915448 L261.361039,316.919028 L257.693657,316.921074 L254.07231,316.922097 L250.558376,316.922097 L247.213233,316.921586 L244.103376,316.920563 L241.295297,316.919028 L238.850377,316.916982 L235.315983,316.914425 L234.011684,316.91289 L233.832662,316.911356 L233.658756,316.908287 L233.479735,316.904195 L233.300713,316.898057 L233.126807,316.890896 L232.947785,316.882201 L232.773879,316.871971 L232.594857,316.860207 L232.420951,316.84742 L232.241929,316.832587 L232.068023,316.816731 L231.889002,316.79934 L231.715095,316.780926 L231.541189,316.760467 L231.362167,316.738984 L231.188261,316.715967 L231.014354,316.691416 L230.840448,316.665842 L230.661426,316.638733 L230.48752,316.610089 L230.313613,316.579912 L230.139707,316.548711 L229.970915,316.515976 L229.797009,316.481706 L229.623102,316.446413 L229.449196,316.409586 L229.275289,316.371225 L229.106498,316.33184 L228.932591,316.290921 L228.763799,316.248467 L228.589893,316.204991 L228.421101,316.15998 L228.25231,316.113946 L228.083518,316.066378 L227.914727,316.017275 L227.74082,315.967149 L227.572028,315.915489 L227.408352,315.862805 L227.23956,315.808588 L227.070769,315.752835 L226.907092,315.69606 L226.7383,315.637751 L226.569509,315.578418 L226.405832,315.518062 L226.242155,315.456172 L226.078478,315.392748 L225.914802,315.3283 L225.751125,315.262318 L225.587448,315.195313 L225.423772,315.126774 L225.26521,315.057212 L225.101533,314.986626 L224.942971,314.914506 L224.779295,314.840852 L224.620733,314.766686 L224.462171,314.690475 L224.303609,314.613751 L224.145047,314.535494 L223.986486,314.455702 L223.833039,314.374887 L223.674477,314.293048 L223.52103,314.209676 L223.367583,314.12528 L223.214136,314.039862 L223.060689,313.952909 L222.907242,313.864933 L222.753795,313.775934 L222.600348,313.685401 L222.452016,313.593844 L222.303684,313.501265 L222.150238,313.407151 L222.001906,313.312014 L221.858688,313.215854 L221.710356,313.11816 L221.562024,313.019955 L221.418807,312.920214 L221.27559,312.81894 L221.127258,312.717154 L220.989156,312.613833 L220.845939,312.509489 L220.702722,312.404123 L220.564619,312.297222 L220.421402,312.189809 L220.2833,312.080862 L220.145198,311.970892 L220.007096,311.8599 L219.874108,311.747372 L219.736006,311.634333 L219.603019,311.51976 L219.470031,311.404164 L219.337044,311.287544 L219.204057,311.169902 L219.071069,311.051237 L218.943197,310.931549 L218.815325,310.810326 L218.687452,310.688592 L218.55958,310.565323 L218.431707,310.441032 L218.30895,310.316229 L218.186192,310.189891 L218.063435,310.06253 L217.940677,309.934147 L217.81792,309.80474 L217.700277,309.674311 L217.57752,309.542859 L217.459877,309.410383 L217.342234,309.276373 L217.229707,309.141852 L217.112064,309.006308 L216.999536,308.86974 L216.887008,308.73215 L216.774481,308.593537 L216.667068,308.4539 L216.55454,308.313241 L216.447127,308.171559 L216.339714,308.029365 L216.237417,307.885637 L216.130004,307.740886 L216.027706,307.595623 L215.925408,307.448826 L215.82311,307.301518 L215.771961,307.227352 L215.725927,307.152675 L215.674778,307.078509 L215.623629,307.00332 L215.577595,306.928643 L215.526446,306.852943 L215.480412,306.777754 L215.429263,306.701542 L215.383229,306.625842 L215.337195,306.54963 L215.291161,306.472907 L215.245126,306.396184 L215.193978,306.319461 L215.153058,306.242226 L214.897313,305.807461 L191.849587,265.884281 L191.803553,265.807046 L191.762634,265.729812 L191.721715,265.652065 L191.675681,265.574319 L191.634762,265.496573 L191.593842,265.418827 L191.506889,265.262312 L191.425051,265.105285 L191.348327,264.947235 L191.266489,264.788674 L191.189766,264.629601 L191.113042,264.470016 L191.036319,264.309921 L190.96471,264.148802 L190.893101,263.987683 L190.821493,263.825542 L190.749884,263.662888 L190.683391,263.499724 L190.616897,263.336047 L190.550403,263.17186 L190.489025,263.007161 L190.422531,262.84195 L190.361152,262.676228 L190.304888,262.509994 L190.24351,262.343249 L190.187246,262.175992 L190.130982,262.008224 L190.079833,261.839945 L190.023569,261.671665 L189.97242,261.502363 L189.921271,261.33306 L189.875237,261.163246 L189.829203,260.993432 L189.783169,260.822595 L189.737135,260.651758 L189.691101,260.480409 L189.650181,260.308549 L189.609262,260.136689 L189.573458,259.964318 L189.532539,259.791946 L189.496735,259.618552 L189.46093,259.445669 L189.430241,259.271763 L189.394437,259.098369 L189.363747,258.923951 L189.338173,258.749534 L189.307483,258.575116 L189.281909,258.400187 L189.256334,258.225258 L189.23076,258.049818 L189.2103,257.874378 L189.189841,257.698937 L189.169381,257.522985 L189.148922,257.347033 L189.133577,257.171081 L189.113117,256.994618 L189.102887,256.818155 L189.087543,256.641691 L189.077313,256.464716 L189.067083,256.287742 L189.056853,256.111278 L189.051739,255.934303 L189.046624,255.756817 L189.041509,255.579842 L189.036394,255.402867 L189.036394,255.225381 L189.031279,255.048406 L189.036394,254.870919 L189.036394,254.693433 L189.041509,254.516458 L189.046624,254.338972 L189.051739,254.161486 L189.056853,253.984511 L189.067083,253.807536 L189.077313,253.630049 L189.087543,253.453075 L189.102887,253.2761 L189.118232,253.099125 L189.133577,252.92215 L189.148922,252.745686 L189.169381,252.569223 L189.189841,252.39276 L189.2103,252.216296 L189.23076,252.039833 L189.256334,251.863881 L189.281909,251.687929 L189.307483,251.512489 L189.338173,251.337048 L189.368862,251.161608 L189.399552,250.986679 L189.430241,250.81175 L189.466045,250.637333 L189.496735,250.462915 L189.537654,250.288498 L189.573458,250.114592 L189.614377,249.941197 L189.655296,249.767803 L189.696216,249.59492 L189.737135,249.422037 L189.783169,249.249665 L189.829203,249.077805 L189.875237,248.905945 L189.926386,248.734597 L189.977535,248.56376 L190.028684,248.392923 L190.079833,248.223109 L190.136097,248.053295 L190.192361,247.883481 L190.248624,247.71469 L190.304888,247.545899 L190.366267,247.37813 L190.427646,247.210362 L190.489025,247.043106 L190.555518,246.876361 L190.622012,246.709616 L190.688506,246.543893 L190.754999,246.378683 L190.821493,246.213984 L190.893101,246.049796 L190.96471,245.885608 L191.041433,245.722444 L191.113042,245.55979 L191.189766,245.397649 L191.266489,245.23653 L191.348327,245.075411 L191.430166,244.914804 L191.512004,244.75522 L191.593842,244.596147 L191.675681,244.437585 L191.762634,244.279536 L191.849587,244.122509 L192.018379,243.82738 L194.545138,239.445462 L197.296953,234.672255 L200.6779,228.803952 L204.422004,222.309076 L208.258177,215.658197 L211.915328,209.320348 L213.5879,206.415095 L215.117254,203.764564 L215.209322,203.611629 L215.30139,203.459206 L215.393458,203.307805 L215.485527,203.157428 L215.58271,203.007562 L215.679893,202.858207 L215.777076,202.709876 L215.874259,202.562567 L215.971442,202.41577 L216.07374,202.269484 L216.176038,202.124733 L216.278336,201.979982 L216.385749,201.836765 L216.488046,201.69406 L216.595459,201.552378 L216.702872,201.411207 L216.8154,201.271571 L216.922813,201.131935 L217.03534,200.993833 L217.147868,200.856243 L217.260396,200.719675 L217.372924,200.584131 L217.490566,200.449098 L217.603094,200.315088 L217.725852,200.182101 L217.843494,200.050137 L217.961137,199.919196 L218.083894,199.788767 L218.201537,199.659361 L218.324295,199.530977 L218.452167,199.403617 L218.574924,199.277279 L218.697682,199.151964 L218.825554,199.027161 L218.953427,198.903893 L219.081299,198.781135 L219.214287,198.659913 L219.342159,198.539202 L219.475146,198.419513 L219.603019,198.30136 L219.741121,198.183717 L219.874108,198.067098 L220.007096,197.951502 L220.145198,197.83744 L220.278185,197.72389 L220.416287,197.611362 L220.55439,197.500369 L220.692492,197.389888 L220.835709,197.280941 L220.973811,197.173017 L221.117028,197.066116 L221.260245,196.960238 L221.403463,196.855383 L221.54668,196.751551 L221.689897,196.649253 L221.838229,196.547467 L221.986561,196.447215 L222.129778,196.347987 L222.27811,196.250292 L222.426442,196.15311 L222.579889,196.057461 L222.728221,195.962836 L222.881668,195.869745 L223.03,195.777166 L223.183447,195.686121 L223.336894,195.596099 L223.490341,195.507612 L223.643787,195.420147 L223.802349,195.333706 L223.955796,195.248799 L224.114358,195.164915 L224.267805,195.082565 L224.426367,195.001239 L224.584929,194.920935 L224.74349,194.842166 L224.902052,194.76442 L225.065729,194.688208 L225.224291,194.613019 L225.387967,194.539365 L225.546529,194.466733 L225.710206,194.395637 L225.873883,194.325563 L226.037559,194.257023 L226.201236,194.189507 L226.364913,194.123525 L226.533704,194.058566 L226.697381,193.995141 L226.866173,193.933251 L227.029849,193.872896 L227.198641,193.813563 L227.367433,193.755254 L227.536224,193.698478 L227.705016,193.643238 L227.873807,193.589531 L228.042599,193.536848 L228.211391,193.486211 L228.380182,193.436085 L228.554089,193.388005 L228.72288,193.340948 L228.896787,193.295426 L229.070693,193.251438 L229.239485,193.208984 L229.413391,193.167554 L229.587298,193.128169 L229.761204,193.089808 L229.935111,193.05298 L230.109017,193.017688 L230.282924,192.983418 L230.461945,192.951194 L230.635852,192.919993 L230.809758,192.890839 L230.98878,192.862707 L231.075733,192.849408 L231.162686,192.836621 L231.249639,192.823834 L231.341708,192.811558 L231.428661,192.799794 L231.515614,192.78803 L231.607682,192.776777 L231.694635,192.766036 L231.781589,192.755806 L231.873657,192.745576 L231.96061,192.736369 L232.047563,192.727162 L232.139632,192.717956 L232.226585,192.709772 L232.313538,192.701588 L232.405606,192.693916 L232.492559,192.686755 L232.584628,192.680106 L232.671581,192.673456 L232.763649,192.667318 L232.850602,192.661692 L232.94267,192.656066 L233.029624,192.651462 L233.121692,192.646859 L233.208645,192.642767 L233.300713,192.639187 L233.387666,192.635606 L233.479735,192.632537 L233.566688,192.62998 L233.658756,192.627934 L233.745709,192.626399 L233.837777,192.624865 L233.95542,192.623842 L234.078178,192.621796 L234.221395,192.618727 L277.611067,192.629468 L277.611067,192.629468 Z M522.195215,316.91289 L313.497184,316.91289 L506.830064,-17.9486442 L522.742509,-18.9250749 L522.195215,316.91289 Z M234.19582,198.758119 L234.037258,198.761187 L233.914501,198.76221 L233.853122,198.763233 L233.791743,198.764256 L233.72525,198.765791 L233.663871,198.767837 L233.602492,198.769883 L233.541113,198.771929 L233.479735,198.774486 L233.418356,198.777555 L233.351862,198.780624 L233.290483,198.784204 L233.229105,198.787785 L233.167726,198.791877 L233.106347,198.795969 L233.039853,198.800572 L232.978475,198.805687 L232.917096,198.81029 L232.855717,198.815917 L232.794338,198.821543 L232.73296,198.827169 L232.666466,198.833307 L232.605087,198.839957 L232.543708,198.846606 L232.48233,198.853767 L232.420951,198.860928 L232.359572,198.8686 L232.293078,198.876272 L232.2317,198.884456 L232.170321,198.89264 L232.108942,198.901335 L232.047563,198.91003 L231.986185,198.919749 L231.929921,198.927933 L231.796933,198.948392 L231.674176,198.969363 L231.551418,198.991357 L231.428661,199.013863 L231.305903,199.037903 L231.178031,199.062965 L231.055273,199.089051 L230.932516,199.11616 L230.809758,199.144804 L230.687001,199.173958 L230.564243,199.204136 L230.441486,199.235337 L230.318728,199.268072 L230.195971,199.301319 L230.078328,199.3361 L229.95557,199.371393 L229.832813,199.40822 L229.710055,199.445559 L229.587298,199.484432 L229.469655,199.523816 L229.346898,199.564735 L229.229255,199.606166 L229.106498,199.649131 L228.98374,199.692607 L228.866097,199.737618 L228.748455,199.783141 L228.625697,199.829686 L228.508055,199.877766 L228.390412,199.926357 L228.272769,199.976483 L228.155127,200.026609 L228.037484,200.078269 L227.919841,200.130953 L227.802199,200.184659 L227.684556,200.239388 L227.566914,200.29514 L227.449271,200.351404 L227.336743,200.408691 L227.219101,200.467 L227.106573,200.526333 L226.98893,200.586688 L226.876402,200.648067 L226.763875,200.709957 L226.651347,200.77287 L226.533704,200.836806 L226.421177,200.901765 L226.308649,200.967236 L226.201236,201.034241 L226.088708,201.101757 L225.976181,201.169785 L225.868768,201.239347 L225.75624,201.309421 L225.648827,201.380518 L225.541414,201.452638 L225.434001,201.525269 L225.326589,201.598923 L225.219176,201.673089 L225.111763,201.748789 L225.00435,201.82449 L224.902052,201.901213 L224.794639,201.979471 L224.692341,202.057728 L224.590043,202.137009 L224.487745,202.217312 L224.385448,202.298128 L224.28315,202.379966 L224.180852,202.462315 L224.078554,202.545688 L223.981371,202.629572 L223.879073,202.714479 L223.78189,202.799897 L223.684707,202.886339 L223.587524,202.973803 L223.490341,203.061268 L223.398272,203.149244 L223.301089,203.238754 L223.209021,203.328265 L223.111838,203.418798 L223.01977,203.510354 L222.927702,203.601911 L222.840749,203.695002 L222.74868,203.788092 L222.656612,203.881695 L222.569659,203.97632 L222.482706,204.071968 L222.395753,204.167105 L222.308799,204.263776 L222.221846,204.360448 L222.134893,204.458142 L222.053054,204.556859 L221.971216,204.656088 L221.884263,204.755316 L221.807539,204.855568 L221.725701,204.95582 L221.643863,205.056583 L221.567139,205.158369 L221.485301,205.260667 L221.408577,205.363987 L221.331854,205.467308 L221.260245,205.57114 L221.183522,205.675483 L221.111913,205.780339 L221.03519,205.885705 L220.963581,205.991583 L220.891973,206.097973 L220.825479,206.204874 L220.753871,206.311775 L220.687377,206.42021 L220.620883,206.528134 L220.55439,206.63657 L220.487896,206.746028 L220.421402,206.854975 L218.907393,209.483001 L217.229707,212.38723 L213.572555,218.724568 L209.741497,225.374936 L205.997393,231.868789 L202.616446,237.737091 L199.864631,242.510298 L197.342987,246.88301 L197.19977,247.135685 L197.143506,247.23696 L197.082127,247.349487 L197.020748,247.462015 L196.964484,247.576076 L196.903106,247.690138 L196.846842,247.804712 L196.790578,247.919796 L196.734314,248.034881 L196.67805,248.1515 L196.626901,248.26812 L196.570637,248.385251 L196.519488,248.502381 L196.468339,248.620535 L196.422305,248.739712 L196.371156,248.857866 L196.325122,248.977042 L196.273973,249.097242 L196.227939,249.217442 L196.18702,249.338153 L196.140986,249.458864 L196.100067,249.580087 L196.054033,249.702332 L196.013113,249.824578 L195.972194,249.947335 L195.93639,250.070092 L195.895471,250.193361 L195.859667,250.31663 L195.823862,250.441433 L195.788058,250.565724 L195.752254,250.690527 L195.716449,250.81533 L195.68576,250.940134 L195.655071,251.06596 L195.624381,251.192297 L195.593692,251.318123 L195.568117,251.443949 L195.537428,251.570798 L195.511854,251.698159 L195.486279,251.825519 L195.460705,251.952368 L195.440245,252.079729 L195.41467,252.207601 L195.394211,252.335473 L195.373751,252.464368 L195.353292,252.59224 L195.332832,252.720624 L195.317487,252.849519 L195.302143,252.977902 L195.286798,253.107309 L195.271453,253.236204 L195.256109,253.365099 L195.245879,253.495017 L195.230534,253.624423 L195.220304,253.753318 L195.210075,253.882725 L195.20496,254.012642 L195.19473,254.142049 L195.189615,254.271967 L195.1845,254.401373 L195.179385,254.531291 L195.17427,254.660698 L195.17427,254.920534 L195.169155,255.04994 L195.17427,255.179347 L195.17427,255.438671 L195.179385,255.568078 L195.1845,255.696973 L195.189615,255.826379 L195.19473,255.955786 L195.20496,256.085192 L195.210075,256.214087 L195.220304,256.342982 L195.230534,256.471877 L195.240764,256.599749 L195.256109,256.728133 L195.271453,256.856516 L195.281683,256.9849 L195.297028,257.112772 L195.317487,257.239621 L195.332832,257.367493 L195.353292,257.494342 L195.368636,257.621702 L195.389096,257.748551 L195.41467,257.874889 L195.43513,258.000715 L195.460705,258.127053 L195.481164,258.252879 L195.506739,258.377682 L195.532313,258.502485 L195.563003,258.627288 L195.588577,258.752091 L195.619266,258.876383 L195.649956,259.000163 L195.680645,259.12292 L195.711335,259.246189 L195.747139,259.368946 L195.777828,259.491191 L195.813632,259.612926 L195.849437,259.73466 L195.890356,259.855882 L195.92616,259.976082 L195.967079,260.096793 L196.002884,260.216482 L196.043803,260.33617 L196.089837,260.455346 L196.130756,260.5735 L196.171675,260.691142 L196.217709,260.808785 L196.263743,260.926427 L196.309777,261.043046 L196.355812,261.158643 L196.406961,261.274239 L196.452995,261.389835 L196.504144,261.504409 L196.555293,261.61847 L196.606442,261.732021 L196.662705,261.84506 L196.713854,261.957076 L196.770118,262.069603 L196.826382,262.181107 L196.882646,262.291589 L196.93891,262.40207 L197.000289,262.518178 L197.025863,262.565746 L197.056552,262.620476 L197.087242,262.675205 L197.117931,262.729423 L197.148621,262.78364 L197.174195,262.83172 L220.206577,302.727791 L220.436747,303.123171 L220.457207,303.161022 L220.493011,303.215751 L220.5237,303.269457 L220.559505,303.323163 L220.590194,303.37687 L220.625998,303.430064 L220.656688,303.483259 L220.692492,303.536965 L220.728296,303.59016 L220.7641,303.643355 L220.79479,303.696038 L220.830594,303.74821 L220.866398,303.800893 L220.897088,303.848462 L220.973811,303.957409 L221.04542,304.060729 L221.117028,304.163538 L221.193752,304.265836 L221.26536,304.367622 L221.342084,304.468897 L221.418807,304.569148 L221.495531,304.668377 L221.577369,304.767606 L221.654093,304.866323 L221.735931,304.964529 L221.817769,305.0612 L221.899608,305.15736 L221.981446,305.253519 L222.063284,305.348656 L222.145123,305.44277 L222.232076,305.536884 L222.319029,305.629975 L222.405982,305.722554 L222.492936,305.81411 L222.579889,305.905155 L222.666842,305.995689 L222.75891,306.085199 L222.845864,306.174709 L222.937932,306.262685 L223.03,306.35015 L223.122068,306.437103 L223.219251,306.523033 L223.311319,306.608451 L223.408502,306.692847 L223.50057,306.777242 L223.597753,306.860615 L223.694936,306.942965 L223.792119,307.024803 L223.889303,307.105618 L223.9916,307.18541 L224.088784,307.265202 L224.191081,307.343971 L224.288265,307.421717 L224.390562,307.498952 L224.49286,307.575164 L224.600273,307.650864 L224.702571,307.725541 L224.804869,307.799196 L224.912282,307.87285 L225.01458,307.94497 L225.121993,308.016578 L225.229406,308.087163 L225.336818,308.157237 L225.444231,308.226288 L225.551644,308.294828 L225.659057,308.362344 L225.771585,308.428837 L225.878998,308.494308 L225.991525,308.559267 L226.104053,308.623203 L226.216581,308.686627 L226.323994,308.749029 L226.436521,308.810408 L226.554164,308.870763 L226.666692,308.930607 L226.779219,308.989428 L226.891747,309.047227 L227.00939,309.104513 L227.127032,309.160777 L227.23956,309.216018 L227.357203,309.270235 L227.474845,309.323942 L227.592488,309.376113 L227.710131,309.428285 L227.827773,309.478923 L227.945416,309.528537 L228.063059,309.57764 L228.180701,309.625208 L228.303459,309.672265 L228.421101,309.718299 L228.543859,309.763821 L228.661502,309.807809 L228.784259,309.851286 L228.907017,309.893228 L229.024659,309.934658 L229.147417,309.975066 L229.270174,310.014451 L229.392932,310.053324 L229.515689,310.090662 L229.638447,310.126978 L229.761204,310.162782 L229.883962,310.197563 L230.006719,310.23081 L230.134592,310.263545 L230.257349,310.295257 L230.380107,310.325947 L230.507979,310.355613 L230.630737,310.384256 L230.753494,310.411877 L230.881367,310.438474 L231.004124,310.46456 L231.131997,310.489111 L231.254754,310.51264 L231.382627,310.535145 L231.505384,310.557139 L231.633257,310.577599 L231.761129,310.597035 L231.883887,310.615961 L232.011759,310.633351 L232.139632,310.65023 L232.262389,310.665575 L232.390261,310.679897 L232.518134,310.693707 L232.646006,310.705982 L232.768764,310.717747 L232.896636,310.727976 L233.024509,310.737183 L233.152381,310.745879 L233.275139,310.753039 L233.403011,310.759177 L233.530884,310.764804 L233.658756,310.768895 L233.786628,310.771964 L233.909386,310.77401 L234.042373,310.775033 L235.321098,310.776568 L238.855491,310.779125 L241.300412,310.781171 L244.103376,310.782706 L247.213233,310.783729 L250.558376,310.78424 L254.07231,310.78424 L257.693657,310.783217 L261.355924,310.781171 L264.99773,310.777591 L266.787944,310.775545 L268.547469,310.772987 L270.271189,310.769918 L271.948876,310.766338 L273.570298,310.762246 L275.130341,310.758154 L276.618777,310.753039 L277.989569,310.747924 L278.107212,310.745879 L278.235084,310.74281 L278.362956,310.738206 L278.490829,310.733091 L278.618701,310.726442 L278.741459,310.719281 L278.869331,310.710586 L278.997204,310.700868 L279.125076,310.690126 L279.252949,310.678362 L279.375706,310.665575 L279.503579,310.651765 L279.631451,310.63642 L279.759323,310.620564 L279.882081,310.603685 L280.009953,310.585271 L280.137826,310.566346 L280.260583,310.546398 L280.388456,310.524916 L280.511213,310.502922 L280.639086,310.479393 L280.761843,310.455353 L280.889716,310.429779 L281.012473,310.403693 L281.135231,310.376584 L281.263103,310.347941 L281.385861,310.318786 L281.508618,310.288097 L281.631376,310.256896 L281.759248,310.224672 L281.882006,310.190914 L282.004763,310.156644 L282.127521,310.121352 L282.250278,310.085036 L282.373036,310.047186 L282.490678,310.009336 L282.613436,309.969951 L282.736193,309.929544 L282.853836,309.888113 L282.976594,309.846171 L283.094236,309.802694 L283.216994,309.758706 L283.334636,309.713696 L283.457394,309.667662 L283.575037,309.620093 L283.692679,309.572525 L283.810322,309.523933 L283.927964,309.473808 L284.045607,309.42317 L284.16325,309.370999 L284.280892,309.318315 L284.398535,309.26512 L284.511063,309.210903 L284.628705,309.155151 L284.741233,309.098887 L284.858876,309.0416 L284.971403,308.983802 L285.083931,308.924469 L285.201574,308.864625 L285.314102,308.803758 L285.426629,308.74238 L285.534042,308.679978 L285.64657,308.616042 L285.759098,308.552106 L285.86651,308.487147 L285.979038,308.421165 L286.086451,308.35416 L286.198979,308.286644 L286.306392,308.218104 L286.413804,308.149053 L286.521217,308.078468 L286.623515,308.007371 L286.730928,307.935251 L286.838341,307.863132 L286.940639,307.789989 L287.042937,307.715312 L287.15035,307.640123 L287.252648,307.564423 L287.354946,307.487699 L287.457243,307.410465 L287.554427,307.332207 L287.656724,307.253438 L287.759022,307.173646 L287.856205,307.093342 L287.953388,307.012015 L288.050572,306.930177 L288.147755,306.847316 L288.244938,306.763944 L288.342121,306.679548 L288.439304,306.594641 L288.531372,306.509223 L288.62344,306.422781 L288.715508,306.335828 L288.807576,306.247852 L288.899644,306.159365 L288.991713,306.070877 L289.083781,305.980855 L289.170734,305.890322 L289.257687,305.799277 L289.34464,305.707209 L289.431594,305.61463 L289.518547,305.521539 L289.6055,305.427937 L289.687339,305.333312 L289.774292,305.238175 L289.85613,305.142526 L289.937969,305.046367 L290.019807,304.949695 L290.101645,304.85149 L290.178369,304.753796 L290.255092,304.654567 L290.336931,304.555338 L290.413654,304.455598 L290.490377,304.354835 L290.561986,304.254072 L290.638709,304.151774 L290.710318,304.049476 L290.781927,303.946667 L290.85865,303.843347 L290.925144,303.739515 L290.996752,303.63466 L291.068361,303.529293 L291.134854,303.424438 L291.201348,303.318048 L291.267842,303.211147 L291.334335,303.103735 L291.400829,302.995811 L291.462208,302.886864 L292.909724,300.385176 L294.367469,297.862005 L295.825215,295.339857 L297.288076,292.818221 L300.208682,287.776994 L301.666428,285.257404 L303.124173,282.737302 L304.581919,280.218223 L306.039665,277.698633 L307.492295,275.178531 L308.218611,273.919247 L308.944926,272.658941 L309.671241,271.399146 L310.397557,270.138839 L311.123872,268.878532 L311.845073,267.617714 L312.571388,266.357408 L313.292589,265.096589 L314.013789,263.83526 L314.719645,262.606665 L314.775909,262.506925 L314.837288,262.394909 L314.893551,262.282893 L314.95493,262.169855 L315.011194,262.056304 L315.067458,261.942754 L315.123722,261.829203 L315.179986,261.71463 L315.23625,261.599545 L315.287398,261.484461 L315.338547,261.368864 L315.389696,261.253268 L315.440845,261.13716 L315.486879,261.020029 L315.538028,260.902899 L315.584063,260.785768 L315.630097,260.667614 L315.676131,260.549972 L315.71705,260.431307 L315.763084,260.31213 L315.804003,260.193976 L315.844922,260.074288 L315.885841,259.9546 L315.921646,259.8344 L315.962565,259.7142 L315.998369,259.594001 L316.034173,259.472778 L316.069978,259.351555 L316.105782,259.230332 L316.136471,259.108087 L316.167161,258.986353 L316.19785,258.864619 L316.22854,258.74135 L316.259229,258.619104 L316.289918,258.496347 L316.315493,258.372567 L316.341067,258.249298 L316.366642,258.125518 L316.392216,258.00225 L316.412676,257.878469 L316.433135,257.753666 L316.453595,257.628863 L316.474055,257.504572 L316.494514,257.38028 L316.514974,257.255477 L316.530318,257.129651 L316.545663,257.004848 L316.561008,256.879533 L316.576353,256.753707 L316.591697,256.628393 L316.601927,256.503078 L316.612157,256.37674 L316.622387,256.250403 L316.632616,256.124577 L316.642846,255.999262 L316.647961,255.872413 L316.653076,255.746076 L316.658191,255.619738 L316.663306,255.493401 L316.668421,255.367063 L316.668421,254.734864 L316.663306,254.608015 L316.663306,254.481677 L316.658191,254.354828 L316.653076,254.22849 L316.642846,254.102664 L316.637731,253.975815 L316.627502,253.849478 L316.617272,253.723652 L316.607042,253.597314 L316.596812,253.470977 L316.581467,253.345151 L316.571238,253.218813 L316.555893,253.093498 L316.540548,252.968184 L316.525204,252.842358 L316.504744,252.716532 L316.484284,252.591729 L316.46894,252.466414 L316.44848,252.341099 L316.422906,252.216296 L316.402446,252.092005 L316.376872,251.967713 L316.351297,251.843421 L316.330837,251.719641 L316.300148,251.59535 L316.274574,251.471058 L316.243884,251.34779 L316.21831,251.225032 L316.18762,251.101764 L316.156931,250.979007 L316.121127,250.856761 L316.090437,250.734515 L316.054633,250.612781 L316.018829,250.491047 L315.983024,250.369313 L315.94722,250.248602 L315.911416,250.127379 L315.870497,250.006668 L315.829578,249.88698 L315.788658,249.767291 L315.747739,249.647603 L315.701705,249.528426 L315.660786,249.40925 L315.614752,249.291096 L315.568718,249.172942 L315.522684,249.0553 L315.47665,248.938169 L315.425501,248.820527 L315.379467,248.703908 L315.328318,248.587288 L315.277169,248.472203 L315.22602,248.356607 L315.169756,248.241522 L315.118607,248.126949 L315.062343,248.012376 L315.006079,247.899337 L314.949815,247.786298 L314.888437,247.673259 L314.832173,247.560732 L314.770794,247.448716 L314.709415,247.3367 L314.648036,247.226218 L314.586658,247.116249 L314.407636,246.807821 L291.421289,206.992054 L291.329221,206.834515 L291.267842,206.734264 L291.201348,206.622759 L291.134854,206.511766 L291.063246,206.401797 L290.991637,206.291315 L290.920029,206.182368 L290.84842,206.073421 L290.771697,205.965497 L290.700088,205.857573 L290.623365,205.750672 L290.546641,205.643771 L290.469918,205.537382 L290.393194,205.432527 L290.316471,205.32716 L290.234633,205.222305 L290.157909,205.119496 L290.076071,205.016175 L289.994232,204.913366 L289.912394,204.81158 L289.825441,204.710305 L289.743602,204.609542 L289.656649,204.509291 L289.569696,204.410062 L289.482743,204.311856 L289.395789,204.213651 L289.308836,204.115956 L289.216768,204.019285 L289.129815,203.923637 L289.037747,203.827988 L288.945679,203.733363 L288.85361,203.639249 L288.761542,203.546159 L288.669474,203.453579 L288.572291,203.361511 L288.480223,203.270466 L288.38304,203.179933 L288.285857,203.090423 L288.188674,203.001935 L288.091491,202.913448 L287.994308,202.825983 L287.897125,202.739542 L287.794827,202.654123 L287.697644,202.569216 L287.595346,202.484821 L287.493048,202.401448 L287.39075,202.318587 L287.288452,202.236749 L287.186154,202.155934 L287.083856,202.07563 L286.976443,201.99635 L286.874145,201.918092 L286.766732,201.840346 L286.65932,201.763111 L286.557022,201.687411 L286.449609,201.612222 L286.342196,201.538056 L286.234783,201.464914 L286.12737,201.392282 L286.014842,201.320674 L285.90743,201.250089 L285.794902,201.180526 L285.687489,201.111475 L285.574961,201.043447 L285.462434,200.976442 L285.355021,200.91046 L285.242493,200.845501 L285.129965,200.780542 L285.012323,200.717118 L284.899795,200.655228 L284.787267,200.593338 L284.674739,200.532982 L284.562212,200.47365 L284.444569,200.414828 L284.332041,200.35703 L284.214399,200.300255 L284.096756,200.245014 L283.984228,200.189774 L283.866586,200.136067 L283.748943,200.083384 L283.6313,200.031724 L283.518773,199.981087 L283.40113,199.930961 L283.283487,199.882369 L283.165845,199.834801 L283.043087,199.787744 L282.925445,199.74171 L282.807802,199.697211 L282.690159,199.653223 L282.572517,199.610769 L282.449759,199.568827 L282.332117,199.52842 L282.209359,199.488524 L282.091716,199.450162 L281.974074,199.412823 L281.851316,199.375996 L281.733674,199.340192 L281.610916,199.305922 L281.493273,199.272676 L281.370516,199.240452 L281.247758,199.20874 L281.130116,199.178562 L281.007358,199.149407 L280.884601,199.121275 L280.766958,199.094166 L280.644201,199.06808 L280.521443,199.043529 L280.4038,199.019489 L280.281043,198.996472 L280.158285,198.974989 L280.035528,198.954018 L279.91277,198.934582 L279.784898,198.915145 L279.733749,198.906962 L279.67237,198.898778 L279.610991,198.890082 L279.549613,198.88241 L279.488234,198.874738 L279.426855,198.867065 L279.365476,198.859393 L279.309212,198.852744 L279.247834,198.846094 L279.186455,198.839445 L279.125076,198.833307 L279.063697,198.827681 L279.002319,198.822055 L278.94094,198.816428 L278.879561,198.811313 L278.818182,198.80671 L278.761918,198.802107 L278.70054,198.798015 L278.639161,198.793923 L278.577782,198.790342 L278.516403,198.786762 L278.455025,198.783693 L278.393646,198.781135 L278.332267,198.778067 L278.270888,198.776021 L278.214624,198.773975 L278.153246,198.771929 L278.091867,198.770394 L278.030488,198.769371 L277.969109,198.768348 L277.907731,198.767837 L277.851467,198.767325 L277.611067,198.767325 L234.287888,198.756584 L234.19582,198.758119 L234.19582,198.758119 Z M510.497446,-12.0240776 L324.131056,310.775033 L516.067568,310.775033 L516.594403,-12.3979754 L510.497446,-12.0240776 Z M337.731567,235.071216 L212.416588,18.0197099 L232.390261,-16.5706952 L483.659581,-17.6790899 L337.731567,235.071216 L337.731567,235.071216 Z M235.94,-10.4486943 L219.505836,18.0197099 L337.731567,222.795501 L473.000135,-11.4941759 L235.94,-10.4486943 L235.94,-10.4486943 Z M278.91025,173.056353 L122.905889,173.056353 L200.90807,37.9529122 L278.91025,173.056353 Z M133.539761,166.918496 L268.281494,166.918496 L200.90807,50.2286264 L133.539761,166.918496 Z" id="Shape" fill="url(#linearGradient-4)" mask="url(#mask-2)"></path>
        </g>
    </g>
</svg>