<?xml version="1.0" encoding="UTF-8"?>
<svg width="512px" height="512px" viewBox="0 0 512 512" version="1.1" xmlns="http://www.w3.org/2000/svg" xmlns:xlink="http://www.w3.org/1999/xlink">
    <!-- Generator: Sketch 54.1 (76490) - https://sketchapp.com -->
    <title>commitizen-logo</title>
    <desc>Created with Sketch.</desc>
    <g id="commitizen-logo" stroke="none" stroke-width="1" fill="none" fill-rule="evenodd">
        <path d="M256.5,387 C184.42684,387 126,328.57316 126,256.5 C126,184.42684 184.42684,126 256.5,126 C328.57316,126 387,184.42684 387,256.5 C387,328.57316 328.57316,387 256.5,387 Z" id="Background" fill="#3385FF"></path>
        <path d="M324,458 C320.686292,458 318,455.313708 318,452 C318,448.686292 320.686292,446 324,446 C327.313708,446 330,448.686292 330,452 C330,455.313708 327.313708,458 324,458 Z M314,430 C310.686292,430 308,427.313708 308,424 C308,420.686292 310.686292,418 314,418 C317.313708,418 320,420.686292 320,424 C320,427.313708 317.313708,430 314,430 Z M345,403 C341.134007,403 338,399.865993 338,396 C338,392.134007 341.134007,389 345,389 C348.865993,389 352,392.134007 352,396 C352,399.865993 348.865993,403 345,403 Z M407.5,362 C395.349736,362 385.5,352.150264 385.5,340 C385.5,327.849736 395.349736,318 407.5,318 C419.650264,318 429.5,327.849736 429.5,340 C429.5,352.150264 419.650264,362 407.5,362 Z M374,400 C364.611159,400 357,392.388841 357,383 C357,373.611159 364.611159,366 374,366 C383.388841,366 391,373.611159 391,383 C391,392.388841 383.388841,400 374,400 Z M342,438 C336.477153,438 332,433.522847 332,428 C332,422.477153 336.477153,418 342,418 C347.522847,418 352,422.477153 352,428 C352,433.522847 347.522847,438 342,438 Z M321,416 C316.029437,416 312,411.970563 312,407 C312,402.029437 316.029437,398 321,398 C325.970563,398 330,402.029437 330,407 C330,411.970563 325.970563,416 321,416 Z M297,422 C293.134007,422 290,418.865993 290,415 C290,411.134007 293.134007,408 297,408 C300.865993,408 304,411.134007 304,415 C304,418.865993 300.865993,422 297,422 Z M272,428 C266.477153,428 262,423.522847 262,418 C262,412.477153 266.477153,408 272,408 C277.522847,408 282,412.477153 282,418 C282,423.522847 277.522847,428 272,428 Z M210.5,438 C201.387302,438 194,430.612698 194,421.5 C194,412.387302 201.387302,405 210.5,405 C219.612698,405 227,412.387302 227,421.5 C227,430.612698 219.612698,438 210.5,438 Z M172,416 C164.544156,416 158.5,409.955844 158.5,402.5 C158.5,395.044156 164.544156,389 172,389 C179.455844,389 185.5,395.044156 185.5,402.5 C185.5,409.955844 179.455844,416 172,416 Z M111.5,381 C100.454305,381 91.5,372.045695 91.5,361 C91.5,349.954305 100.454305,341 111.5,341 C122.545695,341 131.5,349.954305 131.5,361 C131.5,372.045695 122.545695,381 111.5,381 Z M93.5,333 C84.9395864,333 78,326.060414 78,317.5 C78,308.939586 84.9395864,302 93.5,302 C102.060414,302 109,308.939586 109,317.5 C109,326.060414 102.060414,333 93.5,333 Z M72.5,356 C66.4248678,356 61.5,351.075132 61.5,345 C61.5,338.924868 66.4248678,334 72.5,334 C78.5751322,334 83.5,338.924868 83.5,345 C83.5,351.075132 78.5751322,356 72.5,356 Z M66.5,330 C62.3578644,330 59,326.642136 59,322.5 C59,318.357864 62.3578644,315 66.5,315 C70.6421356,315 74,318.357864 74,322.5 C74,326.642136 70.6421356,330 66.5,330 Z M37.5,356 C33.081722,356 29.5,352.418278 29.5,348 C29.5,343.581722 33.081722,340 37.5,340 C41.918278,340 45.5,343.581722 45.5,348 C45.5,352.418278 41.918278,356 37.5,356 Z M31.5,365 C29.0147186,365 27,362.985281 27,360.5 C27,358.014719 29.0147186,356 31.5,356 C33.9852814,356 36,358.014719 36,360.5 C36,362.985281 33.9852814,365 31.5,365 Z M11.5,362 C9.84314575,362 8.5,360.656854 8.5,359 C8.5,357.343146 9.84314575,356 11.5,356 C13.1568542,356 14.5,357.343146 14.5,359 C14.5,360.656854 13.1568542,362 11.5,362 Z M68,288 C66.6192881,288 65.5,286.880712 65.5,285.5 C65.5,284.119288 66.6192881,283 68,283 C69.3807119,283 70.5,284.119288 70.5,285.5 C70.5,286.880712 69.3807119,288 68,288 Z M41,243 C38.790861,243 37,241.209139 37,239 C37,236.790861 38.790861,235 41,235 C43.209139,235 45,236.790861 45,239 C45,241.209139 43.209139,243 41,243 Z M27,237 C23.6862915,237 21,234.313708 21,231 C21,227.686292 23.6862915,225 27,225 C30.3137085,225 33,227.686292 33,231 C33,234.313708 30.3137085,237 27,237 Z M88.5,288 C82.9771525,288 78.5,283.522847 78.5,278 C78.5,272.477153 82.9771525,268 88.5,268 C94.0228475,268 98.5,272.477153 98.5,278 C98.5,283.522847 94.0228475,288 88.5,288 Z M65.5,272 C60.5294373,272 56.5,267.970563 56.5,263 C56.5,258.029437 60.5294373,254 65.5,254 C70.4705627,254 74.5,258.029437 74.5,263 C74.5,267.970563 70.4705627,272 65.5,272 Z M87.5,256 C82.5294373,256 78.5,251.970563 78.5,247 C78.5,242.029437 82.5294373,238 87.5,238 C92.4705627,238 96.5,242.029437 96.5,247 C96.5,251.970563 92.4705627,256 87.5,256 Z M63.5,244 C59.081722,244 55.5,240.418278 55.5,236 C55.5,231.581722 59.081722,228 63.5,228 C67.918278,228 71.5,231.581722 71.5,236 C71.5,240.418278 67.918278,244 63.5,244 Z M86,227 C74.954305,227 66,218.045695 66,207 C66,195.954305 74.954305,187 86,187 C97.045695,187 106,195.954305 106,207 C106,218.045695 97.045695,227 86,227 Z M44,228 C36.2680135,228 30,221.731986 30,214 C30,206.268014 36.2680135,200 44,200 C51.7319865,200 58,206.268014 58,214 C58,221.731986 51.7319865,228 44,228 Z M52,196 C45.372583,196 40,190.627417 40,184 C40,177.372583 45.372583,172 52,172 C58.627417,172 64,177.372583 64,184 C64,190.627417 58.627417,196 52,196 Z M110,176 C103.372583,176 98,170.627417 98,164 C98,157.372583 103.372583,152 110,152 C116.627417,152 122,157.372583 122,164 C122,170.627417 116.627417,176 110,176 Z M139,144 C130.715729,144 124,137.284271 124,129 C124,120.715729 130.715729,114 139,114 C147.284271,114 154,120.715729 154,129 C154,137.284271 147.284271,144 139,144 Z M169,122 C162.924868,122 158,117.075132 158,111 C158,104.924868 162.924868,100 169,100 C175.075132,100 180,104.924868 180,111 C180,117.075132 175.075132,122 169,122 Z M179,90 C175.134007,90 172,86.8659932 172,83 C172,79.1340068 175.134007,76 179,76 C182.865993,76 186,79.1340068 186,83 C186,86.8659932 182.865993,90 179,90 Z M217,74 C213.134007,74 210,70.8659932 210,67 C210,63.1340068 213.134007,60 217,60 C220.865993,60 224,63.1340068 224,67 C224,70.8659932 220.865993,74 217,74 Z M233,100 C226.924868,100 222,95.0751322 222,89 C222,82.9248678 226.924868,78 233,78 C239.075132,78 244,82.9248678 244,89 C244,95.0751322 239.075132,100 233,100 Z M246,74 C238.268014,74 232,67.7319865 232,60 C232,52.2680135 238.268014,46 246,46 C253.731986,46 260,52.2680135 260,60 C260,67.7319865 253.731986,74 246,74 Z M260,94 C255.029437,94 251,89.9705627 251,85 C251,80.0294373 255.029437,76 260,76 C264.970563,76 269,80.0294373 269,85 C269,89.9705627 264.970563,94 260,94 Z M300,102 C288.954305,102 280,93.045695 280,82 C280,70.954305 288.954305,62 300,62 C311.045695,62 320,70.954305 320,82 C320,93.045695 311.045695,102 300,102 Z M340,85 C333.096441,85 327.5,79.4035594 327.5,72.5 C327.5,65.5964406 333.096441,60 340,60 C346.903559,60 352.5,65.5964406 352.5,72.5 C352.5,79.4035594 346.903559,85 340,85 Z M345,119 C337.544156,119 331.5,112.955844 331.5,105.5 C331.5,98.0441559 337.544156,92 345,92 C352.455844,92 358.5,98.0441559 358.5,105.5 C358.5,112.955844 352.455844,119 345,119 Z M406,176 C398.544156,176 392.5,169.955844 392.5,162.5 C392.5,155.044156 398.544156,149 406,149 C413.455844,149 419.5,155.044156 419.5,162.5 C419.5,169.955844 413.455844,176 406,176 Z M385,151 C380.029437,151 376,146.970563 376,142 C376,137.029437 380.029437,133 385,133 C389.970563,133 394,137.029437 394,142 C394,146.970563 389.970563,151 385,151 Z M414,138 C409.029437,138 405,133.970563 405,129 C405,124.029437 409.029437,120 414,120 C418.970563,120 423,124.029437 423,129 C423,133.970563 418.970563,138 414,138 Z M370,132 C365.581722,132 362,128.418278 362,124 C362,119.581722 365.581722,116 370,116 C374.418278,116 378,119.581722 378,124 C378,128.418278 374.418278,132 370,132 Z M439,132 C435.686292,132 433,129.313708 433,126 C433,122.686292 435.686292,120 439,120 C442.313708,120 445,122.686292 445,126 C445,129.313708 442.313708,132 439,132 Z M362,87 C358.686292,87 356,84.3137085 356,81 C356,77.6862915 358.686292,75 362,75 C365.313708,75 368,77.6862915 368,81 C368,84.3137085 365.313708,87 362,87 Z M345,58 C341.134007,58 338,54.8659932 338,51 C338,47.1340068 341.134007,44 345,44 C348.865993,44 352,47.1340068 352,51 C352,54.8659932 348.865993,58 345,58 Z M423,52 C418.029437,52 414,47.9705627 414,43 C414,38.0294373 418.029437,34 423,34 C427.970563,34 432,38.0294373 432,43 C432,47.9705627 427.970563,52 423,52 Z M360,13 C356.410149,13 353.5,10.0898509 353.5,6.5 C353.5,2.91014913 356.410149,0 360,0 C363.589851,0 366.5,2.91014913 366.5,6.5 C366.5,10.0898509 363.589851,13 360,13 Z M393,118 C390.790861,118 389,116.209139 389,114 C389,111.790861 390.790861,110 393,110 C395.209139,110 397,111.790861 397,114 C397,116.209139 395.209139,118 393,118 Z M434,160 C428.477153,160 424,155.522847 424,150 C424,144.477153 428.477153,140 434,140 C439.522847,140 444,144.477153 444,150 C444,155.522847 439.522847,160 434,160 Z M461,166 C456.029437,166 452,161.970563 452,157 C452,152.029437 456.029437,148 461,148 C465.970563,148 470,152.029437 470,157 C470,161.970563 465.970563,166 461,166 Z M476,208 C472.134007,208 469,204.865993 469,201 C469,197.134007 472.134007,194 476,194 C479.865993,194 483,197.134007 483,201 C483,204.865993 479.865993,208 476,208 Z M420,240 C415.029437,240 411,235.970563 411,231 C411,226.029437 415.029437,222 420,222 C424.970563,222 429,226.029437 429,231 C429,235.970563 424.970563,240 420,240 Z M452,256 C447.029437,256 443,251.970563 443,247 C443,242.029437 447.029437,238 452,238 C456.970563,238 461,242.029437 461,247 C461,251.970563 456.970563,256 452,256 Z M422,272 C416.20101,272 411.5,267.29899 411.5,261.5 C411.5,255.70101 416.20101,251 422,251 C427.79899,251 432.5,255.70101 432.5,261.5 C432.5,267.29899 427.79899,272 422,272 Z M447,276 C442.857864,276 439.5,272.642136 439.5,268.5 C439.5,264.357864 442.857864,261 447,261 C451.142136,261 454.5,264.357864 454.5,268.5 C454.5,272.642136 451.142136,276 447,276 Z M417,310 C408.715729,310 402,303.284271 402,295 C402,286.715729 408.715729,280 417,280 C425.284271,280 432,286.715729 432,295 C432,303.284271 425.284271,310 417,310 Z M471,336 C466.029437,336 462,331.970563 462,327 C462,322.029437 466.029437,318 471,318 C475.970563,318 480,322.029437 480,327 C480,331.970563 475.970563,336 471,336 Z M446,292 C442.686292,292 440,289.313708 440,286 C440,282.686292 442.686292,280 446,280 C449.313708,280 452,282.686292 452,286 C452,289.313708 449.313708,292 446,292 Z M476,298 C473.790861,298 472,296.209139 472,294 C472,291.790861 473.790861,290 476,290 C478.209139,290 480,291.790861 480,294 C480,296.209139 478.209139,298 476,298 Z M466,269 C463.790861,269 462,267.209139 462,265 C462,262.790861 463.790861,261 466,261 C468.209139,261 470,262.790861 470,265 C470,267.209139 468.209139,269 466,269 Z M228,36 C223.029437,36 219,31.9705627 219,27 C219,22.0294373 223.029437,18 228,18 C232.970563,18 237,22.0294373 237,27 C237,31.9705627 232.970563,36 228,36 Z M220,52 C217.790861,52 216,50.209139 216,48 C216,45.790861 217.790861,44 220,44 C222.209139,44 224,45.790861 224,48 C224,50.209139 222.209139,52 220,52 Z M271,68 C268.790861,68 267,66.209139 267,64 C267,61.790861 268.790861,60 271,60 C273.209139,60 275,61.790861 275,64 C275,66.209139 273.209139,68 271,68 Z M292,54 C287.029437,54 283,49.9705627 283,45 C283,40.0294373 287.029437,36 292,36 C296.970563,36 301,40.0294373 301,45 C301,49.9705627 296.970563,54 292,54 Z M77,170 C72.0294373,170 68,165.970563 68,161 C68,156.029437 72.0294373,152 77,152 C81.9705627,152 86,156.029437 86,161 C86,165.970563 81.9705627,170 77,170 Z M97,116 C93.6862915,116 91,113.313708 91,110 C91,106.686292 93.6862915,104 97,104 C100.313708,104 103,106.686292 103,110 C103,113.313708 100.313708,116 97,116 Z M127,106 C124.790861,106 123,104.209139 123,102 C123,99.790861 124.790861,98 127,98 C129.209139,98 131,99.790861 131,102 C131,104.209139 129.209139,106 127,106 Z M145,106 C141.686292,106 139,103.313708 139,100 C139,96.6862915 141.686292,94 145,94 C148.313708,94 151,96.6862915 151,100 C151,103.313708 148.313708,106 145,106 Z M113,142 C111.343146,142 110,140.656854 110,139 C110,137.343146 111.343146,136 113,136 C114.656854,136 116,137.343146 116,139 C116,140.656854 114.656854,142 113,142 Z M92,148 C89.790861,148 88,146.209139 88,144 C88,141.790861 89.790861,140 92,140 C94.209139,140 96,141.790861 96,144 C96,146.209139 94.209139,148 92,148 Z M110,58 C106.686292,58 104,55.3137085 104,52 C104,48.6862915 106.686292,46 110,46 C113.313708,46 116,48.6862915 116,52 C116,55.3137085 113.313708,58 110,58 Z M17,74 C15.3431458,74 14,72.6568542 14,71 C14,69.3431458 15.3431458,68 17,68 C18.6568542,68 20,69.3431458 20,71 C20,72.6568542 18.6568542,74 17,74 Z M55,166 C50.0294373,166 46,161.970563 46,157 C46,152.029437 50.0294373,148 55,148 C59.9705627,148 64,152.029437 64,157 C64,161.970563 59.9705627,166 55,166 Z M11,192 C6.02943725,192 2,187.970563 2,183 C2,178.029437 6.02943725,174 11,174 C15.9705627,174 20,178.029437 20,183 C20,187.970563 15.9705627,192 11,192 Z M177,438 C172.029437,438 168,433.970563 168,429 C168,424.029437 172.029437,420 177,420 C181.970563,420 186,424.029437 186,429 C186,433.970563 181.970563,438 177,438 Z M151,432 C146.029437,432 142,427.970563 142,423 C142,418.029437 146.029437,414 151,414 C155.970563,414 160,418.029437 160,423 C160,427.970563 155.970563,432 151,432 Z M175,460 C171.134007,460 168,456.865993 168,453 C168,449.134007 171.134007,446 175,446 C178.865993,446 182,449.134007 182,453 C182,456.865993 178.865993,460 175,460 Z M154,452 C150.686292,452 148,449.313708 148,446 C148,442.686292 150.686292,440 154,440 C157.313708,440 160,442.686292 160,446 C160,449.313708 157.313708,452 154,452 Z M137,448 C134.790861,448 133,446.209139 133,444 C133,441.790861 134.790861,440 137,440 C139.209139,440 141,441.790861 141,444 C141,446.209139 139.209139,448 137,448 Z M194,452 C191.790861,452 190,450.209139 190,448 C190,445.790861 191.790861,444 194,444 C196.209139,444 198,445.790861 198,448 C198,450.209139 196.209139,452 194,452 Z M115,436 C110.581722,436 107,432.418278 107,428 C107,423.581722 110.581722,420 115,420 C119.418278,420 123,423.581722 123,428 C123,432.418278 119.418278,436 115,436 Z M246,420 C243.790861,420 242,418.209139 242,416 C242,413.790861 243.790861,412 246,412 C248.209139,412 250,413.790861 250,416 C250,418.209139 248.209139,420 246,420 Z M236,446 C233.790861,446 232,444.209139 232,442 C232,439.790861 233.790861,438 236,438 C238.209139,438 240,439.790861 240,442 C240,444.209139 238.209139,446 236,446 Z M364,464 C360.134007,464 357,460.865993 357,457 C357,453.134007 360.134007,450 364,450 C367.865993,450 371,453.134007 371,457 C371,460.865993 367.865993,464 364,464 Z M413.5,387 C408.80558,387 405,383.19442 405,378.5 C405,373.80558 408.80558,370 413.5,370 C418.19442,370 422,373.80558 422,378.5 C422,383.19442 418.19442,387 413.5,387 Z M399.5,404 C397.290861,404 395.5,402.209139 395.5,400 C395.5,397.790861 397.290861,396 399.5,396 C401.709139,396 403.5,397.790861 403.5,400 C403.5,402.209139 401.709139,404 399.5,404 Z M486,406 C483.790861,406 482,404.209139 482,402 C482,399.790861 483.790861,398 486,398 C488.209139,398 490,399.790861 490,402 C490,404.209139 488.209139,406 486,406 Z M439,372 C434.029437,372 430,367.970563 430,363 C430,358.029437 434.029437,354 439,354 C443.970563,354 448,358.029437 448,363 C448,367.970563 443.970563,372 439,372 Z M444,400 C438.477153,400 434,395.522847 434,390 C434,384.477153 438.477153,380 444,380 C449.522847,380 454,384.477153 454,390 C454,395.522847 449.522847,400 444,400 Z M441,349 C436.857864,349 433.5,345.642136 433.5,341.5 C433.5,337.357864 436.857864,334 441,334 C445.142136,334 448.5,337.357864 448.5,341.5 C448.5,345.642136 445.142136,349 441,349 Z M471,432 C466.029437,432 462,427.970563 462,423 C462,418.029437 466.029437,414 471,414 C475.970563,414 480,418.029437 480,423 C480,427.970563 475.970563,432 471,432 Z M258,484 C255.790861,484 254,482.209139 254,480 C254,477.790861 255.790861,476 258,476 C260.209139,476 262,477.790861 262,480 C262,482.209139 260.209139,484 258,484 Z M217,512 C214.790861,512 213,510.209139 213,508 C213,505.790861 214.790861,504 217,504 C219.209139,504 221,505.790861 221,508 C221,510.209139 219.209139,512 217,512 Z M140,486 C137.790861,486 136,484.209139 136,482 C136,479.790861 137.790861,478 140,478 C142.209139,478 144,479.790861 144,482 C144,484.209139 142.209139,486 140,486 Z M502,234 C499.790861,234 498,232.209139 498,230 C498,227.790861 499.790861,226 502,226 C504.209139,226 506,227.790861 506,230 C506,232.209139 504.209139,234 502,234 Z M510,76 C508.895431,76 508,75.1045695 508,74 C508,72.8954305 508.895431,72 510,72 C511.104569,72 512,72.8954305 512,74 C512,75.1045695 511.104569,76 510,76 Z" id="Bubbles" fill="#99C9FF"></path>
        <path d="M342.032186,313.001107 C342.032186,313.001107 314.765839,288.708176 313.440416,286.835595 C318.370387,277.609886 321,267.267525 321,256.5 C321,245.960911 318.480672,235.829245 313.751594,226.754006 C315.935427,224.292743 325.314291,215.302027 341.888186,199.781859 C352.98285,216.457504 359,236.055407 359,256.5 C359,276.854563 353.035832,296.370911 342.032186,313.001107 Z M314.21494,171.783458 C314.21494,171.783458 291.240165,197.207868 287.996273,200.195066 C278.484958,194.857891 267.723804,192 256.5,192 C220.877634,192 192,220.877634 192,256.5 C192,292.122366 220.877634,321 256.5,321 C267.406743,321 277.876804,318.301495 287.188949,313.250311 C289.81398,315.681571 298.700052,325.08691 313.847166,341.466326 C297.041291,352.827403 277.206458,359 256.5,359 C199.890813,359 154,313.109187 154,256.5 C154,199.890813 199.890813,154 256.5,154 C277.360217,154 297.333968,160.264802 314.21494,171.783458 Z" id="Foreground" fill="#FFFFFF"></path>
    </g>
</svg>