<?xml version="1.0" encoding="UTF-8"?>
<svg width="512px" height="512px" viewBox="0 0 512 512" version="1.1" xmlns="http://www.w3.org/2000/svg" xmlns:xlink="http://www.w3.org/1999/xlink">
    <!-- Generator: Sketch 54.1 (76490) - https://sketchapp.com -->
    <title>illustrator</title>
    <desc>Created with Sketch.</desc>
    <g id="illustrator" stroke="none" stroke-width="1" fill="none" fill-rule="evenodd">
        <path d="M90.5163953,7 L420.635013,7 C470.685256,7 511.151409,47.4661532 511.151409,97.5163953 L511.151409,414.856228 C511.151409,464.90647 470.685256,505.372624 420.635013,505.372624 L90.5163953,505.372624 C40.4661532,505.372624 0,464.90647 0,414.856228 L0,97.5163953 C0,47.4661532 40.4661532,7 90.5163953,7 Z" id="Path" fill="#330000" fill-rule="nonzero"></path>
        <path d="M247.695454,306.023574 L168.466985,306.023574 L152.280524,356.073816 C151.854564,357.990634 150.150726,359.268513 148.233909,359.055533 L108.193715,359.055533 C105.850938,359.055533 105.211998,357.777654 105.850938,355.221897 L174.430418,157.789666 C175.069358,155.659868 175.708297,153.317091 176.560216,150.761334 C177.412135,146.288759 177.838094,141.603204 177.838094,136.91765 C177.625115,135.852751 178.477034,134.787852 179.541932,134.574872 L234.703689,134.574872 C236.407527,134.574872 237.259446,135.213812 237.472425,136.27871 L315.210035,355.647857 C315.848975,357.990634 315.210035,359.055533 313.080238,359.055533 L268.567469,359.055533 C267.076611,359.268513 265.585753,358.203614 265.159793,356.712756 L247.695454,306.023574 Z M180.819811,262.788684 L234.916668,262.788684 C233.63879,258.316109 231.934952,252.991615 230.018134,247.454142 C228.101316,241.703689 226.184498,235.527276 224.267681,229.137883 C222.137883,222.535511 220.221065,216.146118 218.091268,209.543746 C215.96147,202.941373 214.044652,196.764961 212.340814,190.588548 C210.636976,184.625115 209.146118,179.087641 207.65526,173.976127 L207.2293,173.976127 C205.312483,183.134256 202.969705,192.292386 199.987989,201.450515 C196.793292,211.673543 193.598596,222.322531 190.19092,232.971519 C187.209203,243.833486 184.014507,253.843534 180.819811,262.788684 Z M361.639622,170.99441 C354.61129,171.20739 347.795938,168.438653 342.684424,163.540119 C337.785889,158.215625 335.230132,151.187293 335.443112,143.945982 C335.230132,136.70467 337.998869,129.889318 343.110383,124.990784 C348.221897,120.092249 355.037249,117.536492 362.065581,117.536492 C370.371792,117.536492 376.761184,120.092249 381.446739,124.990784 C386.132293,130.102298 388.68805,136.91765 388.475071,143.945982 C388.68805,151.187293 386.132293,158.215625 381.020779,163.540119 C376.122245,168.651633 368.880933,171.42037 361.639622,170.99441 Z M337.785889,355.860837 L337.785889,191.866426 C337.785889,189.736629 338.637808,188.88471 340.554626,188.88471 L382.724617,188.88471 C384.641435,188.88471 385.493354,189.949608 385.493354,191.866426 L385.493354,355.860837 C385.493354,358.203614 384.641435,359.268513 382.724617,359.268513 L340.980586,359.268513 C338.850788,359.268513 337.785889,357.990634 337.785889,355.860837 Z" id="Shape" fill="#FF9A00" fill-rule="nonzero"></path>
    </g>
</svg>