<?xml version="1.0" encoding="UTF-8"?>
<svg width="512px" height="512px" viewBox="0 0 512 512" version="1.1" xmlns="http://www.w3.org/2000/svg" xmlns:xlink="http://www.w3.org/1999/xlink">
    <!-- Generator: Sketch 54.1 (76490) - https://sketchapp.com -->
    <title>editorconfig</title>
    <desc>Created with Sketch.</desc>
    <g id="editorconfig" stroke="none" stroke-width="1" fill="none" fill-rule="evenodd">
        <g id="EditorConfig_Large" transform="translate(0.000000, 9.000000)">
            <g id="Group" transform="translate(122.694921, 264.855095)" fill="#E3E3F8">
                <path d="M0,16.6380056 C10.8072017,13.4788906 19.7348901,5.58110315 14.3312892,0 C-0.469878336,2.84320349 0.234939168,9.37204113 0,16.6380056 Z" id="Path"></path>
                <path d="M113.600499,34.7502649 C123.726355,33.0654036 133.447178,27.1683889 127.979215,21.0607666 C120.081047,23.9039701 115.018119,27.8002119 113.600499,34.7502649 Z" id="Path"></path>
            </g>
            <g id="Group" transform="translate(12.604550, 132.427548)" fill="#FDFDFD">
                <path d="M0.478653786,317.187909 C0.478653786,327.239639 3.03147398,338.089124 10.0517295,341.918355 C35.899034,356.437519 126.524151,345.10938 157.317544,338.248676 C173.432222,334.578997 186.515425,322.612652 201.672795,316.07105 C235.816765,301.232783 260.547211,289.266438 287.830477,269.32253 C307.614833,254.803366 339.046432,213.958242 342.397008,189.546899 L315.432845,183.483951 C314.79464,210.926768 308.572141,217.149268 284.160798,223.531318 C267.727018,227.998754 235.657214,228.956061 218.904332,226.084138 C196.726706,222.414459 186.674977,210.767217 176.623247,197.524462 C157.157993,171.677158 180.931131,153.647865 150.137738,151.892801 C117.748831,191.621066 60.6294796,163.06139 35.5799314,159.072608 C24.8899969,174.549081 -0.159551262,275.066376 0.159551262,298.041758 C15.6360237,292.776566 25.3686507,298.520411 39.2496105,303.945154 C88.3913992,322.931754 45.4721097,339.684637 25.8473045,334.738548 C12.4449984,331.547523 8.29666563,322.772203 0.478653786,317.187909 Z" id="Path"></path>
                <path d="M64.7778124,87.9127454 C84.7217202,91.7419757 102.43191,100.038641 119.344344,108.494858 C146.946712,122.216267 151.892801,120.301652 154.445622,139.447803 C154.764724,142.957931 154.126519,144.872546 164.178249,148.063571 C181.090682,153.328763 154.445622,143.915238 199.75818,144.07479 C226.722343,144.234341 288.468682,155.083827 308.41259,167.688376 C316.709255,172.953568 315.113743,179.654721 343.194765,178.856965 C342.875662,145.829854 334.100343,96.5285136 321.176691,66.2137738 C305.381116,29.5169835 284.4799,23.9326893 241.879713,10.2112808 C216.989716,2.23371767 143.915238,-6.54160175 121.258959,7.49890932 C100.038641,20.7416641 96.0498598,36.537239 76.2655033,64.2991586 C70.5216578,72.436273 68.4474914,78.6587722 64.7778124,87.9127454 Z" id="Path"></path>
                <path d="M240.443752,155.722032 C256.398878,162.263634 239.645996,204.544718 217.46837,194.333437 C210.288563,174.070427 227.360548,162.582736 231.987535,153.488314 C222.414459,152.052353 195.131194,147.744469 186.994079,150.775943 C176.463696,154.764724 174.070427,177.261452 179.49517,187.791835 C205.023372,237.890932 317.826114,227.200997 305.859769,188.270489 C301.073232,172.474914 296.605796,169.922094 280.491119,164.497351 C267.567467,160.189467 254.643814,155.722032 240.443752,155.722032 Z" id="Path"></path>
                <path d="M39.8878155,150.137738 C52.6519165,162.423185 81.5306949,164.3378 100.198193,165.295108 C102.591462,140.564662 104.665628,122.056715 124.449984,123.492677 C134.182611,136.735432 129.076971,152.371455 118.86569,162.423185 C136.256778,162.263634 146.308507,149.18043 143.755687,130.19383 C129.076971,119.663447 84.5621689,98.60268 62.2249922,95.571206 C56.002493,102.272359 40.6855718,138.969149 39.8878155,150.137738 Z" id="Path"></path>
            </g>
            <path d="M22.496728,440.521035 C33.0271112,439.563727 60.4699283,447.54129 62.703646,456.476161 C45.631661,458.550327 23.9326893,456.954815 22.496728,440.521035 Z M13.0832035,449.615457 C20.9012153,455.199751 25.0495481,463.97507 38.4518542,467.166095 C58.0766594,472.112184 100.995949,455.359302 51.8541602,436.372702 C37.9732004,430.947959 28.2405734,425.204113 12.764101,430.469305 C12.4449984,407.493923 37.4945466,306.976628 48.1844811,291.500156 C73.2340293,295.488937 130.353381,324.048613 162.742287,284.320349 C193.535681,286.075413 169.762543,304.104706 189.227797,329.95201 C199.279526,343.194765 209.331256,354.842007 231.508881,358.511686 C248.261764,361.383609 280.331567,360.426301 296.765347,355.958866 C321.176691,349.576815 327.39919,343.354316 328.037395,315.911499 L355.001558,321.974447 C351.650982,346.38579 320.219383,387.230913 300.435026,401.750078 C273.151761,421.693986 248.421315,433.66033 214.277345,448.498598 C199.119975,455.040199 186.036772,467.006544 169.922094,470.676223 C139.128701,477.536927 48.5035837,488.865067 22.6562792,474.345902 C15.6360237,470.516672 13.0832035,459.667186 13.0832035,449.615457 Z M236.295419,317.507012 C237.713039,306.976628 242.775968,301.073232 250.674136,296.765347 C256.142099,306.019321 246.421276,314.954191 236.295419,317.507012 Z M253.048302,288.149579 C267.248364,288.149579 280.172016,292.617015 293.095668,296.924899 C309.210346,302.349642 313.677781,304.902462 318.464319,320.698037 C330.430664,359.628545 217.627921,370.318479 192.09972,320.219383 C186.674977,309.689 189.068246,287.192272 199.598629,283.20349 C207.735743,280.172016 235.019009,284.4799 244.592085,285.915862 C239.965098,295.010284 222.893113,306.497974 230.07292,326.760985 C252.250545,336.972266 269.003428,294.691181 253.048302,288.149579 Z M122.694921,290.064194 C122.92986,279.055157 122.225042,269.162979 137.02621,264.855095 C142.429811,273.311312 133.502122,285.277657 122.694921,290.064194 Z M52.4923652,282.565285 C53.2901215,271.396697 68.6070427,234.699907 74.8295419,227.998754 C97.1667186,231.030227 141.681521,252.090994 156.360237,262.621377 C158.913057,281.607978 148.861328,294.691181 131.47024,294.850732 C141.681521,284.799003 146.787161,269.162979 137.054534,255.920224 C117.270178,254.484263 115.196011,272.992209 112.802742,297.722655 C94.1352446,296.765347 65.2564662,294.850732 52.4923652,282.565285 Z M36.537239,269.801184 C30.6338423,253.526955 30.6338423,228.158305 55.6833905,226.084138 L42.9192895,261.66407 C39.568713,269.32253 39.568713,267.567467 36.537239,269.801184 Z M77.3823621,220.340293 C81.0520411,211.08632 83.1262075,204.863821 88.870053,196.726706 C108.654409,168.964787 112.643191,153.169212 133.863509,139.926457 C156.519788,125.885946 229.594266,134.661265 254.484263,142.638828 C297.08445,156.360237 317.985665,161.944531 333.78124,198.641321 C346.704892,228.956061 355.480212,278.257401 355.799314,311.284512 C327.718292,312.082269 329.313805,305.381116 321.017139,300.115924 C301.073232,287.511374 239.326893,276.661888 212.36273,276.502337 C167.050171,276.342786 193.695232,285.75631 176.782798,280.491119 C166.731069,277.300093 167.369274,275.385478 167.050171,271.875351 C164.497351,252.729199 159.551262,254.643814 131.948894,240.922406 C115.03646,232.466189 97.3262699,224.169523 77.3823621,220.340293 Z M359.788096,212.522281 C356.756622,202.470552 362.340916,203.108757 372.073543,196.248052 C377.657837,192.259271 382.125273,188.110938 388.985977,184.281708 C414.67373,169.922094 462.539109,167.528825 482.96167,184.60081 C491.258336,191.461514 504.820193,204.863821 502.746027,222.414459 C498.438143,257.356186 474.505453,276.502337 454.880648,292.457463 C434.93674,308.731692 401.750078,325.484575 367.446557,314.315986 C364.574634,307.295731 366.808352,262.780929 363.457775,246.347149 C360.426301,231.668433 362.021814,230.07292 370.478031,221.2976 C395.368027,195.450296 449.296354,176.623247 479.930196,198.800873 C492.853849,208.373948 489.18417,212.043627 495.885323,219.382985 C504.181988,210.448115 488.705516,180.452477 431.586164,182.367093 C392.815207,183.643503 376.062325,213.958242 359.788096,212.522281 Z M127.481458,121.737613 C128.279215,99.5599875 148.701776,53.6092241 169.124338,37.6540978 C193.854783,18.5079464 219.702088,0.478653786 257.675288,22.0180742 C267.088813,27.2832658 266.610159,29.9956373 267.567467,43.0788408 C268.365223,55.6833905 267.248364,60.3103771 264.057339,70.5216578 C238.848239,151.892801 217.787473,105.144282 137.054534,124.449984 C140.086008,97.9644749 163.06139,74.3508881 175.825491,62.0654409 C197.684014,40.8451231 213.479589,27.1237146 246.347149,31.5911499 C255.441571,46.7485198 256.398878,56.3215955 245.389841,74.0317856 C230.711125,97.6453724 227.041446,96.209411 229.275164,112.324089 C240.762854,109.452166 244.272982,98.2835774 249.538174,87.1149891 C281.607978,20.103459 235.019009,11.9663447 206.459333,24.2517918 C187.313182,32.3889062 153.169212,70.0430041 142.000623,92.6992833 C139.766906,97.1667186 137.373637,102.910564 135.29947,107.856653 L127.481458,121.737613 Z M253.846058,125.088189 C257.196634,105.144282 276.980991,100.198193 276.980991,38.7709567 C276.980991,12.2854472 244.432533,-11.4876909 201.832347,6.22249922 C165.295108,21.2203179 159.710813,32.7080087 140.245559,62.0654409 C121.897164,89.8273605 122.535369,120.301652 106.739794,145.989405 C102.112808,153.328763 97.9644749,155.881583 92.8588345,163.220941 C89.1891555,168.645684 86.476784,175.506388 82.807105,181.888439 C75.3081957,194.173886 67.6497351,203.108757 61.5867872,217.787473 C42.4406357,218.266127 26.3259582,218.585229 24.4113431,238.369586 C21.8585229,265.4933 34.6226239,272.194453 34.6226239,282.405734 C34.4630726,293.414771 -10.2112808,404.462449 2.23371767,470.676223 C5.74384543,488.865067 17.7101901,489.024618 36.8563415,491.258336 C82.9666563,496.84263 142.79838,494.928015 184.122156,478.334684 L259.11125,442.43565 C278.09785,431.745715 310.008102,411.482705 324.208165,396.644438 C334.259894,386.273605 339.525086,377.498286 348.140854,365.212839 C359.947647,347.981303 360.26675,348.300405 362.81957,324.84637 C378.455594,327.718292 407.653475,334.578997 417.386102,343.035213 C416.269243,354.044251 410.8445,348.779059 410.8445,358.671237 C417.066999,358.830788 427.437831,351.012777 429.990651,342.397008 C423.44905,332.823933 416.588345,334.419445 407.174821,326.760985 C414.67373,320.857588 428.235587,318.145217 438.606419,313.837333 C460.943596,304.583359 499.076348,276.502337 508.489872,250.974135 C515.988782,230.392022 510.404487,196.088501 498.278591,182.686195 C485.51449,168.645684 455.837956,161.465877 431.586164,161.465877 C402.707385,161.465877 372.871299,182.207541 349.576815,191.142412 C340.641945,183.3244 340.003739,174.389529 333.462138,165.773761 C325.963228,155.562481 277.140542,130.034279 253.846058,125.088189 Z" id="Shape" fill="#020202"></path>
            <path d="M359.788096,212.522281 C376.062325,213.958242 392.815207,183.643503 431.586164,182.367093 C488.705516,180.452477 504.181988,210.448115 495.885323,219.382985 C489.18417,212.043627 492.853849,208.373948 479.930196,198.800873 C449.296354,176.623247 395.368027,195.450296 370.478031,221.2976 C362.021814,230.07292 360.426301,231.668433 363.457775,246.347149 C366.808352,262.780929 364.574634,307.295731 367.446557,314.315986 C401.750078,325.484575 434.93674,308.731692 454.880648,292.457463 C474.505453,276.502337 498.438143,257.356186 502.746027,222.414459 C504.820193,204.863821 491.258336,191.461514 482.96167,184.60081 C462.539109,167.528825 414.67373,169.922094 388.985977,184.281708 C382.125273,188.110938 377.657837,192.259271 372.073543,196.248052 C362.340916,203.108757 356.756622,202.470552 359.788096,212.522281 Z" id="Path" fill="#FDF2F2"></path>
            <path d="M127.481458,121.737613 L135.29947,107.856653 C137.373637,102.910564 139.766906,97.1667186 142.000623,92.6992833 C153.169212,70.0430041 187.313182,32.3889062 206.459333,24.2517918 C235.019009,11.9663447 281.607978,20.103459 249.538174,87.1149891 C244.272982,98.2835774 240.762854,109.452166 229.275164,112.324089 C227.041446,96.209411 230.711125,97.6453724 245.389841,74.0317856 C256.398878,56.3215955 255.441571,46.7485198 246.347149,31.5911499 C213.479589,27.1237146 197.684014,40.8451231 175.825491,62.0654409 C163.06139,74.3508881 140.086008,97.9644749 137.054534,124.449984 C217.787473,105.144282 238.848239,151.892801 264.057339,70.5216578 C267.248364,60.3103771 268.365223,55.6833905 267.567467,43.0788408 C266.610159,29.9956373 267.088813,27.2832658 257.675288,22.0180742 C219.702088,0.478653786 193.854783,18.5079464 169.124338,37.6540978 C148.701776,53.6092241 128.279215,99.5599875 127.481458,121.737613 Z" id="Path" fill="#FEF3F3"></path>
            <path d="M36.537239,269.801184 C39.568713,267.567467 39.568713,269.32253 42.9192895,261.66407 L55.6833905,226.084138 C30.6338423,228.158305 30.6338423,253.526955 36.537239,269.801184 Z" id="Path" fill="#EFEFEF"></path>
            <path d="M62.703646,456.476161 C60.4699283,447.54129 33.0271112,439.563727 22.496728,440.521035 C23.9326893,456.954815 45.631661,458.550327 62.703646,456.476161 Z" id="Path" fill="#FAF1F1"></path>
        </g>
    </g>
</svg>