<?xml version="1.0" encoding="UTF-8"?>
<svg width="512px" height="512px" viewBox="0 0 512 512" version="1.1" xmlns="http://www.w3.org/2000/svg" xmlns:xlink="http://www.w3.org/1999/xlink">
    <!-- Generator: Sketch 54.1 (76490) - https://sketchapp.com -->
    <title>photoshop</title>
    <desc>Created with Sketch.</desc>
    <g id="photoshop" stroke="none" stroke-width="1" fill="none" fill-rule="evenodd">
        <path d="M90.6666667,6 L421.333333,6 C471.466667,6 512,46.5333333 512,96.6666667 L512,414.533333 C512,464.666667 471.466667,505.2 421.333333,505.2 L90.6666667,505.2 C40.5333333,505.2 0,464.666667 0,414.533333 L0,96.6666667 C0,46.5333333 40.5333333,6 90.6666667,6 Z" id="Path" fill="#001E36" fill-rule="nonzero"></path>
        <path d="M115.2,356.08 L115.2,136.56 C115.2,135.066667 115.84,134.213333 117.333333,134.213333 C120.96,134.213333 124.373333,134.213333 129.28,134 C134.4,133.786667 139.733333,133.786667 145.493333,133.573333 C151.253333,133.36 157.44,133.36 164.053333,133.146667 C170.666667,132.933333 177.066667,132.933333 183.466667,132.933333 C200.96,132.933333 215.466667,135.066667 227.413333,139.546667 C238.08,143.173333 247.893333,149.146667 256,157.04 C262.826667,163.866667 268.16,172.186667 271.573333,181.36 C274.773333,190.32 276.48,199.493333 276.48,209.093333 C276.48,227.44 272.213333,242.586667 263.68,254.533333 C255.146667,266.48 243.2,275.44 229.333333,280.56 C214.826667,285.893333 198.826667,287.813333 181.333333,287.813333 C176.213333,287.813333 172.8,287.813333 170.666667,287.6 C168.533333,287.386667 165.546667,287.386667 161.493333,287.386667 L161.493333,355.866667 C161.706667,357.36 160.64,358.64 159.146667,358.853333 L117.76,358.853333 C116.053333,358.853333 115.2,358 115.2,356.08 Z M161.706667,175.386667 L161.706667,247.066667 C164.693333,247.28 167.466667,247.493333 170.026667,247.493333 L181.333333,247.493333 C189.653333,247.493333 197.973333,246.213333 205.866667,243.653333 C212.693333,241.733333 218.666667,237.68 223.36,232.346667 C227.84,227.013333 229.973333,219.76 229.973333,210.373333 C230.186667,203.76 228.48,197.146667 225.066667,191.386667 C221.44,185.84 216.32,181.573333 210.133333,179.226667 C202.24,176.026667 193.706667,174.746667 184.96,174.96 C179.413333,174.96 174.506667,174.96 170.453333,175.173333 C166.186667,174.96 163.2,175.173333 161.706667,175.386667 Z M409.6,234.053333 C403.2,230.64 396.373333,228.293333 389.12,226.8 C381.226667,225.093333 373.333333,224.026667 365.226667,224.026667 C360.96,223.813333 356.48,224.453333 352.426667,225.52 C349.653333,226.16 347.306667,227.653333 345.813333,229.786667 C344.746667,231.493333 344.106667,233.626667 344.106667,235.546667 C344.106667,237.466667 344.96,239.386667 346.24,241.093333 C348.16,243.44 350.72,245.36 353.493333,246.853333 C358.4,249.413333 363.52,251.76 368.64,253.893333 C380.16,257.733333 391.253333,263.066667 401.493333,269.466667 C408.533333,273.946667 414.293333,279.92 418.346667,287.173333 C421.76,294 423.466667,301.466667 423.253333,309.146667 C423.466667,319.173333 420.48,329.2 414.933333,337.52 C408.96,346.053333 400.64,352.666667 391.04,356.506667 C380.586667,360.986667 367.786667,363.333333 352.426667,363.333333 C342.613333,363.333333 333.013333,362.48 323.413333,360.56 C315.946667,359.28 308.48,356.933333 301.653333,353.733333 C300.16,352.88 299.093333,351.386667 299.306667,349.68 L299.306667,312.56 C299.306667,311.92 299.52,311.066667 300.16,310.64 C300.8,310.213333 301.44,310.426667 302.08,310.853333 C310.4,315.76 319.146667,319.173333 328.533333,321.306667 C336.64,323.44 345.173333,324.506667 353.706667,324.506667 C361.813333,324.506667 367.573333,323.44 371.413333,321.52 C374.826667,320.026667 377.173333,316.4 377.173333,312.56 C377.173333,309.573333 375.466667,306.8 372.053333,304.026667 C368.64,301.253333 361.6,298.053333 351.146667,294 C340.266667,290.16 330.24,285.04 320.853333,278.64 C314.24,273.946667 308.693333,267.76 304.64,260.506667 C301.226667,253.68 299.52,246.213333 299.733333,238.746667 C299.733333,229.573333 302.293333,220.826667 306.986667,212.933333 C312.32,204.4 320.213333,197.573333 329.386667,193.306667 C339.413333,188.186667 352,185.84 367.146667,185.84 C375.893333,185.84 384.853333,186.48 393.6,187.76 C400,188.613333 406.186667,190.32 411.946667,192.666667 C412.8,192.88 413.653333,193.733333 414.08,194.586667 C414.293333,195.44 414.506667,196.293333 414.506667,197.146667 L414.506667,231.92 C414.506667,232.773333 414.08,233.626667 413.44,234.053333 C411.52,234.48 410.453333,234.48 409.6,234.053333 Z" id="Shape" fill="#31A8FF" fill-rule="nonzero"></path>
    </g>
</svg>