<?xml version="1.0" encoding="UTF-8"?>
<svg width="512px" height="512px" viewBox="0 0 512 512" version="1.1" xmlns="http://www.w3.org/2000/svg" xmlns:xlink="http://www.w3.org/1999/xlink">
    <!-- Generator: Sketch 54.1 (76490) - https://sketchapp.com -->
    <title>svgporn</title>
    <desc>Created with Sketch.</desc>
    <g id="svgporn" stroke="none" stroke-width="1" fill="none" fill-rule="evenodd">
        <path d="M495.59,279.625 C495.867,276.329 496.185,273.036 496.413,269.736 C496.953,261.951 497.481,254.164 497.931,246.374 C498.014,244.937 498.084,243.302 497.508,242.061 C494.815,236.257 495.793,230.614 497.684,224.883 C499.224,220.215 503.045,218.209 508.244,219.578 C511.655,220.476 512.708,223.251 511.544,228.262 C511.278,229.408 510.627,230.633 510.829,231.692 C513.322,244.789 506.483,257.164 507.926,270.155 C508.376,274.215 508.958,278.259 509.365,282.323 C509.653,285.206 510.201,288.169 509.818,290.987 C509.336,294.535 507.105,297.24 503.432,298.131 C499.662,299.046 496.478,297.836 493.958,294.85 C486.828,286.4 479.706,277.943 472.516,269.544 C470.702,267.425 468.769,265.369 466.646,263.572 C465.67,262.746 463.706,261.908 462.908,262.356 C461.936,262.9 461.222,264.814 461.275,266.099 C461.402,269.173 462.165,272.214 462.455,275.288 C463.13,282.45 464.124,289.63 464.037,296.791 C464.007,299.288 461.74,302.773 459.504,303.994 C456.086,305.862 451.98,304.389 449.569,301.355 C448.206,299.64 447.918,296.711 447.925,294.331 C447.945,287.441 448.48,280.555 448.574,273.665 C448.63,269.548 447.8,265.389 448.137,261.312 C448.957,251.368 446.347,242.39 441.524,233.865 C439.667,230.585 438.894,227.15 441.604,223.977 C444.528,220.553 448.44,220.061 452.525,221.242 C456.976,222.529 460.182,225.177 461.978,229.735 C465.643,239.029 469.331,248.338 473.611,257.355 C478.131,266.882 486.402,273.22 493.925,280.117 L495.59,279.625 L495.59,279.625 Z M502.938,222.193 C498.382,224.284 496.763,235.088 499.779,240.679 C499.978,237.607 499.928,234.555 500.434,231.599 C500.962,228.516 502.027,225.525 502.938,222.193 L502.938,222.193 Z M446.407,235.677 C445.274,231.416 443.073,227.02 448.367,223.574 C441.865,224.306 441.293,228.814 446.407,235.677 Z M380.822,230.685 C378.729,230.685 377.336,230.966 376.122,230.62 C374.152,230.06 371.404,229.583 370.627,228.167 C369.67,226.425 369.784,223.51 370.574,221.563 C371.327,219.71 373.296,217.963 375.16,217.013 C384.86,212.076 394.589,207.442 406.074,208.259 C415.626,208.939 424.114,214.442 427.591,223.386 C430.387,230.575 428.379,238.599 422.266,244.241 C419.452,246.841 416.487,249.276 413.622,251.821 C411.422,253.777 411.059,255.554 412.425,258.675 C415.601,265.925 421.023,270.239 427.776,273.752 C435.503,277.77 436.975,286.935 431.163,292.102 C426.643,296.118 421.26,295.602 418.701,290.152 C415.702,283.763 411.938,278.171 406.784,273.379 C405.59,272.269 405.079,270.333 404.491,268.692 C403.949,267.177 403.929,265.465 403.32,263.989 C402.212,261.299 401.164,257.799 397.44,258.537 C393.619,259.293 394.635,262.978 394.952,265.509 C395.647,271.048 396.667,276.563 397.88,282.016 C399.083,287.421 396.323,292.83 391.525,293.733 C386.659,294.649 382.34,290.996 382.099,285.089 C381.926,280.857 382.856,276.591 382.879,272.338 C382.904,267.832 383.477,262.928 381.944,258.909 C379.624,252.831 379.294,246.958 380.034,240.745 C380.413,237.565 380.544,234.354 380.822,230.685 Z M395.179,234.997 C394.534,243.057 394.534,243.057 401.93,245.96 C402.203,246.067 402.527,246.13 402.73,246.317 C405.982,249.337 408.265,247.537 410.389,244.815 C411.473,243.425 412.791,242.175 413.65,240.66 C416.49,235.656 418.45,230.499 415.169,224.87 C412.093,219.595 407.019,219.163 401.712,219.293 C400.83,219.314 399.948,219.449 399.069,219.423 C395.549,219.32 394.401,221.303 394.574,224.463 C394.767,227.975 394.977,231.486 395.179,234.997 L395.179,234.997 Z M417.469,283.007 C418.69,285.865 419.279,288.177 420.602,289.937 C421.235,290.781 423.26,290.581 424.655,290.853 C424.173,289.649 423.98,288.166 423.145,287.305 C421.758,285.873 419.959,284.842 417.47,283.006 L417.469,283.007 Z M295.06,259.562 C295.104,248.684 297.71,238.538 303.414,229.255 C308.942,220.263 316.9,215.118 327.49,214.053 C328.798,213.921 330.023,212.919 331.277,212.302 C333.097,211.408 334.825,210.18 336.744,209.672 C339.224,209.014 341.156,209.955 341.257,212.91 C341.439,218.277 344.488,221.532 349.033,223.76 C361.779,230.005 367.157,246.556 362.348,259.092 C359.166,267.389 355.123,275.58 350.126,282.904 C342.594,293.939 331.479,298.951 318.216,295.514 C304.614,291.989 297.675,282.012 295.784,268.368 C295.381,265.456 295.293,262.498 295.06,259.562 L295.06,259.562 Z M327.371,229.867 C325.765,231.287 324.377,232.374 323.151,233.622 C315.141,241.775 311.945,252.021 310.343,262.998 C309.237,270.581 311.929,278.151 316.966,280.954 C323.222,284.434 332.156,283.932 337.529,278.456 C345.769,270.057 350.353,259.6 351.361,247.783 C351.653,244.358 349.586,242.289 346.331,241.545 C344.619,241.154 342.831,240.806 341.095,240.881 C336.965,241.058 334.1,239.016 331.74,235.991 C330.31,234.158 329.032,232.207 327.371,229.867 Z M315.456,222.471 C310.385,222.405 301.261,234.405 301.399,241.091 L315.456,222.471 Z M331.392,228.159 C331.549,234.924 336.319,238.823 342.582,237.124 C340.352,235.866 338.229,235 336.527,233.618 C334.669,232.11 333.199,230.122 331.392,228.159 Z M241.088,225.817 C232.888,225.687 229.721,221.571 232.642,215.985 C233.097,215.115 233.795,214.005 234.612,213.75 C248.57,209.376 262.729,206.16 277.417,209.183 C285.777,210.903 290.717,220.457 289.094,230.245 C287.724,238.509 283.651,244.945 276.128,248.57 C269.938,251.55 263.29,253.565 256.995,256.347 C255.305,257.094 253.306,258.883 252.923,260.535 C251.253,267.725 250.226,274.973 253.443,282.178 C254.922,285.492 256.489,289.379 252.076,291.905 C248.949,293.695 243.626,291.69 242.08,287.045 C240.08,281.035 238.615,274.531 238.622,268.242 C238.63,259.312 240.364,250.397 241.02,241.451 C241.393,236.357 241.088,231.212 241.088,225.817 L241.088,225.817 Z M251.755,230.338 C252.387,238.64 252.387,238.64 258.27,241.845 C262.727,244.273 268.655,242.234 270.87,237.633 C272.324,234.613 273.918,231.653 275.57,228.735 C278.25,224.003 275.704,218.755 270.28,218.553 C266.652,218.416 262.875,218.524 259.378,219.389 C251.353,221.374 251.122,222.002 251.755,230.339 L251.755,230.338 Z M240.765,274.378 C239.708,282.151 244.623,290.483 249.367,289.637 C246.498885,284.550774 243.631552,279.464107 240.765,274.377 L240.765,274.378 Z M168.24,228.592 C150.155,224.73 139.844,246.912 141.967,259.858 C142.538,263.337 143.171,266.857 143.204,270.363 C143.34,285.123 155.151,288.183 165.1,286.273 C168.236,285.671 171.537,284.603 174.11,282.81 C176.13,281.4 178.457,278.425 178.262,276.371 C178.042,274.049 175.582,271.18 173.333,269.983 C169.902,268.155 165.749,267.743 162.023,266.397 C156.744,264.491 153.503,259.392 154.347,254.861 C155.203,250.259 158.83,247.158 164.915,247.466 C171.915,247.82 179.004,248.672 185.796,250.352 C194.236,252.44 198.553,260.074 196.265,268.503 C192.691,281.663 181.247,297.535 161.17,296.424 C152.94,295.969 145.445,293.047 139.568,287.475 C136.958,285.001 135.72,280.7 134.72,276.995 C133.231,271.48 132.047,265.799 131.548,260.117 C130.433,247.44 132.25,235.306 141.402,225.597 C149.623,216.877 159.204,210.93 171.987,213.725 C174.558,214.287 177.055,215.21 179.56,216.043 C182.707,217.093 183.88,219.427 183.495,222.59 C183.094,225.878 181.356,228.207 177.959,228.53 C174.893,228.822 171.776,228.592 168.24,228.592 Z M165.233,216.723 C157.961,215.459 143.393,224.104 141.447,229.806 C150.028,227.112 154.868,217.209 165.233,216.723 Z M164.605,263.994 C163.529,260.974 162.571,257.941 161.345,255.019 C160.858,253.854 159.781,252.935 158.972,251.904 C158.176,253.152 156.818,254.345 156.691,255.658 C156.336,259.308 160.241,263.028 164.605,263.994 L164.605,263.994 Z M125.835,232.811 C123.608,238.037 121.716,243.44 119.085,248.454 C113.477,259.14 107.407,269.584 101.695,280.218 C99.894,283.572 98.734,287.265 97.086,290.711 C95.76,293.484 94.364,296.273 92.602,298.775 C89.943,302.554 86.464,305.495 81.445,304.262 C76.368,303.015 71.83,300.282 70.755,294.827 C68.965,285.754 67.739,276.559 66.551,267.38 C65.606,260.078 65.373,252.673 64.221,245.41 C63.671,241.937 62.101,238.46 60.289,235.402 C58.682,232.689 56.677,229.802 59.358,227.555 C61.698,225.595 65.443,224.112 68.342,224.436 C70.296,224.654 73.065,228.225 73.365,230.566 C74.224,237.254 73.821,244.094 74.271,250.85 C74.671,256.85 75.399,262.838 76.275,268.79 C76.73,271.878 78.429,274.231 81.936,274.702 C85.698,275.206 88.483,273.641 89.709,270.272 C92.471,262.679 94.522,254.814 97.519,247.322 C100.23,240.545 103.802,234.112 107.031,227.545 C107.349,226.899 107.893,226.351 108.388,225.807 C111.548,222.333 116.978,220.691 120.382,222.16 C123.395,223.46 125.102,227.298 125.835,232.81 L125.835,232.811 Z M77.717,298.2 L72.733,281.89 C70.347,289.186 72.674,295.98 77.717,298.2 Z M105.7,235.819 L116.309,225.129 C111.263,225.244 106.215,230.773 105.699,235.819 L105.7,235.819 Z M63.762,227.552 C60.244,230.477 60.384,231.618 64.39,235.127 C64.39,233.041 64.403,230.851 64.371,228.662 C64.368,228.413 64.111,228.168 63.762,227.552 L63.762,227.552 Z M26.54,298.27 C19.402,297.655 14.063,295.538 11.648,288.499 C11.325,287.556 10.731,286.635 10.052,285.899 C7.636,283.274 8.072,280.502 10.424,278.537 C12.773,276.575 15.784,276.667 17.884,279.298 C21.479,283.804 26.278,285.025 31.66,284.746 C35.613,284.542 38.828,283.132 39.948,278.828 C41.139,274.252 38.932,271.338 35.082,269.619 C31.472,268.007 27.544,267.109 23.93,265.504 C18.333,263.022 12.231,261.041 7.516,257.35 C-1.035,250.655 -1.329,241.191 1.891,231.572 C6.127,218.92 17.727,212.046 29.368,214.964 C36.288,216.698 44.314,226.33 44.648,233.389 C44.833,237.271 43.125,240.019 39.249,240.884 C35.634,241.69 32.456,241.005 30.871,237.08 C30.377,235.852 29.868,234.629 29.384,233.396 C26.974,227.245 23.461,225.546 17.517,227.664 C12.98,229.281 10.189,235.658 11.938,240.599 C14.648,248.256 20.999,251.909 27.928,254.801 C32.54,256.726 37.297,258.306 41.913,260.223 C48.911,263.13 52.357,268.804 52.868,276.055 C53.374,283.235 50.603,289.397 43.944,292.501 C38.442,295.065 32.363,296.394 26.54,298.27 L26.54,298.27 Z M12.858,258.02 L2.955,246.467 C2.515,251.443 7.329,257.527 12.858,258.02 L12.858,258.02 Z M37.415,237.077 L31.833,231.368 L30.985,232.19 C32.228,234.693 32.062,238.558 37.415,237.077 Z M15.342,287.96 L12.442,279.165 C8.365,284.044 13.495,285.518 15.342,287.96 Z" id="Shape" fill="#FB0000" fill-rule="nonzero"></path>
    </g>
</svg>