<?xml version="1.0" encoding="UTF-8"?>
<svg width="512px" height="512px" viewBox="0 0 512 512" version="1.1" xmlns="http://www.w3.org/2000/svg" xmlns:xlink="http://www.w3.org/1999/xlink">
    <!-- Generator: Sketch 54.1 (76490) - https://sketchapp.com -->
    <title>email</title>
    <desc>Created with Sketch.</desc>
    <g id="email" stroke="none" stroke-width="1" fill="none" fill-rule="evenodd">
        <g id="Icons/Assets/App/Flat">
            <g id="Icons/Assets/Background/Rounded/Fill" fill="#7ED321">
                <path d="M143.163278,-2.84217094e-14 L368.836722,-2.84217094e-14 C418.617713,-2.84217094e-14 436.669503,5.1832347 454.868689,14.9162659 C473.067875,24.6492971 487.350703,38.9321249 497.083734,57.131311 C506.816765,75.330497 512,93.3822871 512,143.163278 L512,368.832479 C512,418.61347 506.816765,436.66526 497.083734,454.864446 C487.350703,473.063632 473.067875,487.34646 454.868689,497.079491 C436.669503,506.812522 418.617713,511.995757 368.836722,511.995757 L143.163278,511.995757 C93.3822871,511.995757 75.330497,506.812522 57.131311,497.079491 C38.9321249,487.34646 24.6492971,473.063632 14.9162659,454.864446 C5.1832347,436.66526 0,418.61347 0,368.832479 L0,143.163278 C0,93.3822871 5.1832347,75.330497 14.9162659,57.131311 C24.6492971,38.9321249 38.9321249,24.6492971 57.131311,14.9162659 C75.330497,5.1832347 93.3822871,-2.84217094e-14 143.163278,-2.84217094e-14 Z" id="Rounded-shape"></path>
            </g>
            <g id="Icons/Social-Media/Logotypes/Mail/Flat" transform="translate(96.000000, 96.000000)" fill="#FFFFFF">
                <path d="M202.505182,164.147727 L308.181818,266.150514 C303.095729,270.228122 296.77095,272.714032 290.168586,272.836241 C203.364803,273.372768 116.55505,273.372768 29.7512672,272.836241 C23.8145116,272.725955 18.2747337,270.770611 13.6363636,267.569331 L119.695054,169.185123 L121.160587,170.600959 C141.964603,190.443528 175.833062,189.632775 195.789395,170.621824 L202.505182,164.147727 Z M5.8078352,59.6022727 L110.909091,161.327028 L5.25953264,259.602273 C2.19917002,254.980048 0.372488148,249.561093 0.268191466,243.933259 C-0.0893971554,187.986135 -0.0893971554,132.036028 0.268191466,76.0889044 C0.381427863,69.9955647 2.44650215,64.3140178 5.8078352,59.6022727 Z M312.972812,58.6931818 C317.091398,63.7608205 319.63259,70.0700604 319.755309,76.6830013 C320.081564,132.510396 320.081564,188.33779 319.755309,244.162207 C319.662521,249.08395 318.303627,253.716879 316.019847,257.784091 L210.909091,156.717154 L312.972812,58.6931818 Z M303.636364,50.8111493 L187.510111,162.812348 C171.473871,178.092554 145.395213,177.639542 129.839314,163.172969 C91.1882439,126.297215 52.9608291,88.9803708 14.5454545,51.8572488 C19.1817929,48.8888296 24.5878707,47.1453304 30.1938422,47.1125466 C116.834295,47.1125466 203.471765,46.5760853 290.109235,47.115527 C294.957401,47.2049372 299.566888,48.5490708 303.636364,50.8111493 Z" id="Email-shape"></path>
            </g>
        </g>
    </g>
</svg>