<?xml version="1.0" encoding="UTF-8"?>
<svg width="512px" height="512px" viewBox="0 0 512 512" version="1.1" xmlns="http://www.w3.org/2000/svg" xmlns:xlink="http://www.w3.org/1999/xlink">
    <!-- Generator: Sketch 54.1 (76490) - https://sketchapp.com -->
    <title>Facebook</title>
    <desc>Created with Sketch.</desc>
    <g id="Facebook" stroke="none" stroke-width="1" fill="none" fill-rule="evenodd">
        <g id="Icons/Assets/App/Flat">
            <g id="Icons/Assets/Background/Rounded/Fill" fill="#4460A0">
                <path d="M143.163278,-2.84217094e-14 L368.836722,-2.84217094e-14 C418.617713,-2.84217094e-14 436.669503,5.1832347 454.868689,14.9162659 C473.067875,24.6492971 487.350703,38.9321249 497.083734,57.131311 C506.816765,75.330497 512,93.3822871 512,143.163278 L512,368.832479 C512,418.61347 506.816765,436.66526 497.083734,454.864446 C487.350703,473.063632 473.067875,487.34646 454.868689,497.079491 C436.669503,506.812522 418.617713,511.995757 368.836722,511.995757 L143.163278,511.995757 C93.3822871,511.995757 75.330497,506.812522 57.131311,497.079491 C38.9321249,487.34646 24.6492971,473.063632 14.9162659,454.864446 C5.1832347,436.66526 0,418.61347 0,368.832479 L0,143.163278 C0,93.3822871 5.1832347,75.330497 14.9162659,57.131311 C24.6492971,38.9321249 38.9321249,24.6492971 57.131311,14.9162659 C75.330497,5.1832347 93.3822871,-2.84217094e-14 143.163278,-2.84217094e-14 Z" id="Rounded-shape"></path>
            </g>
            <g id="Icons/Social-Media/Logotypes/Facebook/Flat/2" transform="translate(96.000000, 96.000000)" fill="#FFFFFF">
                <path d="M185.519818,320 L117.65945,320 L117.65945,159.979803 L83.75,159.979803 L83.75,104.842212 L117.65945,104.842212 L117.65945,71.7394597 C117.65945,26.760919 136.796364,0 191.200766,0 L236.482477,0 L236.482477,55.1577884 L208.181408,55.1577884 C187.002255,55.1577884 185.602752,62.8629134 185.602752,77.2431204 L185.509452,104.842212 L236.793478,104.842212 L230.791163,159.979803 L185.509452,159.979803 L185.509452,320 L185.519818,320 Z" id="Facebook-shape"></path>
            </g>
        </g>
    </g>
</svg>