<?xml version="1.0" encoding="UTF-8"?>
<svg width="512px" height="512px" viewBox="0 0 512 512" version="1.1" xmlns="http://www.w3.org/2000/svg" xmlns:xlink="http://www.w3.org/1999/xlink">
    <!-- Generator: Sketch 54.1 (76490) - https://sketchapp.com -->
    <title>Github</title>
    <desc>Created with Sketch.</desc>
    <g id="Github" stroke="none" stroke-width="1" fill="none" fill-rule="evenodd">
        <g id="Icons/Assets/App/Flat">
            <g id="Icons/Assets/Background/Rounded/Fill" fill="#000000">
                <path d="M143.163278,-2.84217094e-14 L368.836722,-2.84217094e-14 C418.617713,-2.84217094e-14 436.669503,5.1832347 454.868689,14.9162659 C473.067875,24.6492971 487.350703,38.9321249 497.083734,57.131311 C506.816765,75.330497 512,93.3822871 512,143.163278 L512,368.832479 C512,418.61347 506.816765,436.66526 497.083734,454.864446 C487.350703,473.063632 473.067875,487.34646 454.868689,497.079491 C436.669503,506.812522 418.617713,511.995757 368.836722,511.995757 L143.163278,511.995757 C93.3822871,511.995757 75.330497,506.812522 57.131311,497.079491 C38.9321249,487.34646 24.6492971,473.063632 14.9162659,454.864446 C5.1832347,436.66526 0,418.61347 0,368.832479 L0,143.163278 C0,93.3822871 5.1832347,75.330497 14.9162659,57.131311 C24.6492971,38.9321249 38.9321249,24.6492971 57.131311,14.9162659 C75.330497,5.1832347 93.3822871,-2.84217094e-14 143.163278,-2.84217094e-14 Z" id="Rounded-shape"></path>
            </g>
            <g id="Icons/Social-Media/Logotypes/Github/Flat" transform="translate(96.000000, 96.000000)" fill="#FFFFFF">
                <path d="M0,164.059118 C0,236.53115 45.8405721,298.025624 109.420179,319.718892 C117.425335,321.229565 120.342552,316.163774 120.342552,311.813035 C120.342552,307.915498 120.20504,297.602635 120.126462,283.915936 C75.6217195,293.825952 66.2316216,261.920533 66.2316216,261.920533 C58.9533135,242.966619 48.4631204,237.92097 48.4631204,237.92097 C33.935971,227.739032 49.5632156,227.950526 49.5632156,227.950526 C65.6226404,229.108709 74.0697996,244.859996 74.0697996,244.859996 C88.351392,269.927101 111.522146,262.68594 120.63722,258.486269 C122.090917,247.881342 126.226097,240.660324 130.793456,236.551293 C95.2662758,232.412048 57.912152,218.342644 57.912152,155.478494 C57.912152,137.561909 64.1492986,122.918449 74.3841125,111.447403 C72.743792,107.298087 67.2531385,90.6202543 75.955677,68.0407244 C75.955677,68.0407244 89.3925535,63.6194872 119.949661,84.8494823 C132.718622,81.2137953 146.401056,79.3909162 160.004911,79.3304893 C173.598944,79.3909162 187.281378,81.2137953 200.069984,84.8494823 C230.607447,63.6194872 244.024678,68.0407244 244.024678,68.0407244 C252.746861,90.6202543 247.256208,107.298087 245.615888,111.447403 C255.870346,122.918449 262.058381,137.561909 262.058381,155.478494 C262.058381,218.493712 224.655146,232.361692 189.010099,236.430439 C194.756131,241.49623 199.863716,251.506958 199.863716,266.805043 C199.863716,288.740019 199.677093,306.435039 199.677093,311.813035 C199.677093,316.204059 202.55502,321.300064 210.678044,319.69875 C274.198717,297.965197 320,236.521079 320,164.059118 C320,73.4489347 248.356303,0 159.985267,0 C71.6436969,0 0,73.4489347 0,164.059118 Z" id="Github-shape"></path>
            </g>
        </g>
    </g>
</svg>