<?xml version="1.0" encoding="UTF-8"?>
<svg width="512px" height="512px" viewBox="0 0 512 512" version="1.1" xmlns="http://www.w3.org/2000/svg" xmlns:xlink="http://www.w3.org/1999/xlink">
    <!-- Generator: Sketch 54.1 (76490) - https://sketchapp.com -->
    <title>Instagram</title>
    <desc>Created with Sketch.</desc>
    <defs>
        <linearGradient x1="66.8139539%" y1="-10.5072748%" x2="98.3430837%" y2="111.45127%" id="linearGradient-1">
            <stop stop-color="#4E60D3" offset="0%"></stop>
            <stop stop-color="#913BAF" offset="14.2763214%"></stop>
            <stop stop-color="#D52D88" offset="76.145798%"></stop>
            <stop stop-color="#F26D4F" offset="100%"></stop>
        </linearGradient>
        <radialGradient cx="30.2743283%" cy="100%" fx="30.2743283%" fy="100%" r="93.395181%" gradientTransform="translate(0.302743,1.000000),rotate(32.159880),scale(1.000000,0.719668),translate(-0.302743,-1.000000)" id="radialGradient-2">
            <stop stop-color="#FED276" offset="0%"></stop>
            <stop stop-color="#FDBD61" stop-opacity="0.975005661" offset="17.0240041%"></stop>
            <stop stop-color="#F6804D" offset="45.4081253%"></stop>
            <stop stop-color="#E83D5C" stop-opacity="0" offset="100%"></stop>
        </radialGradient>
        <path d="M143.163278,-2.84217094e-14 L368.836722,-2.84217094e-14 C418.617713,-2.84217094e-14 436.669503,5.1832347 454.868689,14.9162659 C473.067875,24.6492971 487.350703,38.9321249 497.083734,57.131311 C506.816765,75.330497 512,93.3822871 512,143.163278 L512,368.832479 C512,418.61347 506.816765,436.66526 497.083734,454.864446 C487.350703,473.063632 473.067875,487.34646 454.868689,497.079491 C436.669503,506.812522 418.617713,511.995757 368.836722,511.995757 L143.163278,511.995757 C93.3822871,511.995757 75.330497,506.812522 57.131311,497.079491 C38.9321249,487.34646 24.6492971,473.063632 14.9162659,454.864446 C5.1832347,436.66526 0,418.61347 0,368.832479 L0,143.163278 C0,93.3822871 5.1832347,75.330497 14.9162659,57.131311 C24.6492971,38.9321249 38.9321249,24.6492971 57.131311,14.9162659 C75.330497,5.1832347 93.3822871,-2.84217094e-14 143.163278,-2.84217094e-14 Z" id="path-3"></path>
    </defs>
    <g id="Instagram" stroke="none" stroke-width="1" fill="none" fill-rule="evenodd">
        <g id="Icons/Assets/App/Flat">
            <g id="Icons/Assets/Background/Rounded/Fill">
                <g id="Rounded-shape">
                    <use fill="url(#linearGradient-1)" xlink:href="#path-3"></use>
                    <use fill="url(#radialGradient-2)" xlink:href="#path-3"></use>
                </g>
            </g>
            <g id="Icons/Social-Media/Logotypes/Instagram/Flat" transform="translate(96.000000, 96.000000)" fill="#FFFFFF">
                <path d="M160.000318,0 C203.453391,0 208.902094,0.18418509 225.967795,0.962843437 C242.99793,1.73959642 254.628901,4.44457676 264.80608,8.40011035 C275.327494,12.4883842 284.250309,17.9593165 293.145814,26.8541861 C302.040683,35.7496909 307.511616,44.6725058 311.600525,55.1939203 C315.555423,65.3710992 318.260404,77.0020701 319.037157,94.0322046 C319.815815,111.097906 320,116.546609 320,160.000318 C320,203.453391 319.815815,208.902094 319.037157,225.967795 C318.260404,242.99793 315.555423,254.628901 311.600525,264.80608 C307.511616,275.327494 302.040683,284.250309 293.145814,293.145814 C284.250309,302.040683 275.327494,307.511616 264.80608,311.600525 C254.628901,315.555423 242.99793,318.260404 225.967795,319.037157 C208.902094,319.815815 203.453391,320 160.000318,320 C116.546609,320 111.097906,319.815815 94.0322046,319.037157 C77.0020701,318.260404 65.3710992,315.555423 55.1939203,311.600525 C44.6725058,307.511616 35.7496909,302.040683 26.8541861,293.145814 C17.9593165,284.250309 12.4883842,275.327494 8.40011035,264.80608 C4.44457676,254.628901 1.73959642,242.99793 0.962843437,225.967795 C0.18418509,208.902094 0,203.453391 0,160.000318 C0,116.546609 0.18418509,111.097906 0.962843437,94.0322046 C1.73959642,77.0020701 4.44457676,65.3710992 8.40011035,55.1939203 C12.4883842,44.6725058 17.9593165,35.7496909 26.8541861,26.8541861 C35.7496909,17.9593165 44.6725058,12.4883842 55.1939203,8.40011035 C65.3710992,4.44457676 77.0020701,1.73959642 94.0322046,0.962843437 C111.097906,0.18418509 116.546609,0 160.000318,0 Z M160.000318,28.8287773 C117.278268,28.8287773 112.217624,28.9920034 95.34627,29.7617701 C79.7464279,30.4731056 71.2745489,33.0796422 65.6365798,35.2708096 C58.1681919,38.1733126 52.8382565,41.6404382 47.2396649,47.2396649 C41.6404382,52.8382565 38.1733126,58.1681919 35.2708096,65.6365798 C33.0796422,71.2745489 30.4731056,79.7464279 29.7617701,95.34627 C28.9920034,112.217624 28.8287773,117.278268 28.8287773,160.000318 C28.8287773,202.721732 28.9920034,207.782376 29.7617701,224.65373 C30.4731056,240.253572 33.0796422,248.725451 35.2708096,254.36342 C38.1733126,261.831808 41.6410733,267.161743 47.2396649,272.760335 C52.8382565,278.359562 58.1681919,281.826687 65.6365798,284.72919 C71.2745489,286.920358 79.7464279,289.526894 95.34627,290.23823 C112.215719,291.007997 117.275093,291.171223 160.000318,291.171223 C202.724907,291.171223 207.784916,291.007997 224.65373,290.23823 C240.253572,289.526894 248.725451,286.920358 254.36342,284.72919 C261.831808,281.826687 267.161743,278.359562 272.760335,272.760335 C278.359562,267.161743 281.826687,261.831808 284.72919,254.36342 C286.920358,248.725451 289.526894,240.253572 290.23823,224.65373 C291.007997,207.782376 291.171223,202.721732 291.171223,160.000318 C291.171223,117.278268 291.007997,112.217624 290.23823,95.34627 C289.526894,79.7464279 286.920358,71.2745489 284.72919,65.6365798 C281.826687,58.1681919 278.359562,52.8382565 272.760335,47.2396649 C267.161743,41.6404382 261.831808,38.1733126 254.36342,35.2708096 C248.725451,33.0796422 240.253572,30.4731056 224.65373,29.7617701 C207.782376,28.9920034 202.721732,28.8287773 160.000318,28.8287773 Z M160.000318,77.8378893 C205.377173,77.8378893 242.162111,114.622827 242.162111,160.000318 C242.162111,205.377173 205.377173,242.162111 160.000318,242.162111 C114.622827,242.162111 77.8378893,205.377173 77.8378893,160.000318 C77.8378893,114.622827 114.622827,77.8378893 160.000318,77.8378893 Z M160.000318,213.333333 C189.455324,213.333333 213.333333,189.455324 213.333333,160.000318 C213.333333,130.544676 189.455324,106.666667 160.000318,106.666667 C130.544676,106.666667 106.666667,130.544676 106.666667,160.000318 C106.666667,189.455324 130.544676,213.333333 160.000318,213.333333 Z M264.608557,74.5917859 C264.608557,85.1957661 256.012194,93.7914937 245.408214,93.7914937 C234.804869,93.7914937 226.208506,85.1957661 226.208506,74.5917859 C226.208506,63.9878057 234.804869,55.3914429 245.408214,55.3914429 C256.012194,55.3914429 264.608557,63.9878057 264.608557,74.5917859 Z" id="Instagram-/-Color"></path>
            </g>
        </g>
    </g>
</svg>