<?xml version="1.0" encoding="UTF-8"?>
<svg width="512px" height="512px" viewBox="0 0 512 512" version="1.1" xmlns="http://www.w3.org/2000/svg" xmlns:xlink="http://www.w3.org/1999/xlink">
    <!-- Generator: Sketch 54.1 (76490) - https://sketchapp.com -->
    <title>LinkedIn</title>
    <desc>Created with Sketch.</desc>
    <g id="LinkedIn" stroke="none" stroke-width="1" fill="none" fill-rule="evenodd">
        <g id="Icons/Assets/App/Flat">
            <g id="Icons/Assets/Background/Rounded/Fill" fill="#0077B5">
                <path d="M143.163278,-2.84217094e-14 L368.836722,-2.84217094e-14 C418.617713,-2.84217094e-14 436.669503,5.1832347 454.868689,14.9162659 C473.067875,24.6492971 487.350703,38.9321249 497.083734,57.131311 C506.816765,75.330497 512,93.3822871 512,143.163278 L512,368.832479 C512,418.61347 506.816765,436.66526 497.083734,454.864446 C487.350703,473.063632 473.067875,487.34646 454.868689,497.079491 C436.669503,506.812522 418.617713,511.995757 368.836722,511.995757 L143.163278,511.995757 C93.3822871,511.995757 75.330497,506.812522 57.131311,497.079491 C38.9321249,487.34646 24.6492971,473.063632 14.9162659,454.864446 C5.1832347,436.66526 0,418.61347 0,368.832479 L0,143.163278 C0,93.3822871 5.1832347,75.330497 14.9162659,57.131311 C24.6492971,38.9321249 38.9321249,24.6492971 57.131311,14.9162659 C75.330497,5.1832347 93.3822871,-2.84217094e-14 143.163278,-2.84217094e-14 Z" id="Rounded-shape"></path>
            </g>
            <g id="Icons/Social-Media/Logotypes/LinkedIn/Flat" transform="translate(96.000000, 96.000000)" fill="#FFFFFF">
                <path d="M8.07149577,102.609809 L70.4421449,102.609809 L70.4421449,319.979511 L8.07149577,319.979511 L8.07149577,102.609809 Z M37.6669802,75.4206685 L37.215428,75.4206685 C14.6378175,75.4206685 0,58.8039442 0,37.7615572 C0,16.2888974 15.070555,0 38.0997178,0 C61.1100659,0 75.2587018,16.2479191 75.710254,37.7000896 C75.710254,58.7424766 61.1100659,75.4206685 37.6669802,75.4206685 L37.6669802,75.4206685 Z M320,320 L249.275635,320 L249.275635,207.493917 C249.275635,178.050967 238.212606,157.971571 213.88523,157.971571 C195.277516,157.971571 184.929445,171.514919 180.112888,184.607504 C178.306679,189.279037 178.588899,195.815085 178.588899,202.371622 L178.588899,320 L108.523048,320 C108.523048,320 109.426152,120.722244 108.523048,102.609809 L178.588899,102.609809 L178.588899,136.724292 C182.728128,121.80817 205.117592,100.519913 240.84666,100.519913 C285.174036,100.519913 320,131.806889 320,199.113843 L320,320 L320,320 Z" id="LinkedIn-shape"></path>
            </g>
        </g>
    </g>
</svg>