<?xml version="1.0" encoding="UTF-8"?>
<svg width="512px" height="512px" viewBox="0 0 512 512" version="1.1" xmlns="http://www.w3.org/2000/svg" xmlns:xlink="http://www.w3.org/1999/xlink">
    <!-- Generator: Sketch 54.1 (76490) - https://sketchapp.com -->
    <title>website</title>
    <desc>Created with Sketch.</desc>
    <g id="website" stroke="none" stroke-width="1" fill="none" fill-rule="evenodd">
        <g id="Icons/Assets/App/Flat">
            <g id="Icons/Assets/Background/Rounded/Fill" fill="#F5A623" fill-rule="evenodd">
                <path d="M143.163278,-2.84217094e-14 L368.836722,-2.84217094e-14 C418.617713,-2.84217094e-14 436.669503,5.1832347 454.868689,14.9162659 C473.067875,24.6492971 487.350703,38.9321249 497.083734,57.131311 C506.816765,75.330497 512,93.3822871 512,143.163278 L512,368.832479 C512,418.61347 506.816765,436.66526 497.083734,454.864446 C487.350703,473.063632 473.067875,487.34646 454.868689,497.079491 C436.669503,506.812522 418.617713,511.995757 368.836722,511.995757 L143.163278,511.995757 C93.3822871,511.995757 75.330497,506.812522 57.131311,497.079491 C38.9321249,487.34646 24.6492971,473.063632 14.9162659,454.864446 C5.1832347,436.66526 0,418.61347 0,368.832479 L0,143.163278 C0,93.3822871 5.1832347,75.330497 14.9162659,57.131311 C24.6492971,38.9321249 38.9321249,24.6492971 57.131311,14.9162659 C75.330497,5.1832347 93.3822871,-2.84217094e-14 143.163278,-2.84217094e-14 Z" id="Rounded-shape"></path>
            </g>
            <g id="Icons/Social-Media/Logotypes/Website/Flat" transform="translate(96.000000, 96.000000)" fill="#FFFFFF" fill-rule="nonzero">
                <path d="M180.35514,245.505468 C168.672899,257.187708 151.149538,274.711069 127.785057,298.07555 C98.5524576,327.30815 51.1570492,327.30815 21.9244497,298.07555 C-7.30814989,268.842951 -7.30814989,221.447542 21.9244497,192.214943 L89.8648396,124.274553 C119.097439,95.0419533 166.492848,95.0419533 195.725447,124.274553 C204.451596,133.000702 204.451596,147.148585 195.725447,155.874734 C186.999298,164.600883 172.851415,164.600883 164.125266,155.874734 C152.344964,144.094433 133.245322,144.094433 121.465021,155.874734 L53.524631,223.815124 C41.7443297,235.595425 41.7443297,254.695068 53.524631,266.475369 C65.3049323,278.25567 84.4045745,278.25567 96.1848758,266.475369 L140.330901,222.329343 C149.773353,227.944389 162.615775,231.397572 176.765338,231.397572 C183.871931,231.397572 185.478576,240.382032 180.35514,245.505468 Z M139.356161,74.4945322 C151.038401,62.8122917 168.561762,45.2889308 191.926243,21.9244497 C221.158843,-7.30814989 268.554251,-7.30814989 297.786851,21.9244497 C327.01945,51.1570492 327.01945,98.5524576 297.786851,127.785057 L229.846461,195.725447 C200.613861,224.958047 153.218453,224.958047 123.985853,195.725447 C115.259704,186.999298 115.259704,172.851415 123.985853,164.125266 C132.712003,155.399117 146.859886,155.399117 155.586035,164.125266 C167.366336,175.905567 186.465978,175.905567 198.24628,164.125266 L266.186669,96.1848758 C277.966971,84.4045745 277.966971,65.3049323 266.186669,53.524631 C254.406368,41.7443297 235.306726,41.7443297 223.526425,53.524631 L179.380399,97.6706565 C169.937947,92.055611 157.095525,88.6024283 142.945962,88.6024283 C135.83937,88.6024283 134.232725,79.617968 139.356161,74.4945322 Z" id="Combined-Shape"></path>
            </g>
        </g>
    </g>
</svg>