<?xml version="1.0" encoding="UTF-8"?>
<svg width="1200px" height="1200px" viewBox="0 0 1200 1200" version="1.1" xmlns="http://www.w3.org/2000/svg" xmlns:xlink="http://www.w3.org/1999/xlink">
    <!-- Generator: Sketch 54.1 (76490) - https://sketchapp.com -->
    <title>boatim</title>
    <desc>Created with Sketch.</desc>
    <g id="boatim" stroke="none" stroke-width="1" fill="none" fill-rule="evenodd">
        <path d="M172.129032,683.96129 C168.674683,692.384553 163.384955,699.931232 156.645161,706.051613 C149.751623,712.176813 141.669469,716.815267 132.903226,719.677419 C123.116892,722.870068 112.873931,724.439203 102.580645,724.322581 L0,724.322581 L0,478.645161 L98.4516129,478.645161 C122.554839,478.645161 141.204301,484.83871 154.4,497.225806 C167.595699,509.612903 174.193548,526.421505 174.193548,547.651613 C174.288177,553.985086 173.293032,560.287669 171.251613,566.283871 C169.460417,571.5209 166.913038,576.467858 163.690323,580.967742 C160.814974,584.981485 157.461223,588.629881 153.703226,591.832258 C150.734668,594.436055 147.437801,596.63975 143.896774,598.387097 C147.917303,600.445266 151.773807,602.809208 155.432258,605.458065 C159.585566,608.496919 163.241999,612.162058 166.270968,616.322581 C169.705349,621.145509 172.425852,626.438757 174.348387,632.03871 C176.672438,638.979458 177.781183,646.269238 177.625806,653.587097 C177.832785,663.976711 175.964025,674.303146 172.129032,683.96129 Z M118.245161,529.122581 C112.843011,523.96129 104.980645,521.380645 94.6580645,521.380645 L47.8451613,521.380645 L47.8451613,578.025806 L94.6580645,578.025806 C104.980645,578.025806 112.843011,575.445161 118.245161,570.283871 C123.77826,564.915723 126.762843,557.444878 126.451613,549.741935 C126.749669,542.041258 123.767151,534.575584 118.245161,529.2 L118.245161,529.122581 Z M122.03871,629.767742 C116.877419,623.901075 108.782796,620.976344 97.7548387,620.993548 L47.8451613,620.993473 L47.8451613,681.535484 L97.7548387,681.535484 C108.765591,681.535484 116.860215,678.550538 122.03871,672.580645 C127.180624,666.654851 129.939504,659.031145 129.780645,651.187097 C129.968477,643.384897 127.203437,635.799472 122.03871,629.948387 L122.03871,629.767742 Z M404.722581,631.16129 C404.543558,639.817993 403.680656,648.447009 402.141935,656.967742 C400.724573,664.784868 398.295559,672.384212 394.916129,679.574194 C391.328247,686.962795 386.491617,693.676457 380.619355,699.419355 C363.380652,717.3247 339.372262,727.102424 314.529032,726.335484 C301.800432,726.582051 289.155386,724.228668 277.367742,719.419355 C266.404884,714.719623 256.464332,707.926036 248.103226,699.419355 C242.238772,693.669744 237.403174,686.957514 233.806452,679.574194 C230.428641,672.398939 228.057862,664.791602 226.76129,656.967742 C225.327383,648.435874 224.516637,639.810918 224.335484,631.16129 C224.103226,621.974194 224,612.064516 224,601.483871 C224,590.903226 224,581.019355 224.335484,571.806452 C224.516637,563.156824 225.327383,554.531868 226.76129,546 C228.057862,538.17614 230.428641,530.568803 233.806452,523.393548 C237.403174,516.010228 242.238772,509.297998 248.103226,503.548387 C256.47052,495.042581 266.409114,488.241568 277.367742,483.522581 C289.157217,478.716945 301.799733,476.355253 314.529032,476.580645 C339.377538,475.78432 363.397407,485.566719 380.619355,503.496774 C386.463994,509.245846 391.274168,515.959139 394.83871,523.341935 C398.21814,530.531917 400.647154,538.131261 402.064516,545.948387 C403.603343,554.469105 404.466246,563.098129 404.645161,571.754839 C404.868817,580.95914 404.980645,590.851613 404.980645,601.432258 C405.16129,612.064516 404.954839,621.974194 404.722581,631.16129 Z M356.696774,572.322581 C356.481642,565.905889 355.852376,559.509785 354.812903,553.174194 C354.12785,548.932663 352.832713,544.812563 350.967742,540.941935 C346.905933,532.994885 340.301465,526.6357 332.206452,522.877419 C326.633418,520.386968 320.580593,519.153495 314.477419,519.264516 C308.374771,519.239652 302.337825,520.524483 296.774194,523.032258 C291.793091,525.241664 287.334575,528.477825 283.690323,532.529032 C281.386219,535.051541 279.472556,537.904639 278.012903,540.993548 C276.272283,544.895036 275.049021,549.007279 274.374194,553.225806 C273.334721,559.561398 272.705455,565.957501 272.490323,572.374194 C272.146237,580.098925 271.974194,589.819355 271.974194,601.535484 C271.974194,613.251613 272.146237,622.972043 272.490323,630.696774 C272.702712,637.113647 273.331996,643.509928 274.374194,649.845161 C275.046833,654.072496 276.270135,658.193551 278.012903,662.103226 C279.478882,665.188541 281.391944,668.040743 283.690323,670.567742 C287.331189,674.603308 291.791976,677.814723 296.774194,679.987097 C302.39941,682.487762 308.502935,683.729605 314.658065,683.625806 C320.764115,683.738946 326.819234,682.496192 332.387097,679.987097 C337.30102,677.763517 341.696034,674.537576 345.290323,670.516129 C347.539624,667.951049 349.447909,665.10597 350.967742,662.051613 C352.814569,658.169051 354.092218,654.040595 354.76129,649.793548 C355.803488,643.458315 356.432772,637.062034 356.645161,630.645161 C357.006452,622.903226 357.16129,613.225806 357.16129,601.483871 C357.16129,589.741935 357.058065,580.03871 356.696774,572.322581 Z M597.032258,724.322581 L582.554839,680.864516 L495.483871,680.864516 L480.670968,724.322581 L430.76129,724.322581 L519.896774,478.645161 L557.419355,478.645161 L646.941935,724.322581 L597.032258,724.322581 Z M539.870968,551.109677 L508.903226,640.477419 L569.832258,640.477419 L539.870968,551.109677 Z M757.470968,521.432258 L757.470968,724.322581 L709.677419,724.322581 L709.677419,521.432258 L645.6,521.432258 L645.6,478.645161 L821.496774,478.645161 L821.496774,521.432258 L757.470968,521.432258 Z M867.432258,724.322581 L867.432258,478.645161 L915.277419,478.645161 L915.277419,724.322581 L867.432258,724.322581 Z M1150.52903,724.322581 L1150.52903,581.122581 L1103.71613,674.309677 L1071.35484,674.309677 L1024.18065,581.122581 L1024.18065,724.322581 L976.335484,724.322581 L976.335484,478.645161 L1023.50968,478.645161 L1087.53548,611.496774 L1151.22581,478.645161 L1198.37419,478.645161 L1198.37419,724.322581 L1150.52903,724.322581 Z" id="Shape" fill="#387CCE" fill-rule="nonzero"></path>
    </g>
</svg>