<?xml version="1.0" encoding="UTF-8"?>
<svg width="1200px" height="1200px" viewBox="0 0 1200 1200" version="1.1" xmlns="http://www.w3.org/2000/svg" xmlns:xlink="http://www.w3.org/1999/xlink">
    <!-- Generator: Sketch 54.1 (76490) - https://sketchapp.com -->
    <title>caterpillar</title>
    <desc>Created with Sketch.</desc>
    <g id="caterpillar" stroke="none" stroke-width="1" fill="none" fill-rule="evenodd">
        <g id="Caterpillar" fill-rule="nonzero">
            <rect id="Rectangle" fill="#000000" x="0" y="0" width="1200" height="1200"></rect>
            <path d="M414.168,777.912 L305.16,876.228 L271.116,876.228 C209.112,876.228 160.62,824.784 160.62,756.804 L160.62,405 C160.62,336.396 198.684,279.672 299.388,279.672 C397.44,279.804 437.712,336.264 437.712,404.868 L437.712,529.056 L327.948,529.056 L327.948,409.344 C327.948,392.34 315.576,378.54 300.312,378.54 C285.048,378.54 273.684,392.34 273.684,409.344 L273.684,746.244 C273.684,763.308 285.06,777.084 300.312,777.084 C315.576,777.084 327.948,763.308 327.948,746.244 L327.948,627.348 L437.868,627.348 L437.868,714.984 C437.868,735.864 434.388,759.108 414.168,777.912 Z M847.476,791.724 L847.476,405.096 L771.612,405.096 L771.612,291.228 L1046.136,291.228 L1046.136,405.096 L969.912,405.096 L969.912,875.544 L937.368,875.544 L847.476,791.724 Z M599.748,559.704 L658.776,559.704 L629.34,391.26 L599.748,559.704 Z M705.576,291.816 L802.584,749.892 L629.376,588.24 L463.224,737.592 L552.444,291.816 L705.576,291.816 Z" id="Shape" fill="#FFFFFF"></path>
            <polygon id="polygon2406" fill="#FEC40E" points="896.664 876.396 629.316 626.928 352.284 876.396"></polygon>
        </g>
    </g>
</svg>