<svg width="512" height="512" viewBox="0 0 512 512" fill="none" xmlns="http://www.w3.org/2000/svg">
<path fill-rule="evenodd" clip-rule="evenodd" d="M272 9.23761L461.703 118.762C471.603 124.479 477.703 135.043 477.703 146.475V365.525C477.703 376.957 471.603 387.521 461.703 393.238L272 502.762C262.099 508.479 249.901 508.479 240 502.762L50.2975 393.238C40.3967 387.521 34.2975 376.957 34.2975 365.525V146.475C34.2975 135.043 40.3967 124.479 50.2975 118.762L240 9.23761C249.901 3.52136 262.099 3.52136 272 9.23761Z" fill="url(#paint0_linear_2_23)"/>
<path d="M39.0913 129.628L474.025 380.419C473.715 381.009 473.386 381.589 473.039 382.159L38.092 131.361C38.407 130.773 38.7402 130.195 39.0913 129.628Z" fill="url(#paint1_linear_2_23)"/>
<path d="M473.909 131.362L39.0905 382.371C38.7395 381.804 38.4063 381.226 38.0913 380.638L472.909 129.629C473.26 130.196 473.594 130.774 473.909 131.362Z" fill="url(#paint2_linear_2_23)"/>
<path d="M257 507.034C256.334 507.055 255.666 507.055 255 507.034V4.96603C255.666 4.94522 256.334 4.94522 257 4.96603V507.034Z" fill="url(#paint3_linear_2_23)"/>
<path d="M265.012 6.24485C265.018 6.28439 265.024 6.32333 265.03 6.36166C266.16 13.6852 266.967 19.9245 267.119 21.0997L267.367 23.024L276.905 31.2543L283.044 38.4959L275.318 41.2595L263.687 28.5147L253.409 21.3869L246.278 7.26553C246.161 7.0346 246.055 6.80103 245.96 6.56539C252.135 4.52485 258.787 4.41801 265.012 6.24485ZM327.867 48.1128C338.095 52.4099 346.591 59.0518 353.118 67.8532L353.125 67.8628L353.113 67.8711C353.113 67.8711 350.471 69.3889 346.112 70.0116C341.959 70.6062 335.213 70.5679 326.654 67.0095L326.478 66.9353C316.363 62.6877 305.941 54.5726 295.501 42.8145C296.166 42.7459 311.545 41.2586 327.862 48.1109L327.855 48.0917L327.867 48.1128ZM365.517 74.8355C367.518 75.6758 368.892 77.063 369.388 78.7388C369.794 80.1154 369.696 81.6805 369.087 83.5297C368.089 86.5583 366.073 89.141 365.879 89.3876C364.842 89.3295 363.878 89.1314 363.068 88.812L362.888 88.7396C358.878 87.0555 357.664 82.8243 358.239 79.377C358.567 77.4185 359.341 75.9801 360.542 75.104C361.745 74.2253 363.746 74.109 365.503 74.8468L365.517 74.8355ZM282.92 50.222C306.922 64.522 312.444 77.5246 312.85 85.9139C313.283 94.8609 308.013 100.756 307.96 100.815L307.943 100.832L307.919 100.829C307.912 100.826 306.064 100.535 303.645 99.5326C296.673 96.6045 280.907 86.0289 282.902 50.2347L282.904 50.2117L282.925 50.2377L282.92 50.222ZM331.872 77.6966C343.335 82.512 350.945 87.8437 354.491 93.5472C356.53 96.8245 356.756 99.5791 356.587 101.315C356.428 102.941 355.858 104.108 355.738 104.336C355.357 104.326 349.487 104.112 342.294 101.446C341.687 101.22 341.08 100.984 340.454 100.723C331.593 97.0016 319.753 88.907 313.317 71.3265L313.311 71.3089L313.328 71.3148C320.301 73.3246 326.552 75.4654 331.885 77.705L331.872 77.6966ZM386.529 101.228C398.433 106.227 412.717 116.18 417.114 129.12L417.117 129.135L417.083 129.129C416.96 129.107 404.293 126.843 391.668 121.87C390.915 121.574 390.161 121.269 389.406 120.952C378.245 116.265 370.935 110.84 367.672 104.828C366.534 102.729 366.238 101.096 366.768 99.8392C367.21 98.7895 368.506 98.0024 370.237 97.7358C373.9 97.1692 379.067 98.2165 385.6 100.847L386.531 101.205L386.529 101.228ZM414.213 135.542C415.48 136.074 416.258 137.187 416.347 138.592C416.42 139.755 416.109 141.104 415.371 142.835C414.138 145.726 412.227 148.26 412.208 148.285L412.19 148.31C411.545 148.357 410.921 148.265 410.324 148.034L410.32 148.033C408.798 147.394 408.246 145.999 408.032 144.935C407.749 143.516 407.867 141.831 408.365 140.195C408.879 138.51 409.633 137.237 410.671 136.302C411.503 135.563 412.996 135.046 414.206 135.554L414.213 135.542ZM322.689 100.414C324.69 101.255 326.064 102.642 326.56 104.318C326.965 105.694 326.868 107.259 326.259 109.109C325.261 112.137 323.245 114.72 323.051 114.967C322.014 114.908 321.049 114.71 320.24 114.391L320.06 114.318C316.05 112.634 314.835 108.403 315.41 104.956C315.739 102.997 316.512 101.559 317.714 100.683C318.925 99.7908 320.934 99.6946 322.675 100.426L322.689 100.414ZM364.401 121.131C387.825 131.938 396.153 143.258 399.013 150.853C400.624 155.128 400.7 158.728 400.478 160.994C400.268 163.134 399.738 164.617 399.629 164.902L399.589 164.9C399.584 164.898 396.838 164.676 393.152 163.21L392.588 162.98C384.518 159.591 370.128 149.649 364.404 121.145L364.413 121.131H364.401ZM339.355 112.13C357.05 122.998 363.026 135.197 364.922 143.52C366.91 152.243 364.898 158.745 364.8 159.046C364.758 159.041 362.001 158.601 358.359 157.177C358.094 157.075 357.821 156.964 357.545 156.848C357.267 156.731 356.985 156.609 356.701 156.481C347.026 152.17 331.908 140.68 339.353 112.141L339.338 112.135L339.355 112.13ZM431.712 161.483C438.035 164.139 443.722 167.381 448.613 171.121C457.172 177.666 459.151 183.001 459.302 186.325C459.388 188.212 458.922 189.639 458.514 190.504C458.126 191.33 457.646 191.917 457.563 192.014L457.505 192.009C457.476 192.004 449.651 190.908 440.323 187.156C439.955 187.009 439.586 186.857 439.212 186.701C434.752 184.827 430.621 182.596 426.933 180.067C412.838 170.398 411.914 155.856 411.907 155.711L411.908 155.696L411.931 155.7C412.031 155.724 420.994 156.979 431.723 161.485L431.712 161.483ZM376.185 158.356C378.217 159.21 379.604 160.586 380.094 162.234C380.498 163.588 380.389 165.175 379.76 167.08C378.763 170.116 376.756 172.68 376.569 172.915C375.529 172.857 374.562 172.659 373.751 172.339L373.569 172.266C369.557 170.581 368.337 166.333 368.911 162.872C369.227 160.967 370.01 159.547 371.243 158.649C372.492 157.733 374.434 157.623 376.179 158.356L376.185 158.356ZM408.852 175.142C408.976 175.235 416.561 181.121 422.279 190.107C427.572 198.423 432.31 211.188 424.817 224.786L424.813 224.793L424.787 224.789C424.786 224.788 423.881 224.632 422.689 224.183C422.525 224.121 422.351 224.052 422.172 223.977C419.639 222.913 414.889 220.086 411.527 213.108C407.259 204.211 406.366 191.448 408.857 175.126L408.852 175.142ZM385.902 168.529C385.944 168.573 390.708 173.472 394.59 182.687C398.207 191.274 401.832 205.523 398.554 224.649C398.548 224.649 396.294 224.751 393.582 223.802C393.424 223.748 393.27 223.686 393.115 223.621C392.891 223.527 392.663 223.423 392.43 223.318C388.88 221.71 384.285 218.049 382.155 209.567C379.71 199.822 380.949 186.018 385.844 168.536L385.858 168.486L385.894 168.519L385.902 168.529ZM442.971 192.16C449.877 195.06 449.758 199.757 449.386 201.642C448.774 204.742 446.68 207.202 446.66 207.227L446.637 207.253C445.334 207.06 444.05 206.717 442.904 206.255L442.666 206.157C437.224 203.872 434.76 199.335 434.733 195.854C434.727 195.163 434.855 192.83 436.757 191.765C438.271 190.93 440.35 191.059 442.972 192.16L442.971 192.16ZM446.679 217.044C450.795 218.772 456.94 221.643 462.835 225.502C468.681 229.33 469.045 235.902 468.32 240.739C467.53 246.007 465.341 250.428 465.318 250.473L465.3 250.466C445.354 241.404 439.334 232.052 437.795 225.804C436.207 219.353 439.074 214.551 439.259 214.249L439.274 214.253C439.304 214.266 442.328 215.22 446.685 217.05L446.679 217.044ZM413.289 228.051C413.296 228.093 413.912 231.639 414.083 235.793C414.264 240.154 414.165 244.582 412.252 247.437C410.404 250.194 407.239 256.312 405.518 259.712C403.334 264.025 401.549 267.753 401.397 268.069L401.38 268.055C400.974 267.669 391.445 258.426 398.297 248.202C405.161 237.962 413.193 228.15 413.273 228.052L413.284 228.037L413.3 228.044L413.289 228.051ZM427.329 233.864C427.461 233.919 427.583 233.984 427.701 234.056C431.021 236.14 435.838 241.321 440.582 247.915C445.849 255.237 449.434 262.217 450.674 267.569C451.804 272.449 450.225 278.704 445.981 286.162C442.969 291.454 439.612 295.506 439.276 295.907C438.506 295.824 437.76 295.628 437.034 295.323C434.304 294.126 432.091 291.804 429.725 287.74C427.882 284.572 426.172 280.599 424.643 275.936C422.004 267.889 420.718 260.378 420.706 260.305L420.692 260.229C420.714 259.405 420.921 252.309 421.813 245.692C422.379 241.489 423.048 238.57 423.92 236.5C424.416 235.322 424.825 234.583 425.56 234.066C425.865 233.852 426.272 233.705 426.573 233.705C426.846 233.715 427.093 233.766 427.342 233.871L427.329 233.864Z" fill="#011D33"/>
<path fill-rule="evenodd" clip-rule="evenodd" d="M263.003 506.274C257.052 507.609 250.806 507.22 245.026 505.11C245.007 505.05 244.988 504.99 244.97 504.93C244.879 504.632 244.803 504.331 244.741 504.027H244.741C244.365 502.18 244.099 500.753 243.943 499.744C242.814 492.421 242.007 486.181 241.854 485.006L241.607 483.082L232.068 474.852L225.93 467.61L233.655 464.846L245.287 477.591L255.564 484.719L262.696 498.84C263.914 501.252 263.943 503.953 263.003 506.274ZM181.107 457.993C170.879 453.696 162.382 447.054 155.856 438.253L155.849 438.243L155.86 438.235C155.86 438.235 158.502 436.717 162.862 436.094C167.014 435.5 173.761 435.538 182.32 439.096L182.496 439.171C192.611 443.418 203.032 451.533 213.473 463.291C212.808 463.36 197.428 464.847 181.112 457.995L181.118 458.014L181.107 457.993ZM143.457 431.27C141.456 430.43 140.081 429.043 139.586 427.367C139.18 425.991 139.278 424.425 139.887 422.576C140.885 419.548 142.9 416.965 143.094 416.718C144.132 416.776 145.096 416.975 145.905 417.294L146.086 417.366C150.096 419.05 151.31 423.282 150.735 426.729C150.407 428.687 149.633 430.126 148.432 431.002C147.229 431.881 145.227 431.997 143.471 431.259L143.457 431.27ZM226.054 455.884C202.051 441.584 196.529 428.581 196.123 420.192C195.69 411.245 200.961 405.35 201.014 405.291L201.031 405.274L201.054 405.277C201.062 405.28 202.91 405.571 205.328 406.573C212.301 409.501 228.067 420.077 226.072 455.871L226.07 455.894L226.049 455.868L226.054 455.884ZM177.101 428.409C165.639 423.594 158.028 418.262 154.482 412.559C152.444 409.281 152.218 406.527 152.387 404.791C152.546 403.165 153.116 401.998 153.235 401.77C153.617 401.779 159.487 401.994 166.679 404.66C167.287 404.885 167.893 405.122 168.52 405.383C177.38 409.104 189.22 417.199 195.657 434.779L195.663 434.797L195.645 434.791C188.673 432.781 182.422 430.64 177.089 428.401L177.101 428.409ZM122.444 404.878C110.541 399.879 96.2563 389.926 91.86 376.986L91.8562 376.971L91.891 376.977C92.0132 376.999 104.681 379.263 117.306 384.235C118.059 384.532 118.813 384.837 119.568 385.154C130.728 389.841 138.039 395.266 141.301 401.278C142.44 403.377 142.736 405.01 142.206 406.267C141.764 407.316 140.468 408.104 138.737 408.37C135.074 408.937 129.906 407.889 123.374 405.258L122.443 404.901L122.444 404.878ZM94.7604 370.564C93.4939 370.032 92.716 368.919 92.6262 367.514C92.5532 366.351 92.8642 365.002 93.6026 363.271C94.8362 360.38 96.7465 357.846 96.7652 357.821L96.7839 357.795C97.4286 357.749 98.0526 357.841 98.6498 358.072L98.6538 358.073C100.175 358.712 100.727 360.107 100.941 361.17C101.225 362.59 101.107 364.275 100.609 365.911C100.095 367.595 99.3409 368.869 98.303 369.804C97.4706 370.543 95.978 371.06 94.7681 370.552L94.7604 370.564ZM186.285 405.691C184.284 404.851 182.909 403.464 182.414 401.788C182.008 400.412 182.106 398.846 182.715 396.997C183.713 393.969 185.729 391.386 185.923 391.139C186.96 391.197 187.924 391.396 188.733 391.715L188.914 391.787C192.924 393.471 194.138 397.703 193.563 401.15C193.235 403.109 192.461 404.547 191.26 405.423C190.048 406.315 188.04 406.411 186.299 405.68L186.285 405.691ZM144.572 384.975C121.148 374.168 112.821 362.848 109.96 355.253C108.35 350.978 108.274 347.378 108.495 345.112C108.706 342.972 109.235 341.489 109.344 341.204L109.385 341.205C109.389 341.207 112.136 341.43 115.822 342.896L116.385 343.126C124.455 346.515 138.846 356.457 144.57 384.961L144.56 384.975H144.572ZM169.618 393.976C151.923 383.108 145.947 370.909 144.052 362.586C142.064 353.863 144.076 347.361 144.173 347.06C144.215 347.065 146.973 347.505 150.615 348.929C150.88 349.031 151.153 349.142 151.428 349.258C151.707 349.375 151.988 349.497 152.273 349.625C161.948 353.936 177.066 365.426 169.62 393.964L169.636 393.971L169.618 393.976ZM77.2619 344.622C70.939 341.967 65.2518 338.724 60.3605 334.985C51.8013 328.44 49.8229 323.105 49.6719 319.781C49.5853 317.894 50.0517 316.467 50.4593 315.602C50.8472 314.776 51.3282 314.189 51.4107 314.092L51.4682 314.097C51.4979 314.102 59.3232 315.198 68.651 318.95C69.019 319.097 69.3881 319.248 69.7615 319.405C74.2221 321.279 78.353 323.51 82.0402 326.039C96.1355 335.708 97.0601 350.25 97.0664 350.395L97.0656 350.41L97.043 350.406C96.9423 350.382 87.9796 349.127 77.2509 344.621L77.2619 344.622ZM132.789 347.75C130.757 346.896 129.369 345.52 128.879 343.872C128.476 342.518 128.585 340.931 129.214 339.026C130.21 335.99 132.218 333.426 132.405 333.19C133.445 333.248 134.412 333.447 135.223 333.767L135.404 333.84C139.417 335.525 140.636 339.773 140.063 343.234C139.747 345.139 138.963 346.558 137.731 347.457C136.481 348.373 134.54 348.483 132.795 347.75L132.789 347.75ZM100.121 330.964C99.9975 330.871 92.4131 324.985 86.695 315.999C81.4015 307.683 76.6641 294.918 84.1564 281.32L84.1611 281.313L84.1862 281.317C84.1878 281.317 85.0922 281.474 86.2848 281.923C86.4492 281.985 86.6223 282.054 86.8013 282.129C89.3343 283.193 94.0844 286.02 97.4462 292.997C101.715 301.894 102.608 314.658 100.117 330.98L100.121 330.964ZM123.071 337.577C123.029 337.533 118.266 332.634 114.383 323.419C110.767 314.832 107.141 300.583 110.42 281.456C110.425 281.457 112.68 281.355 115.392 282.304C115.549 282.358 115.704 282.42 115.858 282.485C116.083 282.579 116.311 282.683 116.544 282.788C120.094 284.396 124.689 288.057 126.819 296.539C129.264 306.284 128.024 320.088 123.13 337.57L123.116 337.619L123.08 337.587L123.071 337.577ZM66.0032 313.946C59.0971 311.046 59.216 306.349 59.5878 304.463C60.2 301.364 62.2935 298.904 62.3134 298.879L62.3367 298.853C63.6392 299.046 64.9235 299.389 66.0699 299.851L66.3072 299.949C71.7493 302.234 74.2141 306.77 74.2411 310.252C74.2466 310.943 74.1184 313.276 72.2166 314.341C70.7028 315.176 68.6232 315.046 66.0017 313.946L66.0032 313.946ZM62.2943 289.062C58.1791 287.334 52.0341 284.463 46.1385 280.604C40.2925 276.776 39.9289 270.204 40.6532 265.367C41.4433 260.099 43.633 255.678 43.6554 255.633L43.6738 255.64C63.6193 264.702 69.64 274.054 71.1788 280.302C72.7671 286.753 69.8996 291.555 69.7147 291.857L69.7 291.852C69.6695 291.84 66.6453 290.886 62.2885 289.056L62.2943 289.062ZM95.6849 278.055C95.6774 278.013 95.0614 274.467 94.8908 270.312C94.7101 265.952 94.8082 261.524 96.7218 258.668C98.5694 255.912 101.735 249.794 103.456 246.393C105.64 242.08 107.424 238.353 107.577 238.037L107.593 238.05C107.999 238.437 117.529 247.679 110.676 257.903C103.813 268.144 95.7804 277.956 95.7009 278.054L95.6893 278.069L95.6739 278.062L95.6849 278.055ZM81.6443 272.242C81.5131 272.187 81.3907 272.122 81.273 272.049C77.9524 269.966 73.136 264.785 68.3917 258.191C63.1243 250.869 59.5398 243.889 58.2997 238.536C57.1695 233.657 58.7489 227.402 62.9925 219.944C66.0047 214.652 69.3616 210.6 69.6982 210.199C70.4675 210.282 71.2133 210.478 71.9398 210.783C74.6692 211.98 76.883 214.302 79.2486 218.366C81.0917 221.534 82.8017 225.506 84.3311 230.17C86.9701 238.217 88.2552 245.728 88.2679 245.801L88.2812 245.877C88.2595 246.701 88.0525 253.797 87.1612 260.414C86.595 264.617 85.9257 267.536 85.0533 269.605C84.5575 270.784 84.1487 271.523 83.4136 272.04C83.1082 272.254 82.7015 272.4 82.4011 272.401C82.1274 272.391 81.8811 272.34 81.6312 272.235L81.6443 272.242Z" fill="#011D33"/>
<path fill-rule="evenodd" clip-rule="evenodd" d="M264 132.619L358.851 187.381C363.802 190.239 366.851 195.521 366.851 201.238V310.762C366.851 316.479 363.802 321.761 358.851 324.619L264 379.381C259.05 382.239 252.95 382.239 248 379.381L153.149 324.619C148.198 321.761 145.149 316.479 145.149 310.762V201.238C145.149 195.521 148.198 190.239 153.149 187.381L248 132.619C252.95 129.761 259.05 129.761 264 132.619Z" fill="url(#paint4_linear_2_23)"/>
<path d="M265.25 130.454L360.101 185.216C365.825 188.521 369.351 194.628 369.351 201.238V310.762C369.351 317.372 365.825 323.479 360.101 326.784L265.25 381.546C259.526 384.851 252.474 384.851 246.75 381.546L151.899 326.784C146.175 323.479 142.649 317.372 142.649 310.762V201.238C142.649 194.628 146.175 188.521 151.899 185.216L246.75 130.454C252.474 127.149 259.526 127.149 265.25 130.454ZM262.75 134.784C258.573 132.372 253.427 132.372 249.25 134.784L154.399 189.546C150.222 191.958 147.649 196.415 147.649 201.238V310.762C147.649 315.585 150.222 320.042 154.399 322.454L249.25 377.216C253.427 379.628 258.573 379.628 262.75 377.216L357.601 322.454C361.778 320.042 364.351 315.585 364.351 310.762V201.238C364.351 196.415 361.778 191.958 357.601 189.546L262.75 134.784Z" fill="white" fill-opacity="0.87"/>
<defs>
<linearGradient id="paint0_linear_2_23" x1="167.548" y1="80.8598" x2="378.097" y2="410.311" gradientUnits="userSpaceOnUse">
<stop stop-color="#01C1C3"/>
<stop offset="0.999129" stop-color="#003966"/>
</linearGradient>
<linearGradient id="paint1_linear_2_23" x1="256.059" y1="129.628" x2="256.059" y2="382.159" gradientUnits="userSpaceOnUse">
<stop stop-color="#00FFFF"/>
<stop offset="1" stop-color="#004C5E"/>
</linearGradient>
<linearGradient id="paint2_linear_2_23" x1="473.909" y1="213.5" x2="110.887" y2="424.025" gradientUnits="userSpaceOnUse">
<stop stop-color="#004C5E"/>
<stop offset="1" stop-color="#00FFFF"/>
</linearGradient>
<linearGradient id="paint3_linear_2_23" x1="256" y1="4.95042" x2="256" y2="507.05" gradientUnits="userSpaceOnUse">
<stop stop-color="#00FFFF"/>
<stop offset="1" stop-color="#004C5E"/>
</linearGradient>
<linearGradient id="paint4_linear_2_23" x1="233.293" y1="350.818" x2="375.696" y2="271.975" gradientUnits="userSpaceOnUse">
<stop stop-color="#F5A623"/>
<stop offset="1" stop-color="#F8E71C"/>
</linearGradient>
</defs>
</svg>
