<?xml version="1.0" encoding="UTF-8"?>
<svg width="1200px" height="1200px" viewBox="0 0 1200 1200" version="1.1" xmlns="http://www.w3.org/2000/svg" xmlns:xlink="http://www.w3.org/1999/xlink">
    <!-- Generator: Sketch 54.1 (76490) - https://sketchapp.com -->
    <title>difc</title>
    <desc>Created with Sketch.</desc>
    <g id="difc" stroke="none" stroke-width="1" fill="none" fill-rule="evenodd">
        <path d="M411,469.247253 L488,394 L488,809 L411,733.752747 L411,469.247253 Z M790,469.247253 L790,733.752747 L713,809 L713,394 L790,469.247253 Z M636.290556,208.542055 L636.290556,100 L1098.19864,562.35221 L989.760845,562.35221 L636.290556,208.542055 Z M559.613458,212.64198 L210.239155,562.35221 L101.801364,562.35221 L559.613458,104.099925 L559.613458,212.64198 L559.613458,212.64198 Z M636.290556,1100 L636.290556,991.457945 L990.562209,636.845656 L1099,636.845656 L636.290556,1100 Z M559.613458,1095.90008 L101,636.845656 L209.437791,636.845656 L559.613458,987.35802 L559.613458,1095.90008 Z M562,317.226316 L600.5,280 L639,317.226316 L639,885.773684 L600.5,923 L562,885.773684 L562,317.226316 Z" id="Shape" fill="#081C63"></path>
    </g>
</svg>