<?xml version="1.0" encoding="UTF-8"?>
<svg width="1200px" height="1200px" viewBox="0 0 1200 1200" version="1.1" xmlns="http://www.w3.org/2000/svg" xmlns:xlink="http://www.w3.org/1999/xlink">
    <!-- Generator: Sketch 54.1 (76490) - https://sketchapp.com -->
    <title>ica</title>
    <desc>Created with Sketch.</desc>
    <g id="ica" stroke="none" stroke-width="1" fill="none" fill-rule="evenodd">
        <path d="M808.612667,363 L1074,828.784 L939.7,828.784 L910.487556,778.294222 L776.819556,778.294222 L823.517333,696.239556 L863.754667,696.239556 L808.612667,599.052 L750.854889,700.031556 C741.778667,715.831556 732.684889,729.700444 723.608667,741.690889 C679.491556,799.764667 608.093111,837 528.952667,837 C395.934222,837 287.563778,731.596444 287.563778,602.212 C287.563778,472.827556 395.934222,367.388889 528.952667,367.388889 C574.368889,367.388889 615.255778,379.396889 650.946222,399.585778 L593.838,499.933333 C574.1533,488.408697 551.762816,482.314317 528.952667,482.272444 C460.819556,482.272444 405.66,535.922222 405.66,602.176889 C405.66,668.466667 460.819556,722.116444 528.952667,722.116444 C565.924667,722.116444 596.436222,706.966 618.486,684.863556 C628.229333,675.401111 639.254222,659.618667 642.502,653.948222 L808.612667,363 Z M126,828.784 L126,375.64 L244.096222,375.64 L244.096222,828.801556 L126,828.801556 L126,828.784 Z" id="path1878" fill="#E3000B"></path>
    </g>
</svg>