<?xml version="1.0" encoding="UTF-8"?>
<svg width="1200px" height="1200px" viewBox="0 0 1200 1200" version="1.1" xmlns="http://www.w3.org/2000/svg" xmlns:xlink="http://www.w3.org/1999/xlink">
    <!-- Generator: Sketch 54.1 (76490) - https://sketchapp.com -->
    <title>preem</title>
    <desc>Created with Sketch.</desc>
    <g id="preem" stroke="none" stroke-width="1" fill="none" fill-rule="evenodd">
        <g id="logotype" transform="translate(127.000000, 126.000000)">
            <path d="M77.7235589,0 L870.276441,-1.18816502e-14 C913.201977,-1.97669433e-14 948,34.7980226 948,77.7235589 L948,870.276441 C948,913.201977 913.201977,948 870.276441,948 L77.7235589,948 C34.7980226,948 -1.85064384e-14,913.201977 -2.37633004e-14,870.276441 L-1.18816502e-14,77.7235589 C-1.71385123e-14,34.7980226 34.7980226,-1.58780073e-14 77.7235589,0 Z" id="Rectangle" fill="#FFAC3A" fill-rule="nonzero"></path>
            <g id="Group" transform="translate(119.000000, 126.000000)" fill="#006341" fill-rule="nonzero">
                <path d="M194.710449,566.572395 L194.676972,566.673288 C197.817152,560.541942 202.417156,555.285357 208.067776,551.371149 C214.058771,547.548667 221.061236,545.637575 228.153982,545.889283 C231.912234,545.886625 235.656459,546.349747 239.301826,547.268157 L239.301826,573.534027 C237.326683,573.063192 235.318062,572.693251 233.275965,572.390571 C231.136463,572.076702 228.977095,571.919343 226.814902,571.919736 C215.455036,571.852474 207.420554,575.215581 202.711454,582.009058 C198.002355,588.802536 195.647805,598.286499 195.647805,610.460948 L195.647805,662.858164 L171.07568,662.858164 L171.07568,548.512507 L194.710449,548.512507 L194.710449,566.572395 Z M267.556423,594.452556 L327.881995,594.452556 C327.431782,587.24407 324.49616,580.418256 319.579696,575.148319 C314.04502,569.901305 306.584531,567.208043 298.991335,567.715851 C291.202037,567.241313 283.533299,569.82138 277.599526,574.912902 C272.202023,580.137904 268.671774,587.006285 267.556423,594.452556 Z M267.322084,613.185066 L267.5899,613.487745 C268.084401,617.96604 269.43721,622.305816 271.573664,626.267554 C273.504101,629.776228 276.137159,632.84509 279.306853,635.280682 C282.460044,637.675269 286.006407,639.496449 289.785157,640.661654 C293.642366,641.873867 297.661437,642.486307 301.702973,642.477732 C308.548758,642.645639 315.334396,641.157694 321.487886,638.139324 C325.885409,635.896936 329.961725,633.068845 333.606563,629.731555 L346.562166,648.295909 C341.356018,652.975599 335.517988,656.893079 329.221075,659.932261 C320.681553,663.896786 311.34008,665.808223 301.937312,665.515019 C293.515009,665.636918 285.145118,664.165161 277.264756,661.17661 C270.247241,658.502453 263.886881,654.338295 258.618061,648.96853 C253.466531,643.58509 249.447441,637.214168 246.800677,630.236021 C243.908067,622.533338 242.477359,614.354461 242.582573,606.12254 C242.522076,598.100997 243.870663,590.131624 246.566337,582.580787 C249.083232,575.497938 252.949274,568.975381 257.948521,563.377443 C262.954526,557.832809 269.084325,553.429316 275.925675,550.46311 C283.436202,547.252927 291.533295,545.660427 299.694352,545.78839 C307.726548,545.670021 315.698996,547.191757 323.128259,550.261323 C329.770653,553.05627 335.706974,557.307807 340.502827,562.704821 C345.265007,568.274102 348.842319,574.7635 351.014609,581.773641 C353.513765,589.631411 354.745659,597.840202 354.663603,606.088909 L354.663603,613.185066 L267.322084,613.185066 Z M391.555268,594.452556 L451.88084,594.452556 C451.430627,587.24407 448.495004,580.418256 443.578541,575.148319 C438.043865,569.901305 430.583375,567.208043 422.99018,567.715851 C415.200882,567.241313 407.532144,569.82138 401.598371,574.912902 C396.200868,580.137904 392.670619,587.006285 391.555268,594.452556 Z M391.320929,613.185066 L391.454837,613.487745 C391.949338,617.96604 393.302147,622.305816 395.438601,626.267554 C397.369037,629.776228 400.002096,632.84509 403.17179,635.280682 C406.324981,637.675269 409.871344,639.496449 413.650094,640.661654 C417.507303,641.873867 421.526373,642.486307 425.56791,642.477732 C432.413695,642.645639 439.199333,641.157694 445.352823,638.139324 C449.750345,635.896936 453.826662,633.068845 457.4715,629.731555 L470.427103,648.295909 C465.220955,652.975599 459.382924,656.893079 453.086012,659.932261 C444.546489,663.896786 435.205017,665.808223 425.802249,665.515019 C417.379946,665.636918 409.010055,664.165161 401.129692,661.17661 C394.112178,658.502453 387.751818,654.338295 382.482998,648.96853 C377.331468,643.58509 373.312377,637.214168 370.665613,630.236021 C367.773004,622.533338 366.342296,614.354461 366.44751,606.12254 C366.387013,598.100997 367.7356,590.131624 370.431274,582.580787 C372.948169,575.497938 376.814211,568.975381 381.813458,563.377443 C386.819463,557.832809 392.949262,553.429316 399.790612,550.46311 C407.301139,547.252927 415.398232,545.660427 423.559289,545.78839 C431.591485,545.670021 439.563933,547.191757 446.993196,550.261323 C453.635589,553.05627 459.571911,557.307807 464.367764,562.704821 C469.177857,568.262277 472.801197,574.752493 475.013453,581.773641 C477.51261,589.631411 478.744504,597.840202 478.662447,606.088909 L478.662447,613.185066 L391.320929,613.185066 Z M588.768333,567.749482 L588.80181,567.68222 C592.723365,561.299072 598.048535,555.903376 604.36862,551.909246 C611.913004,547.501079 620.555516,545.353847 629.275515,545.721128 C643.849174,545.765969 654.729202,550.250113 661.9156,559.173558 C669.101998,568.097004 672.695197,580.092087 672.695197,595.158809 L672.695197,663.160844 L647.92221,663.160844 L647.92221,597.344829 C647.92221,588.219597 645.947066,581.291596 641.996779,576.560824 C637.478067,571.588061 630.938357,568.972534 624.253964,569.464667 C619.404486,569.294862 614.590955,570.359175 610.260574,572.558726 C606.625086,574.544719 603.541097,577.411694 601.288735,580.899233 C598.879745,584.742323 597.221006,589.010976 596.401091,593.477255 C595.383,598.671722 594.889502,603.956172 594.928103,609.25023 L594.928103,663.059951 L570.355978,663.059951 L570.355978,597.243936 C570.355978,588.118704 568.347357,581.190702 564.330116,576.459931 C559.760231,571.50018 553.197757,568.890321 546.48687,569.363774 C541.637392,569.193968 536.823861,570.258281 532.493479,572.457833 C528.835788,574.457742 525.747482,577.36346 523.521641,580.899233 C521.143515,584.747575 519.518684,589.016688 518.734428,593.477255 C517.789082,598.635205 517.329533,603.871154 517.361871,609.115705 L517.361871,662.925426 L492.789746,662.925426 L492.789746,548.579769 L516.658854,548.579769 L516.658854,564.789948 C520.144294,559.141882 524.94732,554.432187 530.652244,551.068469 C544.651073,543.850425 561.299394,544.064524 575.109713,551.640197 C581.169557,555.510225 585.92903,561.123656 588.768333,567.749482 Z M40.0131861,708.461903 L40.0131861,548.546138 L64.5853114,548.546138 L64.5853114,564.756317 C68.8082436,558.977838 74.2940019,554.249189 80.6207991,550.933945 C87.765614,547.317136 95.6881701,545.526646 103.686459,545.721128 C110.831725,545.664525 117.914588,547.060162 124.509159,549.824119 C130.845004,552.53162 136.546713,556.541184 141.247664,561.594996 C146.247264,567.052498 150.116391,573.454505 152.629848,580.428398 C158.241421,596.771452 158.241421,614.531957 152.629848,630.875011 C150.08026,637.831466 146.215195,644.226752 141.247664,649.708414 C136.590508,654.812652 130.877178,658.830388 124.509159,661.47929 C117.975889,664.163063 110.979033,665.523157 103.920798,665.481388 C95.8423468,665.734999 87.8401546,663.844147 80.7212302,659.999523 C74.5346187,656.495452 69.0605125,651.851854 64.5853114,646.311675 L64.5853114,708.461903 L40.0131861,708.461903 Z M97.5601662,641.973266 L97.5601662,642.07416 C106.8928,642.476237 115.941013,638.796134 122.366631,631.984837 C134.794322,616.687025 134.794322,594.717277 122.366631,579.419466 C115.941013,572.608168 106.8928,568.928065 97.5601662,569.330143 C88.3241445,568.953994 79.3609564,572.52156 72.8876098,579.150417 C60.2875922,594.550716 60.2875922,616.752693 72.8876098,632.152992 C79.3609564,638.78185 88.3241445,642.349415 97.5601662,641.973266 Z M730.699264,471.182459 C731.601471,489.326541 699.623239,493.578014 682.280812,457.490706 C662.332009,415.913307 620.797063,301.190483 613.980387,280.636117 C607.16371,260.08175 560.416012,143.785547 555.671071,127.984796 C550.926129,112.184045 555.13643,98.1910076 573.514724,98.4922931 C583.773154,98.659674 591.224717,84.3318746 591.959849,78.8752594 C592.969277,69.3435077 589.896984,59.8299665 583.505833,52.6968969 C575.118648,43.2231417 557.809636,42.1519043 547.785112,44.2609028 C539.498834,45.4693753 532.48949,51.0232639 529.406817,58.8230354 C527.957798,62.649283 524.883814,65.6307311 521.019632,66.957744 C515.616106,68.8479227 509.637496,68.0526311 504.913563,64.8152693 C491.580946,57.3166079 444.866663,43.7252842 411.752318,40.5785245 C378.637973,37.4317648 323.469674,28.9957708 273.547543,40.5785245 C240.677498,47.8249669 209.59067,61.5982947 182.123882,81.0846864 C172.96815,88.1146814 156.26061,87.1103964 152.618366,74.0546913 C151.206849,68.9912587 147.73089,64.7581113 143.043676,62.3942913 C138.356462,60.0304712 132.89196,59.7548331 127.991451,61.6350334 C120.105492,64.6813646 103.297707,74.1216437 99.0874063,99.5300543 C94.8771062,124.938465 100.023029,140.806168 113.957117,138.998455 C127.891206,137.190742 135.643505,145.827593 132.870053,154.263587 C130.096601,162.699581 115.327136,198.217794 110.615609,220.981588 C105.904083,243.745381 60.8939689,415.310736 48.1962382,443.732002 C36.5009599,469.94384 -7.27279595,478.881977 1.8829362,442.694241 C17.1536281,382.236283 76.0310006,190.618704 81.2103381,176.893476 C85.4874684,165.67896 78.1695657,166.582816 67.8443058,157.678156 C53.7431417,145.59326 38.7397704,111.146284 57.0846497,80.0469252 C75.4295291,48.9475662 100.524255,23.8739172 132.903468,21.6310141 C165.282681,19.3881109 172.934735,27.3219624 177.546016,33.7159103 C181.221675,38.8042877 185.766126,35.255814 195.055518,30.6695791 C227.932316,14.5899169 263.493318,4.73856996 299.945457,1.6122663 C343.615758,-1.51839847 387.503329,0.617052024 430.665253,7.972738 C452.483242,11.3416713 473.939693,16.7436087 494.755379,24.1082504 C509.391184,28.8618661 514.370031,24.5099644 521.855009,17.413017 C534.084929,5.89721565 559.948201,1.2105523 590.890566,11.588164 C619.340767,21.5892496 637.905503,49.0657996 636.602397,79.2434972 C635.031888,105.58924 621.799516,122.293848 612.175973,127.147892 C598.910185,133.843125 608.734219,144.01988 613.479161,156.908204 C616.987744,166.515864 643.151752,227.342059 654.546295,255.830277 C666.642554,286.092732 729.863887,454.444375 730.699264,471.182459 Z M318.390582,137.090313 L318.390582,137.12379 C314.113452,161.260106 288.250179,159.21806 275.853184,145.827593 C263.456189,132.437126 254.267042,113.556568 258.477342,102.308576 C262.687642,91.0605841 282.101804,79.9464967 296.102723,91.8640121 C296.102723,91.8640121 322.600882,113.389187 318.390582,137.090313 Z M430.264272,132.738412 L430.297688,132.872316 C421.496492,140.65155 408.743807,141.994978 398.519946,136.219933 C388.161271,130.227699 387.426139,118.176279 387.158818,105.790097 C386.724422,86.2400161 393.173533,75.9293567 407.709093,76.197166 C417.198976,76.3645468 427.2235,78.5739739 430.565008,86.6417301 C436.379232,101.103434 439.72074,123.264657 430.264272,132.738412 Z M379.038954,229.283677 C376.332332,236.648434 382.781443,250.875805 393.94208,251.043185 C405.102717,251.210566 414.85992,249.971948 418.201428,244.515333 C420.072673,241.167716 420.507069,231.928294 410.482545,225.93606 C405.963172,222.550583 400.572141,220.529606 394.944532,220.111207 C390.400081,219.709493 381.745575,221.91892 379.038954,229.283677 L379.038954,229.283677 Z M509.75875,350.768686 L509.725335,350.802163 C527.969969,350.802163 551.794921,362.853583 533.115891,378.85519 C514.436861,394.856798 458.399771,419.127019 411.885978,424.985348 C365.834316,430.109789 319.221787,424.813108 275.485618,409.485883 C230.442089,393.752085 205.91542,372.494719 204.311496,354.283684 C202.707572,336.072649 211.462323,300.420531 230.241599,328.306178 C249.020874,356.191825 303.05306,377.147906 333.293708,382.236283 C333.658794,382.304305 334.017189,382.088875 334.129085,381.734141 C335.365443,377.884382 342.349195,356.459635 351.404682,334.030603 C351.504432,333.808463 351.488094,333.551281 351.361039,333.343603 C351.233984,333.135924 351.012649,333.004615 350.769795,332.992842 C345.503232,332.637714 340.267105,331.921883 335.098122,330.850367 C305.458946,324.422943 270.540186,313.777522 259.011983,289.005159 C247.48378,264.232795 265.527924,213.114688 290.255084,195.673605 C314.982244,178.232523 377.100879,151.786351 418.568994,160.389726 C460.03711,168.9931 485.900382,199.322508 488.406513,226.572107 C490.912644,253.821707 485.833552,302.09434 443.162494,316.58952 C428.271813,321.794762 413.071932,326.065665 397.651154,329.377416 C397.375063,329.432284 397.154482,329.640269 397.083097,329.913034 C393.173533,346.115499 387.593214,369.649245 385.087083,381.432855 C385.035236,381.655062 385.089135,381.888795 385.233018,382.065702 C385.376901,382.242608 385.594513,382.342702 385.822215,382.336712 C414.425524,381.934998 443.195909,377.382239 459.903449,370.687006 C485.198665,360.811536 491.547531,350.768686 509.75875,350.768686 Z" id="Shape"></path>
            </g>
            <g id="Group" transform="translate(119.000000, 126.000000)"></g>
        </g>
    </g>
</svg>