<?xml version="1.0" encoding="UTF-8"?>
<svg width="1200px" height="1200px" viewBox="0 0 1200 1200" version="1.1" xmlns="http://www.w3.org/2000/svg" xmlns:xlink="http://www.w3.org/1999/xlink">
    <!-- Generator: Sketch 54.1 (76490) - https://sketchapp.com -->
    <title>audi</title>
    <desc>Created with Sketch.</desc>
    <g id="audi" stroke="none" stroke-width="1" fill="none" fill-rule="evenodd">
        <path d="M730.569824,808.476257 C681.173731,808.476257 635.741967,791.266683 600,762.478347 C564.258033,791.266683 518.826269,808.476257 469.430176,808.476257 C420.034084,808.476257 374.60232,791.266683 338.860353,762.478347 C303.118386,791.266683 257.686622,808.476257 208.290529,808.476257 C94.6087901,808.476257 1.92447108,717.324227 0.0295121411,603.658283 C-1.8654468,489.992338 87.7289656,395.801484 201.347531,392.012093 L202.072919,392 L214.50814,392 L215.233528,392.012093 C262.111666,393.575567 304.900115,410.528293 338.860353,437.88865 C372.820591,410.528293 415.60904,393.575567 462.487178,392.012093 L463.212566,392 L475.647787,392 L476.373175,392.012093 C523.251313,393.575567 566.039762,410.528293 600,437.88865 C633.960238,410.528293 676.748687,393.575567 723.626825,392.012093 L724.352213,392 L736.787434,392 L737.512822,392.012093 C784.39096,393.575567 827.179409,410.528293 861.139647,437.88865 C895.099885,410.528293 937.888334,393.575567 984.766472,392.012093 L985.49186,392 L997.927081,392 L998.652469,392.012093 C1112.27103,395.801484 1201.86545,489.992338 1199.97049,603.658283 C1198.07553,717.324227 1105.39121,808.476257 991.709471,808.476257 C942.313378,808.476257 896.881614,791.266683 861.139647,762.478347 C825.39768,791.266683 779.965916,808.476257 730.569824,808.476257 Z M991.709471,764.952983 C1081.63682,764.952983 1154.95426,692.847646 1156.45326,602.932794 C1157.9503,513.135209 1087.26381,438.703136 997.553252,435.523275 L985.865689,435.523275 C950.647555,436.771609 918.361319,449.000995 892.223225,468.830187 C922.114045,505.581788 939.681051,552.659824 938.830841,603.658283 C938.022189,652.163917 920.680273,696.569639 892.228731,731.541474 C919.889655,752.519948 954.367551,764.952983 991.709471,764.952983 Z M783.448453,603.658283 C782.598243,552.659824 800.165249,505.581788 830.056069,468.830187 C803.917975,449.000995 771.631739,436.771609 736.413605,435.523275 L724.726042,435.523275 C689.507908,436.771609 657.221672,449.000995 631.083578,468.830187 C660.974398,505.581788 678.541404,552.659824 677.691194,603.658283 C676.882542,652.163917 659.540626,696.569639 631.089084,731.541474 C658.750008,752.519948 693.227904,764.952983 730.569824,764.952983 C767.911743,764.952983 802.389639,752.519948 830.050563,731.541474 C801.599021,696.569639 784.257105,652.163917 783.448453,603.658283 Z M895.313613,602.932794 C895.960202,564.148232 883.141163,528.230062 861.139647,499.681172 C839.138131,528.230062 826.319092,564.148232 826.965681,602.932794 C827.57946,639.749293 840.234116,673.5799 861.139647,700.697268 C882.045178,673.5799 894.699834,639.749293 895.313613,602.932794 Z M475.273958,435.523275 L463.586395,435.523275 C428.368261,436.771609 396.082025,449.000995 369.943931,468.830187 C399.834751,505.581788 417.401757,552.659824 416.551547,603.658283 C415.742895,652.163917 398.400979,696.569639 369.949437,731.541474 C397.610361,752.519948 432.088257,764.952983 469.430176,764.952983 C506.772096,764.952983 541.249992,752.519948 568.910916,731.541474 C540.459374,696.569639 523.117458,652.163917 522.308806,603.658283 C521.458596,552.659824 539.025602,505.581788 568.916422,468.830187 C542.778328,449.000995 510.492092,436.771609 475.273958,435.523275 Z M565.826034,602.932794 C566.439813,639.749293 579.094469,673.5799 600,700.697268 C620.905531,673.5799 633.560187,639.749293 634.173966,602.932794 C634.820555,564.148232 622.001516,528.230062 600,499.681172 C577.998484,528.230062 565.179445,564.148232 565.826034,602.932794 Z M307.776775,468.830187 C281.638681,449.000995 249.352445,436.771609 214.134311,435.523275 L202.446748,435.523275 C112.736191,438.703136 42.0496973,513.135209 43.5467396,602.932794 C45.045737,692.847646 118.363183,764.952983 208.290529,764.952983 C245.632449,764.952983 280.110345,752.519948 307.771269,731.541474 C279.319727,696.569639 261.977811,652.163917 261.169159,603.658283 C260.318949,552.659824 277.885955,505.581788 307.776775,468.830187 Z M304.686387,602.932794 C305.300166,639.749293 317.954822,673.5799 338.860353,700.697268 C359.765884,673.5799 372.42054,639.749293 373.034319,602.932794 C373.680908,564.148232 360.861869,528.230062 338.860353,499.681172 C316.858837,528.230062 304.039798,564.148232 304.686387,602.932794 Z" id="Shape" fill="#000000" fill-rule="nonzero"></path>
    </g>
</svg>