<?xml version="1.0" encoding="UTF-8"?>
<svg width="1200px" height="1200px" viewBox="0 0 1200 1200" version="1.1" xmlns="http://www.w3.org/2000/svg" xmlns:xlink="http://www.w3.org/1999/xlink">
    <!-- Generator: Sketch 54.1 (76490) - https://sketchapp.com -->
    <title>hard-rock</title>
    <desc>Created with Sketch.</desc>
    <g id="hard-rock" stroke="none" stroke-width="1" fill="none" fill-rule="evenodd">
        <g id="Hard_Rock_Cafe_Logo" transform="translate(0.000000, 236.000000)">
            <circle id="Oval" fill="#F9B200" cx="616.909091" cy="363.202909" r="339.412364"></circle>
            <path d="M942.942545,258.554182 C926.552727,207.298909 898.058182,160.341818 858.912,121.195636 C794.269091,56.5527273 708.322909,20.9498182 616.909091,20.9498182 C478.695273,20.9498182 359.358545,103.304727 305.380364,221.515636 L311.406545,221.528727 C327.831273,186.165818 350.526545,153.595636 378.916364,125.201455 C442.485818,61.632 527.009455,26.6225455 616.909091,26.6225455 C706.813091,26.6225455 791.332364,61.632 854.906182,125.201455 C894.462545,164.762182 922.965818,212.434909 938.849455,264.466909 L942.942545,258.554182 Z M950.993455,404.260364 C930.680727,570.554182 788.600727,699.778909 616.909091,699.778909 C527.009455,699.778909 442.485818,664.769455 378.916364,601.2 C326.042182,548.321455 292.922182,480.955636 283.278545,408.048 L277.265455,405.730909 C286.538182,481.042909 320.4,550.699636 374.910545,605.210182 C439.549091,669.853091 525.499636,705.456 616.913455,705.456 C708.331636,705.456 794.277818,669.853091 858.916364,605.210182 C913.252364,550.874182 947.070545,481.483636 956.469818,406.446545 L950.993455,404.260364 Z" id="Shape" fill="#000000" fill-rule="nonzero"></path>
            <path d="M959.301818,241.453091 C941.480727,191.218909 912.536727,145.182545 873.735273,106.376727 C805.130182,37.7803636 713.921455,0 616.909091,0 C466.974545,0 337.972364,91.3221818 282.593455,221.262545 L288.357818,221.716364 C306.043636,180.672 331.544727,142.948364 364.097455,110.395636 C431.629091,42.864 521.410909,5.67272727 616.909091,5.67272727 C712.407273,5.67272727 802.189091,42.864 869.720727,110.391273 C908.439273,149.109818 937.182545,195.141818 954.663273,245.376 L959.301818,241.453091 Z M971.637818,408.069818 C949.501091,584.116364 798.859636,720.733091 616.909091,720.733091 C521.410909,720.733091 431.629091,683.546182 364.097455,616.014545 C306.069818,557.986909 270.445091,483.521455 261.565091,403.121455 L255.460364,399.259636 C263.624727,482.653091 300.056727,559.994182 360.087273,620.024727 C428.688,688.625455 519.896727,726.405818 616.909091,726.405818 C713.921455,726.405818 805.130182,688.625455 873.730909,620.024727 C931.649455,562.106182 967.597091,488.072727 977.389091,408.034909 L971.637818,408.069818 Z" id="Shape" fill="#000000" fill-rule="nonzero"></path>
            <path d="M543.006545,569.084592 L576.183273,477.643636 L577.662545,473.568 L607.518545,473.568 L608.945455,477.761455 L640.005818,569.262545 L642.781091,577.444364 L615.202909,577.444364 L613.68,573.473455 L605.384727,551.851636 L578.504727,551.851636 L569.537455,573.613091 L567.957818,577.44 L539.978182,577.44 L542.183189,571.356228 L540.384,572.622545 C538.468364,573.975273 530.949818,578.391273 514.730182,578.391273 C509.000727,578.391273 494.247273,576.885818 480.938182,562.957091 C471.102545,552.510545 466.132364,539.550545 466.132364,524.391273 C466.132364,513.351273 468.698182,497.480727 480.912,484.551273 C490.224,474.654545 502.721455,469.2 516.091636,469.2 C526.398545,469.2 534.283636,471.656727 541.653818,477.168 L544.215273,479.070545 L544.141091,482.256 L543.826909,495.975273 L543.517091,509.607273 L533.467636,500.395636 C526.656,494.151273 521.930182,494.321455 517.758545,494.474182 C517.108364,494.500364 516.493091,494.522182 515.864727,494.522182 C502.032,494.522182 491.598545,507.36 491.598545,524.386909 C491.598545,533.258182 494.657455,541.405091 499.994182,546.741818 C504.130909,550.878545 509.349818,553.064727 515.083636,553.064727 C515.681455,553.064727 516.296727,553.090909 516.942545,553.117091 C520.900364,553.278545 526.324364,553.505455 532.874182,548.077091 L543.006545,539.685818 L543.006545,569.084592 L543.006545,569.084592 Z M595.985455,524.984727 L591.931636,512.064 L587.515636,524.984727 L595.985455,524.984727 Z M644.456727,474.109091 L704.456727,474.109091 L704.456727,499.435636 L669.486545,499.435636 L669.486545,513.381818 L696.837818,513.381818 L696.837818,538.708364 L669.486545,538.708364 L669.486545,577.435636 L644.456727,577.435636 L644.456727,474.109091 Z M713.733818,474.109091 L776.731636,474.109091 L776.731636,499.435636 L738.759273,499.435636 L738.759273,513.381818 L770.321455,513.381818 L770.321455,538.708364 L738.759273,538.708364 L738.759273,552.109091 L776.731636,552.109091 L776.731636,577.435636 L713.733818,577.435636 L713.733818,474.109091 Z" id="Shape" fill="#000000" fill-rule="nonzero"></path>
            <path d="M578.866909,531.172364 L604.411636,531.172364 L592.184727,492.205091 L578.866909,531.172364 Z M548.801455,571.248 L582,479.746909 L603.089455,479.746909 L634.149818,571.248 L619.453091,571.248 L609.634909,545.655273 L574.363636,545.655273 L563.816727,571.248 L548.801455,571.248 Z M537.634909,495.84 C527.816727,486.837818 520.298182,488.338909 515.856,488.338909 C498.091636,488.338909 485.406545,504.384 485.406545,524.386909 C485.406545,543.744 497.773091,559.248 515.074909,559.248 C518.932364,559.248 527.271273,560.749091 536.814545,552.837818 L536.814545,567.565091 C534.244364,569.380364 526.996364,572.203636 514.721455,572.203636 C507.709091,572.203636 495.922909,569.694545 485.402182,558.680727 C477.456,550.237091 472.311273,539.197091 472.311273,524.386909 C472.311273,512.565818 475.584,499.186909 485.402182,488.797091 C493.937455,479.729455 504.859636,475.383273 516.082909,475.383273 C526.603636,475.383273 532.913455,478.363636 537.940364,482.120727 L537.634909,495.84 Z M698.273455,493.248 L663.298909,493.248 L663.298909,519.565091 L690.650182,519.565091 L690.650182,532.520727 L663.298909,532.520727 L663.298909,571.248 L650.644364,571.248 L650.644364,480.292364 L698.273455,480.292364 L698.273455,493.248 Z M770.544,493.248 L732.571636,493.248 L732.571636,519.565091 L764.129455,519.565091 L764.129455,532.520727 L732.571636,532.520727 L732.571636,558.292364 L770.544,558.292364 L770.544,571.248 L719.917091,571.248 L719.917091,480.292364 L770.544,480.292364 L770.544,493.248 Z" id="Shape" fill="#FFFFFF" fill-rule="nonzero"></path>
            <path d="M898.180364,234.567273 C931.998545,243.656727 946.909091,287.109818 924.362182,336.567273 C898.158545,394.049455 854.587636,409.029818 827.816727,397.658182 C801.041455,386.286545 793.994182,331.261091 812.360727,288.021818 C830.727273,244.782545 867.259636,226.254545 898.180364,234.567273 Z M890.181818,318.200727 C897.892364,293.406545 888.065455,280.830545 875.088,277.291636 C869.088,275.655273 854.360727,280.564364 843.089455,313.653818 C835.173818,336.894545 835.453091,353.288727 844.180364,357.290182 C857.144727,363.233455 883.077818,341.057455 890.181818,318.200727 Z M541.876364,252.257455 L566.823273,159.84 L617.188364,159.84 L553.732364,394.930909 L486.973091,394.930909 L488.247273,390.205091 C474.458182,398.88 462.728727,398.002909 450.366545,392.749091 C423.595636,381.377455 430.450909,340.743273 448.817455,297.504 C467.184,254.264727 503.838545,233.266909 530.609455,244.638545 C534.907636,246.466909 538.629818,249.085091 541.876364,252.257455 Z M526.677818,324.475636 C536.090182,300.274909 523.998545,274.930909 513.093818,272.199273 C504.558545,270.065455 491.642182,284.696727 484.546909,308.199273 C477.451636,331.706182 481.998545,341.965091 493.274182,349.291636 C501.150545,354.410182 518.133818,346.450909 526.677818,324.475636 Z M169.208727,142.385455 L223.754182,142.385455 L155.816727,394.930909 L101.271273,394.930909 L133.256727,276.021818 L95.712,276.021818 L63.7265455,394.930909 L9.18109091,394.930909 L63.5476364,192.837818 C63.5476364,192.837818 46.7301818,202.385455 32.2734545,196.930909 C38.2734545,176.749091 40.1847273,169.112727 40.1847273,169.112727 C40.1847273,169.112727 66.3665455,171.294545 85.4574545,142.385455 L131.664,142.385455 L105.988364,237.84 L143.533091,237.84 L169.208727,142.385455 Z M1014.36218,278.749091 C1001.81673,279.84 983.825455,294.528 980.177455,329.297455 C978.178909,348.388364 992.208,347.808 1000.54255,352.568727 C1010.18182,358.075636 1017.08945,337.112727 1033.45309,344.203636 L1022.544,385.658182 C1000.69091,399.669818 968.644364,403.880727 952.180364,396.021818 C928.180364,384.567273 924.519273,341.380364 943.453091,298.385455 C960.907636,258.750545 1001.44145,233.345455 1032.36218,241.658182 C1041.91855,244.224 1049.17964,251.629091 1055.81673,259.112727 L1041.08945,310.385455 C1034.96727,299.463273 1020.92945,278.177455 1014.36218,278.749091 Z M460.180364,238.385455 L446.548364,285.024 C446.548364,285.024 431.550545,274.656 419.275636,281.476364 C406.455273,288.296727 401.602909,308.762182 401.602909,308.762182 L378.912,394.930909 L332.548364,394.930909 L373.195636,240.567273 L419.554909,240.567273 L416.168727,253.431273 C416.168727,253.431273 428.544,237.569455 439.453091,235.112727 C451.998545,232.110545 460.180364,238.385455 460.180364,238.385455 Z M318.637091,360.021818 C324.637091,362.203636 337.182545,354.567273 337.186909,354.567273 L317.821091,387.84 C317.821091,387.84 309.822545,400.568727 285.277091,400.568727 C269.563636,400.568727 258.043636,389.061818 256.730182,387.294545 C240.309818,401.253818 223.954909,403.034182 208.730182,396.567273 C181.959273,385.195636 172.363636,342.170182 190.730182,298.930909 C209.096727,255.691636 256.145455,230.456727 282.916364,241.828364 C288.654545,244.263273 293.415273,248.286545 297.268364,253.413818 L300.650182,240.567273 L347.013818,240.567273 L317.986909,350.792727 C317.986909,350.792727 315.512727,358.887273 318.637091,360.021818 Z M279.565091,329.794909 C287.271273,305.000727 288.462545,277.269818 276.912,270.384 C265.357091,263.498182 246.379636,282.977455 239.284364,306.48 C232.189091,329.986909 234.855273,345.970909 246.366545,352.930909 C256.158545,358.856727 272.461091,352.647273 279.565091,329.794909 Z M785.816727,391.658182 C793.902545,401.76 811.998545,395.476364 812.002909,395.480727 L823.457455,430.935273 C823.457455,430.935273 798.288,460.778182 762.637091,457.937455 C731.816727,455.485091 723.634909,427.392 722.544,420.301091 C721.453091,413.210182 720.912,398.482909 723.364364,389.480727 C725.816727,380.478545 732.907636,363.298909 734.818909,342.842182 C736.730182,322.385455 735.093818,304.930909 732.091636,297.84 C729.089455,290.749091 726.362182,282.021818 726.362182,282.021818 L732.907636,256.385455 C732.907636,256.385455 760.450909,263.201455 774.907636,236.203636 C789.364364,209.205818 779.297455,191.546182 773.271273,186.021818 C766.725818,180.021818 757.998545,177.294545 753.634909,177.84 C749.271273,178.385455 744.436364,179.768727 744.436364,179.768727 L687.085091,394.930909 L631.994182,394.930909 L684.689455,197.218909 C684.689455,197.218909 673.998545,202.660364 663.36,201.84 C656.269091,201.84 650.269091,199.112727 650.269091,199.112727 L659.541818,169.112727 C659.541818,169.112727 668.814545,171.024 680.544,166.930909 C691.998545,162.842182 709.453091,147.294545 709.453091,147.294545 L790.180364,145.658182 C790.180364,145.658182 831.634909,141.565091 835.998545,203.476364 C831.634909,260.749091 777.089455,277.658182 777.089455,277.658182 L780.362182,285.84 C780.362182,285.84 783.028364,296.434909 784.725818,324.021818 C786.907636,359.476364 770.544,372.567273 785.816727,391.658182 Z M1188.90764,405.294545 L1198.18473,435.298909 C1198.18473,435.298909 1169.72945,465.805091 1143.09382,462.301091 C1122.36655,459.573818 1113.91418,443.210182 1112.00291,428.482909 C1110.09164,413.755636 1113.91418,404.753455 1114.18473,391.662545 C1114.45527,378.571636 1110.64145,357.569455 1106.81891,354.571636 C1102.99636,351.573818 1105.99855,342.026182 1105.99855,342.026182 L1107.08945,322.660364 C1107.08945,322.660364 1124.46545,322.106182 1139.27127,310.930909 C1153.728,300.021818 1158.912,289.387636 1153.728,281.201455 C1148.544,273.015273 1133.63345,272.199273 1122.90764,280.381091 C1116.10036,285.573818 1108.99636,294.837818 1106.26909,300.837818 C1103.54182,306.837818 1101.09382,313.610182 1101.09382,313.610182 L1079.81673,394.747636 L1038,394.747636 L1099.03855,162.021818 L1140.85527,162.021818 L1115.45891,258.846545 C1115.45891,258.846545 1135.45309,243.019636 1156.72582,243.84 C1177.99855,244.660364 1191.63491,256.298182 1193.27127,269.659636 C1194.90764,283.021091 1188.63273,299.751273 1178.544,313.112727 C1168.45527,326.474182 1151.45455,333.84 1146.36218,338.203636 C1142.544,341.476364 1148.84073,341.650909 1152.90764,355.474909 C1156.54255,367.841455 1154.81891,382.656 1156.72582,391.112727 C1158.63273,399.569455 1168.90473,400.568727 1180.54255,398.386909 C1184.90618,401.659636 1188.90764,405.294545 1188.90764,405.294545 Z" id="Shape" fill="#000000" fill-rule="nonzero"></path>
            <g id="Group" transform="translate(0.000000, 127.545455)" fill="#FFFFFF" fill-rule="nonzero">
                <path d="M325.376503,253.734024 C318.856405,257.702996 301.759827,266.84 282.545455,266.84 C266.832,266.84 256.040727,252.789091 254.727273,251.021818 C238.306909,264.981091 222.497455,270.579636 207.272727,264.112727 C180.501818,252.741091 169.815273,212.988364 188.181818,169.749091 C206.548364,126.509818 252.506182,95.8203636 279.277091,107.192 C285.015273,109.626909 289.776,113.650182 293.629091,118.777455 L297.010909,105.930909 L337.636364,98.84 L343.374545,105.930909 L321.272727,191.567273 C321.272727,191.567273 316.909091,204.658182 318,209.567273 C323.180284,209.567273 335.876948,203.302712 340.947832,200.689541 L369.560727,105.930909 L415.924364,105.930909 L412.538182,118.794909 C412.538182,118.794909 424.909091,107.842182 435.818182,105.385455 C441.726545,103.971636 446.002909,100.908364 449.000727,102.112727 C452.548364,106.114182 454.093091,109.203636 454.093091,109.203636 L439.090909,156.112727 C439.090909,156.112727 429.543273,141.930909 417.272727,148.746909 C404.452364,155.567273 397.963636,174.121455 397.963636,174.121455 L375.272727,260.294545 L328.909091,260.294545 L325.376503,253.734024 L325.376503,253.734024 Z M890.727273,104.84 C925.112727,114.082182 941.432727,153.049455 917.454545,207.930909 C892.162909,265.823273 845.498182,274.393455 818.727273,263.021818 C791.956364,251.650182 783.268364,206.988364 801.634909,163.749091 C820.001455,120.509818 859.806545,96.5272727 890.727273,104.84 Z M879.456,193.928 C887.166545,169.133818 880.363636,147.385455 873.272727,144.653818 C863.480727,140.888 846.362182,152.473455 835.090909,185.562909 C827.175273,208.803636 831.818182,223.016 840.545455,227.017455 C853.505455,232.960727 872.347636,216.784727 879.456,193.928 Z M607.819636,18.1127273 L613.553455,25.2036364 L550.097455,260.294545 L491.458909,260.294545 L491.458909,255.930909 C477.665455,264.601455 465.643636,267.184727 453.277091,261.930909 C426.506182,250.559273 424.913455,218.84 445.182545,162.867636 C461.175273,118.694545 500.203636,98.6305455 526.974545,110.002182 C531.272727,111.830545 534.994909,114.448727 538.241455,117.621091 L563.184,25.2036364 L607.819636,18.1127273 Z M484.909091,217.749091 C492.789818,222.867636 503.454545,216.112727 512.727273,199.203636 C525.211636,176.438545 520.909091,152.84 514.363636,144.112727 C506.295273,133.352 487.697455,152.338182 480.602182,175.840727 C473.502545,199.343273 473.633455,210.422545 484.909091,217.749091 Z M215.026909,0.658181818 L220.110545,7.74909091 L152.177455,260.294545 L97.632,260.294545 L92.1774545,253.203636 L129.621818,141.385455 L92.0770909,141.385455 L60.0916364,260.294545 L5.54618182,260.294545 L7.10542736e-13,253.203636 L59.9127273,58.2014545 C59.9127273,58.2014545 43.0952727,67.7490909 28.6385455,62.2945455 C26.1818182,57.9309091 23.4545455,54.6581818 23.4545455,54.6581818 L36.5454545,34.4763636 C36.5454545,34.4763636 62.7272727,36.6581818 81.8181818,7.74909091 C84.9163636,7.74909091 118.363636,0.658181818 118.363636,0.658181818 L122.365091,0.658181818 L128.024727,7.74909091 L102.349091,103.203636 L139.893818,103.203636 L165.573818,7.74909091 L215.026909,0.658181818 Z M1022.36509,206.84 C1024.90909,211.203636 1027.31782,217.238545 1027.31782,217.238545 L1017.85309,254.495273 C996,268.506909 965.009455,269.244364 948.545455,261.385455 C924.545455,249.930909 920.884364,206.744 939.818182,163.749091 C957.272727,124.114182 994.717091,103.072727 1025.63782,111.385455 C1032.22691,113.157091 1039.23927,114.806545 1044.54545,119.021818 C1046.93236,120.92 1048.21964,124.502545 1050.27927,126.828364 L1038,170.84 C1031.87782,159.917818 1022.15564,145.644364 1015.63636,144.658182 C1002.336,142.642182 988.542545,152.477818 977.271273,185.567273 C969.355636,208.808 977.847273,215.715636 986.181818,220.476364 C993.412364,224.608727 1010.928,210.784727 1022.36509,206.84 Z M242.16,225.245818 C251.952,231.171636 268.821818,218.010909 275.930182,195.158545 C283.640727,170.36 285.669818,146.778909 274.114909,139.893091 C262.56,133.007273 242.744727,148.341091 235.649455,171.843636 C228.554182,195.346182 230.648727,218.285818 242.16,225.245818 Z M740.801455,45.1323636 L683.454545,260.294545 L628.363636,260.294545 L623.271273,253.203636 L681.058909,62.5825455 C681.058909,62.5825455 670.363636,68.0196364 659.725091,67.2036364 L646.904727,67.2036364 L641.995636,59.0218182 L655.906909,34.4763636 C655.906909,34.4763636 665.179636,36.3876364 676.909091,32.2945455 C688.363636,28.2014545 705.818182,12.6581818 705.818182,12.6581818 L749.454545,12.6581818 C749.454545,12.6581818 825.272727,-0.432727273 829.636364,68.2945455 C830.727273,136.205818 765.272727,146.111273 765.272727,146.111273 L770.181818,152.84 C770.181818,152.84 777.133091,161.615273 778.909091,190.476364 C781.090909,225.930909 770.426182,235.635636 774,249.930909 C775.911273,257.567273 776.304,262.541818 782.727273,263.567273 C787.636364,264.352727 799.090909,262.476364 799.090909,262.476364 L806.727273,266.84 L816,301.203636 C816,301.203636 790.56,328.044364 754.909091,325.203636 C724.088727,322.746909 720,292.746909 718.909091,285.656 C717.818182,278.565091 717.272727,263.837818 719.729455,254.835636 C722.186182,245.833455 729.277091,228.653818 731.184,208.197091 C733.090909,187.740364 731.458909,170.285818 728.456727,163.194909 C725.454545,156.104 725.637818,149.741818 725.637818,149.741818 L729.272727,121.740364 C729.272727,121.740364 765.870545,125.850909 775.090909,96.6494545 C783.272727,70.7381818 776.181818,60.6494545 769.636364,53.0130909 C764.317091,46.808 755.454545,44.2858182 751.090909,44.8312727 C746.727273,45.3767273 740.801455,45.1323636 740.801455,45.1323636 Z M1097.45891,178.978182 L1076.18182,260.115636 L1034.36509,260.115636 L1028.72727,253.208 L1095.39927,27.3898182 L1132.128,20.2989091 L1137.22036,27.3898182 L1117.63636,104.844364 C1117.63636,104.844364 1126.35055,99.1018182 1147.63636,98.8443636 C1177.99855,98.4821818 1186.36364,117.664727 1188,131.026182 C1189.63636,144.387636 1184.99782,165.119273 1174.90909,178.480727 C1164.82036,191.842182 1148.72727,200.573818 1142.72727,203.571636 C1136.72727,206.569455 1134,206.844364 1134,206.844364 L1140,212.298909 C1140,212.298909 1143.27273,217.753455 1147.09091,230.844364 C1150.90909,243.935273 1147.36582,256.210182 1149.27273,264.662545 C1151.17964,273.114909 1150.93091,271.744727 1155.81818,274.118545 C1165.36582,278.757091 1177.99855,262.480727 1177.99855,262.480727 L1190.18182,306.662545 C1190.18182,306.662545 1162.81745,333.075636 1136.18182,329.571636 C1115.45455,326.844364 1104.27055,311.571636 1102.36364,296.844364 C1100.45673,282.117091 1102.08873,269.571636 1102.36364,256.480727 C1102.63855,243.389818 1100.72727,229.753455 1098,223.753455 C1095.99273,219.333091 1087.09091,210.662545 1087.09091,210.662545 L1099.09091,173.026182 C1099.09091,173.026182 1114.89164,171.590545 1124.18182,166.480727 C1135.09091,160.480727 1142.91055,151.391273 1140.18327,146.482182 C1135.47927,138.016727 1126.45527,143.209455 1119.09382,147.573091 C1111.73236,151.936727 1105.36582,160.210182 1102.63855,166.210182 C1099.91127,172.210182 1097.45891,178.978182 1097.45891,178.978182 Z" id="Shape"></path>
            </g>
            <g id="Group" transform="translate(0.000000, 127.545455)" fill="#993520" fill-rule="nonzero">
                <path d="M882.362182,101.384 C916.180364,110.473455 933.272727,156.291636 910.721455,205.749091 C884.517818,263.231273 840.039273,264.575273 813.268364,253.203636 C786.497455,241.832 778.176,199.897455 796.542545,156.658182 C814.909091,113.414545 851.441455,93.0712727 882.362182,101.384 Z M874.363636,186.837091 C882.074182,162.042909 885.189818,142.454545 873.639273,135.564364 C862.088727,128.678545 841.274182,145.382545 830.002909,178.472 C822.082909,201.712727 823.819636,224.652364 832.546909,228.653818 C845.506909,234.597091 867.259636,209.693818 874.363636,186.837091 Z M558.091636,18.1127273 L608.461091,18.1127273 L545.005091,253.203636 L494.64,253.203636 L495.914182,248.477818 C482.125091,257.148364 467.672727,259.914909 455.306182,254.661091 C428.535273,243.289455 421.723636,199.016 440.090182,155.776727 C458.456727,112.537455 495.111273,91.5396364 521.882182,102.911273 C526.180364,104.739636 529.902545,107.357818 533.149091,110.530182 L558.091636,18.1127273 Z M480.100364,220.803636 C487.981091,225.922182 505.326545,212.687273 513.870545,190.707636 C523.282909,166.511273 524.914909,139.976 515.598545,134.6 C503.947636,127.875636 482.605091,145.247273 475.509818,168.749818 C468.410182,192.252364 468.824727,213.472727 480.100364,220.803636 Z M160.481455,0.658181818 L215.026909,0.658181818 L147.089455,253.203636 L92.544,253.203636 L124.529455,134.294545 L86.9847273,134.294545 L54.9992727,253.203636 L0.453818182,253.203636 L54.8203636,51.1105455 C54.8203636,51.1105455 38.0029091,60.6581818 23.5461818,55.2036364 C29.5461818,35.0218182 31.4574545,27.3854545 31.4574545,27.3854545 C31.4574545,27.3854545 57.6392727,29.5672727 76.7301818,0.658181818 C81.6392727,0.658181818 122.936727,0.658181818 122.936727,0.658181818 L97.2610909,96.1127273 L134.805818,96.1127273 L160.481455,0.658181818 Z M977.637818,225.018909 C987.277091,230.530182 1007.10982,222.531636 1022.22109,210.138909 L1012.76073,247.395636 C990.912,261.407273 967.92,261.053818 951.456,253.194909 C927.456,241.740364 915.796364,199.644364 934.730182,156.649455 C952.184727,117.014545 989.629091,95.9730909 1020.54982,104.285818 C1030.10618,106.856 1038.55855,112.245091 1045.19564,119.728727 L1036.52073,153.869818 C1030.39418,142.952 1020.88145,135.093091 1014.36655,134.106909 C1001.06618,132.095273 983.454545,145.382545 972.183273,178.472 C964.267636,201.712727 969.303273,220.258182 977.637818,225.018909 Z M410.832,98.84 L407.445818,111.704 C407.445818,111.704 419.821091,102.933091 430.730182,100.476364 C443.275636,97.4741818 449.005091,102.112727 449.005091,102.112727 L437.821091,143.296727 C437.821091,143.296727 424.455273,134.84 412.184727,141.660364 C399.364364,148.480727 392.875636,167.034909 392.875636,167.034909 L370.184727,253.203636 L323.816727,253.203636 L364.464,98.84 L410.832,98.84 Z M309.909818,218.294545 C315.909818,220.476364 328.455273,212.84 328.459636,212.835636 L319.457455,245.562909 C319.457455,245.562909 309.093818,257.837818 284.548364,257.837818 C268.834909,257.837818 259.025455,245.375273 257.712,243.608 C241.291636,257.562909 222.898909,263.157091 207.674182,256.690182 C180.907636,245.318545 174.091636,201.049455 192.458182,157.805818 C210.824727,114.566545 247.418182,88.7294545 274.189091,100.101091 C279.927273,102.536 284.688,106.559273 288.541091,111.686545 L291.922909,98.84 L338.286545,98.84 L309.259636,209.065455 C309.259636,209.065455 306.785455,217.16 309.909818,218.294545 Z M237.067636,218.154909 C246.864,224.080727 263.729455,210.92 270.837818,188.067636 C278.544,163.269091 280.573091,139.688 269.022545,132.802182 C257.472,125.916364 237.652364,141.250182 230.557091,164.752727 C223.457455,188.255273 225.556364,211.194909 237.067636,218.154909 Z M735.713455,38.0414545 L678.366545,253.203636 L623.275636,253.203636 L675.970909,55.4916364 C675.970909,55.4916364 665.275636,60.9287273 654.641455,60.1127273 C647.550545,60.1127273 641.550545,57.3854545 641.550545,57.3854545 L650.823273,27.3854545 C650.823273,27.3854545 660.096,29.2967273 671.825455,25.2036364 C683.28,21.1105455 700.734545,5.56727273 700.734545,5.56727273 L744.370909,5.56727273 C744.370909,5.56727273 813.643636,1.47418182 822.096,64.4763636 C823.186909,132.387636 758.823273,140.569455 758.823273,140.569455 L757.186909,144.387636 C757.186909,144.387636 770.138182,154.528727 771.914182,183.389818 C774.096,218.844364 767.550545,228.662545 767.005091,243.389818 C766.621091,253.779636 768.475636,262.594182 773.825455,266.298909 C784.464,273.664727 798.100364,261.389818 798.100364,261.389818 L808.193455,296.573818 C808.193455,296.573818 789.573818,319.050909 753.918545,316.210182 C723.098182,313.753455 714.916364,285.664727 713.825455,278.573818 C712.734545,271.482909 712.189091,256.755636 714.645818,247.753455 C717.102545,238.751273 724.193455,221.571636 726.100364,201.114909 C728.007273,180.658182 726.375273,163.203636 723.373091,156.112727 C720.370909,149.021818 715.461818,146.294545 715.461818,146.294545 L724.189091,114.658182 C724.189091,114.658182 756.100364,114.112727 770.552727,87.1105455 C785.005091,60.1083636 771.373091,43.7447273 764.007273,40.2014545 C756.641455,36.6581818 749.28,35.5629091 744.916364,36.1083636 C740.552727,36.6538182 735.713455,38.0414545 735.713455,38.0414545 Z M1092.37091,171.887273 L1071.09382,253.024727 L1029.27709,253.024727 L1090.31564,20.2989091 L1132.13236,20.2989091 L1106.736,117.123636 C1106.736,117.123636 1126.73018,101.296727 1148.00291,102.117091 C1169.27564,102.937455 1180.18473,113.846545 1181.82109,127.208 C1183.45745,140.569455 1179.90982,158.028364 1169.82109,171.389818 C1159.73236,184.751273 1143.63927,193.482909 1137.63927,196.480727 C1131.63927,199.478545 1128.912,199.753455 1128.912,199.753455 L1127.54618,203.846545 C1127.54618,203.846545 1135.18255,210.666909 1139.00073,223.757818 C1142.81891,236.848727 1141.728,254.848727 1143.63927,263.305455 C1145.55055,271.762182 1147.74982,277.024727 1152.64145,279.398545 C1162.18909,284.037091 1173.09818,272.578182 1173.09818,272.578182 L1182.64582,303.123636 C1182.64582,303.123636 1161.01091,324.082182 1134.37091,320.578182 C1113.64364,317.850909 1105.18691,301.487273 1103.28,286.76 C1101.37309,272.032727 1105.19127,263.030545 1105.46182,249.939636 C1105.73236,236.848727 1101.91418,215.846545 1098.096,212.848727 C1094.27782,209.850909 1091.00509,208.210182 1091.00509,208.210182 L1098.37091,180.937455 C1098.37091,180.937455 1115.74691,180.383273 1130.55273,169.208 C1145.00945,158.298909 1150.18909,147.660364 1145.00945,139.478545 C1139.82982,131.296727 1124.28218,136.205818 1116.91636,140.569455 C1109.55055,144.933091 1100.27782,153.114909 1097.55055,159.114909 C1094.82327,165.114909 1092.37091,171.887273 1092.37091,171.887273 Z" id="Combined-Shape"></path>
            </g>
        </g>
    </g>
</svg>