<?xml version="1.0" encoding="UTF-8"?>
<svg width="1200px" height="1200px" viewBox="0 0 1200 1200" version="1.1" xmlns="http://www.w3.org/2000/svg" xmlns:xlink="http://www.w3.org/1999/xlink">
    <!-- Generator: Sketch 54.1 (76490) - https://sketchapp.com -->
    <title>qmatic</title>
    <desc>Created with Sketch.</desc>
    <g id="qmatic" stroke="none" stroke-width="1" fill="none" fill-rule="evenodd">
        <path d="M488.029412,675.117647 L416.470588,675.117647 L416.470588,670.088235 C425.294118,669.470588 426.352941,667 426.352941,663.735294 L426.352941,532.441176 L362.647059,670.617647 L300.176471,531.382353 L300.176471,663.735294 C300.176471,667.088235 301.235294,669.558824 310.058824,670.088235 L310.058824,675.117647 L248.294118,675.117647 L248.294118,670.088235 C257.029412,669.470588 258.176471,667 258.176471,663.735294 L258.176471,500.852941 C258.176471,497.5 257.117647,495.029412 248.294118,494.5 L248.294118,489.823529 L327,489.823529 L364.323529,576.205882 L405.882353,489.823529 L488.029412,489.823529 L488.029412,494.5 C479.205882,494.764706 478.147059,498.029412 478.147059,501.382353 L478.147059,663.735294 C478.147059,667.088235 479.205882,669.558824 488.029412,670.088235 L488.029412,675.117647 Z M816.264706,675.117647 L743.911765,675.117647 L743.911765,670.088235 C752.647059,669.470588 753.529412,667 753.529412,663.735294 L753.529412,532.441176 L693.529412,532.441176 C689.647059,532.441176 688.235294,533.941176 687.176471,542.764706 L682.5,542.764706 L682.5,489.823529 L877.676471,489.823529 L877.676471,542.323529 L873,542.323529 C871.852941,534.382353 870.441176,532.441176 866.647059,532.441176 L806.382353,532.441176 L806.382353,663.735294 C806.382353,667.088235 807.441176,669.558824 816.264706,670.088235 L816.264706,675.117647 L816.264706,675.117647 Z M967.323529,675.117647 L894.970588,675.117647 L894.970588,670.088235 C903.705882,669.470588 904.852941,667 904.852941,663.735294 L904.852941,500.852941 C904.852941,497.5 903.794118,495.029412 894.970588,494.5 L894.970588,489.823529 L967.323529,489.823529 L967.323529,494.411765 C958.5,495.029412 957.441176,497.5 957.441176,500.764706 L957.441176,663.823529 C957.441176,667.088235 958.5,669.647059 967.323529,675.117647 Z M708.705882,659.588235 C711.970588,667.882353 714.705882,670.088235 718.5,670.088235 L718.5,675.117647 L649.411765,675.117647 L649.411765,670 C654.352941,669.735294 656.029412,667.176471 656.029412,665.852941 C656.029412,664.529412 645.617647,639.205882 644.205882,634.794118 L560.823529,634.794118 C556.458595,645.129219 552.687744,655.705278 549.529412,666.470588 C549.529412,668.676471 550.941176,670.088235 555.882353,670.088235 L555.882353,675.117647 L494.205882,675.117647 L494.205882,670.088235 C498.766371,669.799686 502.583114,666.523049 503.558824,662.058824 C506.470588,653.588235 565.323529,500.852941 565.323529,498.647059 C565.323529,495.029412 561.705882,494.5 558.705882,494.5 L558.705882,489.823529 L640.147059,489.823529 L708.705882,659.588235 Z M570,606.647059 L570,606.470588 L635.294118,606.470588 L601.058824,523 L570,606.647059 Z M143.647059,682.441176 C151.058824,692.058824 165.970588,699.735294 188.470588,699.735294 C197.068054,699.647463 205.637057,698.731466 214.058824,697 L187.588235,738.823529 C182.934508,739.398598 178.247719,739.663888 173.558824,739.617647 C141.176471,739.617647 97.0588235,725.852941 79.4117647,681.294118 C33.8823529,670.882353 0,636.029412 0,583.088235 C0,517.264706 51.0882353,481 114.705882,481 C178.323529,481 229.411765,517.264706 229.5,583.088235 C229.5,638.323529 191.823529,673.617647 143.647059,682.441176 Z M53.3823529,582.823529 C53.3823529,615.558824 75.7941176,640.617647 114.441176,640.617647 C153.088235,640.617647 176.205882,615.823529 176.205882,582.823529 C176.205882,549.823529 152.911765,524.5 114.441176,524.5 C75.9705882,524.5 53.3823529,549.823529 53.3823529,582.823529 Z M1196.91176,505.794118 L1168.5,558.205882 L1164.08824,556.264706 C1165.18188,553.699955 1165.18188,550.800045 1164.08824,548.235294 C1160.64706,541.529412 1136.64706,534.029412 1107.70588,534.029412 C1078.76471,534.029412 1041.52941,546.205882 1041.52941,582.647059 C1041.52941,615.470588 1071.26471,631 1106.02941,631 C1130.61377,630.735005 1154.69144,623.97743 1175.82353,611.411765 L1200,652.529412 C1171.14894,669.366139 1138.37469,678.312869 1104.97059,678.470588 C1044.70588,678.470588 986.029412,646.529412 986.029412,582.823529 C986.029412,519.117647 1046.55882,487.176471 1103.55882,487.176471 C1135.70844,485.943854 1167.69457,492.32294 1196.91176,505.794118 Z" id="Shape" fill="#8F002F" fill-rule="nonzero"></path>
    </g>
</svg>